AfacadFlux-ThinBackslant.ufo
<glyph name="exclam" format="2">
  <advance width="480"/>
  <unicode hex="0021"/>
  <outline>
    <contour>
      <point x="230" y="270" type="line"/>
      <point x="266" y="270" type="line"/>
      <point x="111" y="900" type="line"/>
      <point x="69" y="900" type="line"/>
    </contour>
    <contour>
      <point x="310" y="-8" type="curve" smooth="yes"/>
      <point x="331" y="-8"/>
      <point x="348" y="10"/>
      <point x="348" y="29" type="curve" smooth="yes"/>
      <point x="348" y="54"/>
      <point x="326" y="76"/>
      <point x="302" y="76" type="curve" smooth="yes"/>
      <point x="283" y="76"/>
      <point x="264" y="61"/>
      <point x="264" y="38" type="curve" smooth="yes"/>
      <point x="264" y="14"/>
      <point x="286" y="-8"/>
    </contour>
  </outline>
</glyph>
<glyph name="numbersign" format="2">
  <advance width="750"/>
  <unicode hex="0023"/>
  <outline>
    <contour>
      <point x="374" y="0" type="line"/>
      <point x="414" y="0" type="line"/>
      <point x="307" y="258" type="line"/>
      <point x="529" y="258" type="line"/>
      <point x="636" y="0" type="line"/>
      <point x="676" y="0" type="line"/>
      <point x="569" y="258" type="line"/>
      <point x="699" y="258" type="line"/>
      <point x="684" y="294" type="line"/>
      <point x="554" y="294" type="line"/>
      <point x="426" y="606" type="line"/>
      <point x="560" y="606" type="line"/>
      <point x="545" y="642" type="line"/>
      <point x="411" y="642" type="line"/>
      <point x="304" y="900" type="line"/>
      <point x="264" y="900" type="line"/>
      <point x="371" y="642" type="line"/>
      <point x="149" y="642" type="line"/>
      <point x="42" y="900" type="line"/>
      <point x="2" y="900" type="line"/>
      <point x="109" y="642" type="line"/>
      <point x="-23" y="642" type="line"/>
      <point x="-8" y="606" type="line"/>
      <point x="124" y="606" type="line"/>
      <point x="252" y="294" type="line"/>
      <point x="116" y="294" type="line"/>
      <point x="131" y="258" type="line"/>
      <point x="267" y="258" type="line"/>
    </contour>
    <contour>
      <point x="292" y="294" type="line"/>
      <point x="164" y="606" type="line"/>
      <point x="386" y="606" type="line"/>
      <point x="514" y="294" type="line"/>
    </contour>
  </outline>
</glyph>
<glyph name="dollar" format="2">
  <advance width="750"/>
  <unicode hex="0024"/>
  <outline>
    <contour>
      <point x="477" y="-120" type="line"/>
      <point x="513" y="-120" type="line"/>
      <point x="482" y="2" type="line"/>
      <point x="574" y="32"/>
      <point x="636" y="111"/>
      <point x="636" y="210" type="curve" smooth="yes"/>
      <point x="636" y="330"/>
      <point x="547" y="431"/>
      <point x="400" y="480" type="curve" smooth="yes"/>
      <point x="267" y="524" type="line" smooth="yes"/>
      <point x="156" y="561"/>
      <point x="93" y="632"/>
      <point x="93" y="718" type="curve" smooth="yes"/>
      <point x="93" y="809"/>
      <point x="163" y="873"/>
      <point x="263" y="873" type="curve" smooth="yes"/>
      <point x="325" y="873"/>
      <point x="388" y="849"/>
      <point x="441" y="804" type="curve"/>
      <point x="440" y="858" type="line"/>
      <point x="383" y="895"/>
      <point x="321" y="912"/>
      <point x="255" y="912" type="curve"/>
      <point x="235" y="990" type="line"/>
      <point x="199" y="990" type="line"/>
      <point x="220" y="908" type="line"/>
      <point x="120" y="892"/>
      <point x="51" y="816"/>
      <point x="51" y="719" type="curve" smooth="yes"/>
      <point x="51" y="616"/>
      <point x="128" y="528"/>
      <point x="257" y="484" type="curve" smooth="yes"/>
      <point x="390" y="439" type="line" smooth="yes"/>
      <point x="520" y="395"/>
      <point x="594" y="312"/>
      <point x="594" y="210" type="curve" smooth="yes"/>
      <point x="594" y="103"/>
      <point x="510" y="27"/>
      <point x="392" y="27" type="curve" smooth="yes"/>
      <point x="319" y="27"/>
      <point x="246" y="57"/>
      <point x="181" y="115" type="curve"/>
      <point x="181" y="61" type="line"/>
      <point x="266" y="-2"/>
      <point x="366" y="-20"/>
      <point x="449" y="-7" type="curve"/>
    </contour>
  </outline>
</glyph>
<glyph name="ampersand" format="2">
  <advance width="800"/>
  <unicode hex="0026"/>
  <outline>
    <contour>
      <point x="424" y="-12" type="curve" smooth="yes"/>
      <point x="512" y="-12"/>
      <point x="592" y="30"/>
      <point x="656" y="108" type="curve"/>
      <point x="768" y="0" type="line"/>
      <point x="818" y="0" type="line"/>
      <point x="677" y="137" type="line"/>
      <point x="717" y="197"/>
      <point x="742" y="270"/>
      <point x="747" y="342" type="curve"/>
      <point x="711" y="375" type="line"/>
      <point x="712" y="299"/>
      <point x="691" y="223"/>
      <point x="652" y="162" type="curve"/>
      <point x="309" y="496" type="line"/>
      <point x="352" y="530" type="line" smooth="yes"/>
      <point x="438" y="598"/>
      <point x="469" y="647"/>
      <point x="469" y="707" type="curve" smooth="yes"/>
      <point x="469" y="813"/>
      <point x="370" y="908"/>
      <point x="256" y="908" type="curve" smooth="yes"/>
      <point x="158" y="908"/>
      <point x="84" y="838"/>
      <point x="84" y="743" type="curve" smooth="yes"/>
      <point x="84" y="681"/>
      <point x="116" y="625"/>
      <point x="190" y="555" type="curve" smooth="yes"/>
      <point x="253" y="495" type="line"/>
      <point x="163" y="427"/>
      <point x="122" y="358"/>
      <point x="122" y="276" type="curve" smooth="yes"/>
      <point x="122" y="123"/>
      <point x="263" y="-12"/>
    </contour>
    <contour>
      <point x="423" y="26" type="curve" smooth="yes"/>
      <point x="284" y="26"/>
      <point x="165" y="143"/>
      <point x="165" y="278" type="curve" smooth="yes"/>
      <point x="165" y="351"/>
      <point x="201" y="411"/>
      <point x="279" y="471" type="curve"/>
      <point x="631" y="132" type="line"/>
      <point x="577" y="63"/>
      <point x="502" y="26"/>
    </contour>
    <contour>
      <point x="285" y="518" type="line"/>
      <point x="224" y="576" type="line" smooth="yes"/>
      <point x="151" y="646"/>
      <point x="125" y="689"/>
      <point x="125" y="741" type="curve" smooth="yes"/>
      <point x="125" y="818"/>
      <point x="181" y="871"/>
      <point x="258" y="871" type="curve" smooth="yes"/>
      <point x="350" y="871"/>
      <point x="428" y="795"/>
      <point x="428" y="709" type="curve" smooth="yes"/>
      <point x="428" y="656"/>
      <point x="399" y="612"/>
      <point x="330" y="555" type="curve" smooth="yes"/>
    </contour>
  </outline>
</glyph>
<glyph name="quotesingle" format="2">
  <advance width="240"/>
  <unicode hex="0027"/>
  <outline>
    <contour>
      <point x="33" y="600" type="line"/>
      <point x="57" y="600" type="line"/>
      <point x="-6" y="900" type="line"/>
      <point x="-54" y="900" type="line"/>
    </contour>
  </outline>
</glyph>
<glyph name="parenleft" format="2">
  <advance width="480"/>
  <unicode hex="0028"/>
  <outline>
    <contour>
      <point x="416" y="-180" type="curve"/>
      <point x="474" y="-180" type="line"/>
      <point x="241" y="37"/>
      <point x="105" y="336"/>
      <point x="105" y="633" type="curve" smooth="yes"/>
      <point x="105" y="750"/>
      <point x="126" y="859"/>
      <point x="168" y="960" type="curve"/>
      <point x="123" y="960" type="line"/>
      <point x="83" y="855"/>
      <point x="63" y="750"/>
      <point x="63" y="638" type="curve" smooth="yes"/>
      <point x="63" y="349"/>
      <point x="192" y="50"/>
    </contour>
  </outline>
</glyph>
<glyph name="parenright" format="2">
  <advance width="480"/>
  <unicode hex="0029"/>
  <outline>
    <contour>
      <point x="267" y="-180" type="curve"/>
      <point x="312" y="-180" type="line"/>
      <point x="352" y="-74"/>
      <point x="372" y="32"/>
      <point x="372" y="144" type="curve" smooth="yes"/>
      <point x="372" y="431"/>
      <point x="243" y="730"/>
      <point x="19" y="960" type="curve"/>
      <point x="-39" y="960" type="line"/>
      <point x="195" y="742"/>
      <point x="330" y="444"/>
      <point x="330" y="147" type="curve" smooth="yes"/>
      <point x="330" y="30"/>
      <point x="309" y="-79"/>
    </contour>
  </outline>
</glyph>
<glyph name="asterisk" format="2">
  <advance width="600"/>
  <unicode hex="002A"/>
  <outline>
    <contour>
      <point x="134" y="415" type="line"/>
      <point x="220" y="619" type="line"/>
      <point x="400" y="447" type="line"/>
      <point x="428" y="475" type="line"/>
      <point x="241" y="643" type="line"/>
      <point x="443" y="738" type="line"/>
      <point x="423" y="773" type="line"/>
      <point x="224" y="673" type="line"/>
      <point x="170" y="900" type="line"/>
      <point x="130" y="900" type="line"/>
      <point x="191" y="668" type="line"/>
      <point x="-45" y="715" type="line"/>
      <point x="-47" y="675" type="line"/>
      <point x="188" y="635" type="line"/>
      <point x="97" y="434" type="line"/>
    </contour>
  </outline>
</glyph>
<glyph name="plus" format="2">
  <advance width="750"/>
  <unicode hex="002B"/>
  <outline>
    <contour>
      <point x="395" y="145" type="line"/>
      <point x="433" y="145" type="line"/>
      <point x="361" y="432" type="line"/>
      <point x="647" y="432" type="line"/>
      <point x="639" y="468" type="line"/>
      <point x="352" y="468" type="line"/>
      <point x="280" y="755" type="line"/>
      <point x="242" y="755" type="line"/>
      <point x="314" y="468" type="line"/>
      <point x="29" y="468" type="line"/>
      <point x="37" y="432" type="line"/>
      <point x="323" y="432" type="line"/>
    </contour>
  </outline>
</glyph>
<glyph name="comma" format="2">
  <advance width="240"/>
  <unicode hex="002C"/>
  <outline>
    <contour>
      <point x="176" y="-180" type="curve"/>
      <point x="219" y="-180" type="line"/>
      <point x="243" y="-90"/>
      <point x="238" y="20"/>
      <point x="195" y="120" type="curve"/>
      <point x="155" y="120" type="line"/>
      <point x="202" y="8"/>
      <point x="206" y="-104"/>
    </contour>
  </outline>
</glyph>
<glyph name="hyphen" format="2">
  <advance width="340"/>
  <unicode hex="002D"/>
  <outline>
    <contour>
      <point x="34" y="282" type="line"/>
      <point x="314" y="282" type="line"/>
      <point x="306" y="318" type="line"/>
      <point x="26" y="318" type="line"/>
    </contour>
  </outline>
</glyph>
<glyph name="period" format="2">
  <advance width="240"/>
  <unicode hex="002E"/>
  <outline>
    <contour>
      <point x="190" y="-8" type="curve" smooth="yes"/>
      <point x="211" y="-8"/>
      <point x="228" y="10"/>
      <point x="228" y="29" type="curve" smooth="yes"/>
      <point x="228" y="54"/>
      <point x="206" y="76"/>
      <point x="182" y="76" type="curve" smooth="yes"/>
      <point x="163" y="76"/>
      <point x="144" y="61"/>
      <point x="144" y="38" type="curve" smooth="yes"/>
      <point x="144" y="14"/>
      <point x="166" y="-8"/>
    </contour>
  </outline>
</glyph>
<glyph name="slash" format="2">
  <advance width="440"/>
  <unicode hex="002F"/>
  <outline>
    <contour>
      <point x="38" y="-180" type="line"/>
      <point x="78" y="-180" type="line"/>
      <point x="356" y="960" type="line"/>
      <point x="316" y="960" type="line"/>
    </contour>
  </outline>
</glyph>
<glyph name="one" format="2">
  <advance width="750"/>
  <unicode hex="0031"/>
  <outline>
    <contour>
      <point x="249" y="0" type="line"/>
      <point x="711" y="0" type="line"/>
      <point x="702" y="36" type="line"/>
      <point x="516" y="36" type="line"/>
      <point x="295" y="920" type="line"/>
      <point x="293" y="920" type="line"/>
      <point x="57" y="765" type="line"/>
      <point x="67" y="728" type="line"/>
      <point x="268" y="858" type="line"/>
      <point x="474" y="36" type="line"/>
      <point x="240" y="36" type="line"/>
    </contour>
  </outline>
</glyph>
<glyph name="two" format="2">
  <advance width="750"/>
  <unicode hex="0032"/>
  <outline>
    <contour>
      <point x="204" y="0" type="line"/>
      <point x="708" y="0" type="line"/>
      <point x="698" y="40" type="line"/>
      <point x="267" y="40" type="line"/>
      <point x="482" y="499" type="line" smooth="yes"/>
      <point x="508" y="554"/>
      <point x="521" y="606"/>
      <point x="521" y="651" type="curve" smooth="yes"/>
      <point x="521" y="790"/>
      <point x="393" y="912"/>
      <point x="247" y="912" type="curve" smooth="yes"/>
      <point x="121" y="912"/>
      <point x="27" y="822"/>
      <point x="27" y="701" type="curve" smooth="yes"/>
      <point x="27" y="645"/>
      <point x="47" y="589"/>
      <point x="83" y="542" type="curve"/>
      <point x="134" y="542" type="line"/>
      <point x="93" y="585"/>
      <point x="69" y="643"/>
      <point x="69" y="700" type="curve" smooth="yes"/>
      <point x="69" y="801"/>
      <point x="144" y="873"/>
      <point x="248" y="873" type="curve" smooth="yes"/>
      <point x="373" y="873"/>
      <point x="477" y="769"/>
      <point x="477" y="650" type="curve" smooth="yes"/>
      <point x="477" y="608"/>
      <point x="464" y="559"/>
      <point x="443" y="514" type="curve" smooth="yes"/>
      <point x="204" y="2" type="line"/>
    </contour>
  </outline>
</glyph>
<glyph name="three" format="2">
  <advance width="750"/>
  <unicode hex="0033"/>
  <outline>
    <contour>
      <point x="378" y="-12" type="curve" smooth="yes"/>
      <point x="531" y="-12"/>
      <point x="646" y="102"/>
      <point x="646" y="250" type="curve" smooth="yes"/>
      <point x="646" y="425"/>
      <point x="487" y="579"/>
      <point x="311" y="578" type="curve"/>
      <point x="417" y="898" type="line"/>
      <point x="417" y="900" type="line"/>
      <point x="3" y="900" type="line"/>
      <point x="12" y="862" type="line"/>
      <point x="365" y="862" type="line"/>
      <point x="257" y="535" type="line"/>
      <point x="258" y="534" type="line"/>
      <point x="279" y="540"/>
      <point x="296" y="542"/>
      <point x="315" y="542" type="curve" smooth="yes"/>
      <point x="465" y="542"/>
      <point x="602" y="405"/>
      <point x="602" y="252" type="curve" smooth="yes"/>
      <point x="602" y="126"/>
      <point x="509" y="28"/>
      <point x="379" y="28" type="curve" smooth="yes"/>
      <point x="287" y="28"/>
      <point x="191" y="77"/>
      <point x="132" y="155" type="curve"/>
      <point x="117" y="109" type="line"/>
      <point x="183" y="35"/>
      <point x="279" y="-12"/>
    </contour>
  </outline>
</glyph>
<glyph name="four" format="2">
  <advance width="750"/>
  <unicode hex="0034"/>
  <outline>
    <contour>
      <point x="572" y="0" type="line"/>
      <point x="614" y="0" type="line"/>
      <point x="547" y="271" type="line"/>
      <point x="699" y="271" type="line"/>
      <point x="690" y="309" type="line"/>
      <point x="537" y="309" type="line"/>
      <point x="469" y="582" type="line"/>
      <point x="434" y="560" type="line"/>
      <point x="497" y="309" type="line"/>
      <point x="114" y="309" type="line"/>
      <point x="274" y="900" type="line"/>
      <point x="232" y="900" type="line"/>
      <point x="63" y="273" type="line"/>
      <point x="63" y="271" type="line"/>
      <point x="505" y="271" type="line"/>
    </contour>
  </outline>
</glyph>
<glyph name="five" format="2">
  <advance width="750"/>
  <unicode hex="0035"/>
  <outline>
    <contour>
      <point x="378" y="-12" type="curve" smooth="yes"/>
      <point x="531" y="-12"/>
      <point x="646" y="102"/>
      <point x="646" y="250" type="curve" smooth="yes"/>
      <point x="646" y="427"/>
      <point x="493" y="580"/>
      <point x="314" y="580" type="curve" smooth="yes"/>
      <point x="266" y="580"/>
      <point x="211" y="570"/>
      <point x="167" y="540" type="curve"/>
      <point x="88" y="862" type="line"/>
      <point x="430" y="862" type="line"/>
      <point x="421" y="900" type="line"/>
      <point x="39" y="900" type="line"/>
      <point x="144" y="472" type="line"/>
      <point x="146" y="472" type="line"/>
      <point x="195" y="525"/>
      <point x="261" y="542"/>
      <point x="315" y="542" type="curve" smooth="yes"/>
      <point x="469" y="542"/>
      <point x="602" y="406"/>
      <point x="602" y="252" type="curve" smooth="yes"/>
      <point x="602" y="126"/>
      <point x="509" y="28"/>
      <point x="379" y="28" type="curve" smooth="yes"/>
      <point x="287" y="28"/>
      <point x="191" y="77"/>
      <point x="132" y="155" type="curve"/>
      <point x="117" y="109" type="line"/>
      <point x="183" y="35"/>
      <point x="279" y="-12"/>
    </contour>
  </outline>
</glyph>
<glyph name="seven" format="2">
  <advance width="750"/>
  <unicode hex="0037"/>
  <outline>
    <contour>
      <point x="234" y="0" type="line"/>
      <point x="277" y="0" type="line"/>
      <point x="521" y="898" type="line"/>
      <point x="521" y="900" type="line"/>
      <point x="-30" y="900" type="line"/>
      <point x="-20" y="860" type="line"/>
      <point x="468" y="860" type="line"/>
    </contour>
  </outline>
</glyph>
<glyph name="less" format="2">
  <advance width="750"/>
  <unicode hex="003C"/>
  <outline>
    <contour>
      <point x="683" y="166" type="line"/>
      <point x="672" y="212" type="line"/>
      <point x="322" y="364" type="line" smooth="yes"/>
      <point x="252" y="394"/>
      <point x="177" y="426"/>
      <point x="103" y="457" type="curve"/>
      <point x="162" y="487"/>
      <point x="221" y="518"/>
      <point x="277" y="548" type="curve" smooth="yes"/>
      <point x="552" y="696" type="line"/>
      <point x="543" y="734" type="line"/>
      <point x="22" y="454" type="line"/>
      <point x="22" y="452" type="line"/>
    </contour>
  </outline>
</glyph>
<glyph name="equal" format="2">
  <advance width="750"/>
  <unicode hex="003D"/>
  <outline>
    <contour>
      <point x="42" y="536" type="line"/>
      <point x="592" y="536" type="line"/>
      <point x="583" y="572" type="line"/>
      <point x="33" y="572" type="line"/>
    </contour>
    <contour>
      <point x="93" y="328" type="line"/>
      <point x="643" y="328" type="line"/>
      <point x="634" y="364" type="line"/>
      <point x="84" y="364" type="line"/>
    </contour>
  </outline>
</glyph>
<glyph name="greater" format="2">
  <advance width="750"/>
  <unicode hex="003E"/>
  <outline>
    <contour>
      <point x="132" y="166" type="line"/>
      <point x="653" y="446" type="line"/>
      <point x="653" y="448" type="line"/>
      <point x="-8" y="734" type="line"/>
      <point x="3" y="688" type="line"/>
      <point x="353" y="536" type="line" smooth="yes"/>
      <point x="423" y="506"/>
      <point x="498" y="474"/>
      <point x="572" y="443" type="curve"/>
      <point x="513" y="413"/>
      <point x="454" y="382"/>
      <point x="398" y="352" type="curve" smooth="yes"/>
      <point x="123" y="204" type="line"/>
    </contour>
  </outline>
</glyph>
<glyph name="question" format="2">
  <advance width="480"/>
  <unicode hex="003F"/>
  <outline>
    <contour>
      <point x="232" y="270" type="curve"/>
      <point x="268" y="270" type="line"/>
      <point x="229" y="436"/>
      <point x="337" y="534"/>
      <point x="337" y="676" type="curve" smooth="yes"/>
      <point x="337" y="809"/>
      <point x="237" y="912"/>
      <point x="108" y="912" type="curve" smooth="yes"/>
      <point x="44" y="912"/>
      <point x="-9" y="887"/>
      <point x="-47" y="848" type="curve"/>
      <point x="-34" y="797" type="line"/>
      <point x="-6" y="842"/>
      <point x="43" y="872"/>
      <point x="110" y="872" type="curve" smooth="yes"/>
      <point x="224" y="872"/>
      <point x="294" y="785"/>
      <point x="294" y="676" type="curve" smooth="yes"/>
      <point x="294" y="541"/>
      <point x="187" y="447"/>
    </contour>
    <contour>
      <point x="310" y="-8" type="curve" smooth="yes"/>
      <point x="331" y="-8"/>
      <point x="348" y="10"/>
      <point x="348" y="29" type="curve" smooth="yes"/>
      <point x="348" y="54"/>
      <point x="326" y="76"/>
      <point x="302" y="76" type="curve" smooth="yes"/>
      <point x="283" y="76"/>
      <point x="264" y="61"/>
      <point x="264" y="38" type="curve" smooth="yes"/>
      <point x="264" y="14"/>
      <point x="286" y="-8"/>
    </contour>
  </outline>
</glyph>
<glyph name="at" format="2">
  <advance width="1260"/>
  <unicode hex="0040"/>
  <outline>
    <contour>
      <point x="686" y="-192" type="curve" smooth="yes"/>
      <point x="831" y="-192"/>
      <point x="964" y="-139"/>
      <point x="1063" y="-42" type="curve"/>
      <point x="1044" y="-6" type="line"/>
      <point x="952" y="-102"/>
      <point x="824" y="-154"/>
      <point x="682" y="-154" type="curve" smooth="yes"/>
      <point x="372" y="-154"/>
      <point x="106" y="106"/>
      <point x="106" y="414" type="curve" smooth="yes"/>
      <point x="106" y="677"/>
      <point x="307" y="874"/>
      <point x="578" y="874" type="curve" smooth="yes"/>
      <point x="871" y="874"/>
      <point x="1121" y="642"/>
      <point x="1121" y="371" type="curve" smooth="yes"/>
      <point x="1121" y="251"/>
      <point x="1071" y="173"/>
      <point x="994" y="173" type="curve" smooth="yes"/>
      <point x="938" y="173"/>
      <point x="897" y="212"/>
      <point x="880" y="279" type="curve" smooth="yes"/>
      <point x="795" y="615" type="line"/>
      <point x="757" y="615" type="line"/>
      <point x="784" y="515" type="line"/>
      <point x="728" y="585"/>
      <point x="650" y="623"/>
      <point x="572" y="623" type="curve" smooth="yes"/>
      <point x="443" y="623"/>
      <point x="344" y="522"/>
      <point x="344" y="390" type="curve" smooth="yes"/>
      <point x="344" y="235"/>
      <point x="481" y="97"/>
      <point x="637" y="97" type="curve" smooth="yes"/>
      <point x="737" y="97"/>
      <point x="820" y="155"/>
      <point x="851" y="249" type="curve"/>
      <point x="873" y="181"/>
      <point x="929" y="137"/>
      <point x="996" y="137" type="curve" smooth="yes"/>
      <point x="1094" y="137"/>
      <point x="1161" y="234"/>
      <point x="1161" y="375" type="curve" smooth="yes"/>
      <point x="1161" y="662"/>
      <point x="888" y="912"/>
      <point x="573" y="912" type="curve" smooth="yes"/>
      <point x="282" y="912"/>
      <point x="64" y="700"/>
      <point x="64" y="418" type="curve" smooth="yes"/>
      <point x="64" y="89"/>
      <point x="352" y="-192"/>
    </contour>
    <contour>
      <point x="637" y="135" type="curve" smooth="yes"/>
      <point x="503" y="135"/>
      <point x="384" y="254"/>
      <point x="384" y="388" type="curve" smooth="yes"/>
      <point x="384" y="500"/>
      <point x="467" y="585"/>
      <point x="577" y="585" type="curve" smooth="yes"/>
      <point x="707" y="585"/>
      <point x="826" y="462"/>
      <point x="826" y="326" type="curve" smooth="yes"/>
      <point x="826" y="216"/>
      <point x="746" y="135"/>
    </contour>
  </outline>
</glyph>
<glyph name="A" format="2">
  <advance width="780"/>
  <unicode hex="0041"/>
  <anchor x="463" y="0" name="bottom"/>
  <anchor x="786" y="0" name="ogonek"/>
  <anchor x="240" y="900" name="top"/>
  <anchor x="5" y="720" name="top-vertical"/>
  <outline>
    <contour>
      <point x="120" y="0" type="line"/>
      <point x="161" y="0" type="line"/>
      <point x="207" y="374" type="line"/>
      <point x="531" y="374" type="line"/>
      <point x="761" y="0" type="line"/>
      <point x="810" y="0" type="line"/>
      <point x="238" y="930" type="line"/>
      <point x="236" y="930" type="line"/>
    </contour>
    <contour>
      <point x="211" y="412" type="line"/>
      <point x="241" y="660" type="line" smooth="yes"/>
      <point x="249" y="730"/>
      <point x="254" y="764"/>
      <point x="258" y="828" type="curve"/>
      <point x="292" y="764"/>
      <point x="314" y="730"/>
      <point x="357" y="660" type="curve" smooth="yes"/>
      <point x="509" y="412" type="line"/>
    </contour>
  </outline>
</glyph>
<glyph name="B" format="2">
  <advance width="730"/>
  <unicode hex="0042"/>
  <outline>
    <contour>
      <point x="211" y="0" type="line"/>
      <point x="401" y="0" type="line" smooth="yes"/>
      <point x="568" y="0"/>
      <point x="668" y="102"/>
      <point x="668" y="241" type="curve" smooth="yes"/>
      <point x="668" y="389"/>
      <point x="553" y="518"/>
      <point x="390" y="541" type="curve"/>
      <point x="448" y="569"/>
      <point x="480" y="623"/>
      <point x="480" y="688" type="curve" smooth="yes"/>
      <point x="480" y="803"/>
      <point x="379" y="900"/>
      <point x="243" y="900" type="curve" smooth="yes"/>
      <point x="-14" y="900" type="line"/>
    </contour>
    <contour>
      <point x="245" y="38" type="line"/>
      <point x="127" y="510" type="line"/>
      <point x="330" y="510" type="line" smooth="yes"/>
      <point x="506" y="510"/>
      <point x="624" y="387"/>
      <point x="624" y="245" type="curve" smooth="yes"/>
      <point x="624" y="126"/>
      <point x="542" y="38"/>
      <point x="390" y="38" type="curve" smooth="yes"/>
    </contour>
    <contour>
      <point x="118" y="546" type="line"/>
      <point x="40" y="862" type="line"/>
      <point x="242" y="862" type="line" smooth="yes"/>
      <point x="360" y="862"/>
      <point x="438" y="779"/>
      <point x="438" y="685" type="curve" smooth="yes"/>
      <point x="438" y="605"/>
      <point x="383" y="546"/>
      <point x="282" y="546" type="curve" smooth="yes"/>
    </contour>
  </outline>
</glyph>
<glyph name="C" format="2">
  <advance width="881"/>
  <unicode hex="0043"/>
  <anchor x="538" y="0" name="bottom"/>
  <anchor x="431" y="900" name="top"/>
  <outline>
    <contour>
      <point x="539" y="-12" type="curve" smooth="yes"/>
      <point x="671" y="-12"/>
      <point x="790" y="51"/>
      <point x="867" y="159" type="curve"/>
      <point x="845" y="205" type="line"/>
      <point x="780" y="95"/>
      <point x="665" y="30"/>
      <point x="536" y="30" type="curve" smooth="yes"/>
      <point x="297" y="30"/>
      <point x="76" y="258"/>
      <point x="76" y="506" type="curve" smooth="yes"/>
      <point x="76" y="713"/>
      <point x="230" y="870"/>
      <point x="431" y="870" type="curve" smooth="yes"/>
      <point x="536" y="870"/>
      <point x="640" y="828"/>
      <point x="724" y="752" type="curve"/>
      <point x="724" y="807" type="line"/>
      <point x="638" y="875"/>
      <point x="535" y="912"/>
      <point x="431" y="912" type="curve" smooth="yes"/>
      <point x="205" y="912"/>
      <point x="30" y="734"/>
      <point x="30" y="505" type="curve" smooth="yes"/>
      <point x="30" y="236"/>
      <point x="274" y="-12"/>
    </contour>
  </outline>
</glyph>
<glyph name="D" format="2">
  <advance width="960"/>
  <unicode hex="0044"/>
  <anchor x="448" y="0" name="bottom"/>
  <anchor x="113" y="480" name="center"/>
  <anchor x="343" y="900" name="top"/>
  <outline>
    <contour>
      <point x="211" y="0" type="line"/>
      <point x="453" y="0" type="line" smooth="yes"/>
      <point x="681" y="0"/>
      <point x="856" y="172"/>
      <point x="856" y="395" type="curve" smooth="yes"/>
      <point x="856" y="657"/>
      <point x="612" y="900"/>
      <point x="348" y="900" type="curve" smooth="yes"/>
      <point x="-14" y="900" type="line"/>
    </contour>
    <contour>
      <point x="245" y="40" type="line"/>
      <point x="40" y="860" type="line"/>
      <point x="338" y="860" type="line" smooth="yes"/>
      <point x="586" y="860"/>
      <point x="810" y="640"/>
      <point x="810" y="397" type="curve" smooth="yes"/>
      <point x="810" y="194"/>
      <point x="652" y="40"/>
      <point x="443" y="40" type="curve" smooth="yes"/>
    </contour>
  </outline>
</glyph>
<glyph name="E" format="2">
  <advance width="600"/>
  <unicode hex="0045"/>
  <anchor x="409" y="0" name="bottom"/>
  <anchor x="585" y="0" name="ogonek"/>
  <anchor x="185" y="900" name="top"/>
  <anchor x="-14" y="900" name="topleft"/>
  <outline>
    <contour>
      <point x="211" y="0" type="line"/>
      <point x="606" y="0" type="line"/>
      <point x="596" y="40" type="line"/>
      <point x="245" y="40" type="line"/>
      <point x="121" y="536" type="line"/>
      <point x="404" y="536" type="line"/>
      <point x="394" y="574" type="line"/>
      <point x="112" y="574" type="line"/>
      <point x="40" y="860" type="line"/>
      <point x="394" y="860" type="line"/>
      <point x="384" y="900" type="line"/>
      <point x="-14" y="900" type="line"/>
    </contour>
  </outline>
</glyph>
<glyph name="F" format="2">
  <advance width="570"/>
  <unicode hex="0046"/>
  <outline>
    <contour>
      <point x="211" y="0" type="line"/>
      <point x="255" y="-1" type="line"/>
      <point x="121" y="536" type="line"/>
      <point x="454" y="536" type="line"/>
      <point x="444" y="574" type="line"/>
      <point x="111" y="574" type="line"/>
      <point x="40" y="860" type="line"/>
      <point x="404" y="860" type="line"/>
      <point x="394" y="900" type="line"/>
      <point x="-14" y="900" type="line"/>
    </contour>
  </outline>
</glyph>
<glyph name="G" format="2">
  <advance width="940"/>
  <unicode hex="0047"/>
  <anchor x="558" y="0" name="bottom"/>
  <anchor x="818" y="270" name="center"/>
  <anchor x="430" y="900" name="top"/>
  <outline>
    <contour>
      <point x="562" y="-12" type="curve" smooth="yes"/>
      <point x="683" y="-12"/>
      <point x="790" y="30"/>
      <point x="878" y="113" type="curve"/>
      <point x="794" y="448" type="line"/>
      <point x="434" y="448" type="line"/>
      <point x="444" y="410" type="line"/>
      <point x="764" y="410" type="line"/>
      <point x="834" y="129" type="line"/>
      <point x="759" y="64"/>
      <point x="667" y="30"/>
      <point x="563" y="30" type="curve" smooth="yes"/>
      <point x="300" y="30"/>
      <point x="75" y="249"/>
      <point x="75" y="504" type="curve" smooth="yes"/>
      <point x="75" y="713"/>
      <point x="228" y="870"/>
      <point x="431" y="870" type="curve" smooth="yes"/>
      <point x="535" y="870"/>
      <point x="639" y="828"/>
      <point x="723" y="752" type="curve"/>
      <point x="723" y="807" type="line"/>
      <point x="637" y="875"/>
      <point x="534" y="912"/>
      <point x="430" y="912" type="curve" smooth="yes"/>
      <point x="203" y="912"/>
      <point x="29" y="734"/>
      <point x="29" y="502" type="curve" smooth="yes"/>
      <point x="29" y="226"/>
      <point x="275" y="-12"/>
    </contour>
  </outline>
</glyph>
<glyph name="H" format="2">
  <advance width="760"/>
  <unicode hex="0048"/>
  <anchor x="455" y="0" name="bottom"/>
  <anchor x="492" y="750" name="center"/>
  <anchor x="230" y="900" name="top"/>
  <anchor x="-14" y="900" name="topleft"/>
  <outline>
    <contour>
      <point x="211" y="0" type="line"/>
      <point x="255" y="0" type="line"/>
      <point x="121" y="535" type="line"/>
      <point x="521" y="535" type="line"/>
      <point x="655" y="0" type="line"/>
      <point x="699" y="0" type="line"/>
      <point x="474" y="900" type="line"/>
      <point x="430" y="900" type="line"/>
      <point x="511" y="575" type="line"/>
      <point x="111" y="575" type="line"/>
      <point x="30" y="900" type="line"/>
      <point x="-14" y="900" type="line"/>
    </contour>
  </outline>
</glyph>
<glyph name="I" format="2">
  <advance width="340"/>
  <unicode hex="0049"/>
  <anchor x="234" y="0" name="bottom"/>
  <anchor x="234" y="0" name="ogonek"/>
  <anchor x="9" y="900" name="top"/>
  <anchor x="-13" y="900" name="topleft"/>
  <outline>
    <contour>
      <point x="212" y="0" type="line"/>
      <point x="256" y="0" type="line"/>
      <point x="31" y="900" type="line"/>
      <point x="-13" y="900" type="line"/>
    </contour>
  </outline>
</glyph>
<glyph name="J" format="2">
  <advance width="520"/>
  <unicode hex="004A"/>
  <anchor x="225" y="0" name="bottom"/>
  <anchor x="238" y="900" name="top"/>
  <outline>
    <contour>
      <point x="228" y="-12" type="curve" smooth="yes"/>
      <point x="381" y="-12"/>
      <point x="460" y="100"/>
      <point x="420" y="260" type="curve" smooth="yes"/>
      <point x="260" y="900" type="line"/>
      <point x="216" y="900" type="line"/>
      <point x="375" y="264" type="line" smooth="yes"/>
      <point x="412" y="117"/>
      <point x="353" y="28"/>
      <point x="221" y="28" type="curve" smooth="yes"/>
      <point x="172" y="28"/>
      <point x="127" y="47"/>
      <point x="84" y="87" type="curve"/>
      <point x="84" y="33" type="line"/>
      <point x="125" y="4"/>
      <point x="176" y="-12"/>
    </contour>
  </outline>
</glyph>
<glyph name="K" format="2">
  <advance width="740"/>
  <unicode hex="004B"/>
  <anchor x="490" y="0" name="bottom"/>
  <anchor x="235" y="900" name="top"/>
  <outline>
    <contour>
      <point x="725" y="0" type="line"/>
      <point x="787" y="0" type="line"/>
      <point x="210" y="560" type="line"/>
      <point x="493" y="900" type="line"/>
      <point x="439" y="900" type="line"/>
      <point x="152" y="555" type="line"/>
    </contour>
    <contour>
      <point x="211" y="0" type="line"/>
      <point x="255" y="0" type="line"/>
      <point x="30" y="900" type="line"/>
      <point x="-14" y="900" type="line"/>
    </contour>
  </outline>
</glyph>
<glyph name="L" format="2">
  <advance width="580"/>
  <unicode hex="004C"/>
  <anchor x="406" y="0" name="bottom"/>
  <anchor x="121" y="450" name="center"/>
  <anchor x="375" y="480" name="periodcentered"/>
  <anchor x="8" y="900" name="top"/>
  <anchor x="72" y="900" name="topright"/>
  <outline>
    <contour>
      <point x="211" y="0" type="line"/>
      <point x="601" y="0" type="line"/>
      <point x="591" y="40" type="line"/>
      <point x="245" y="40" type="line"/>
      <point x="30" y="900" type="line"/>
      <point x="-14" y="900" type="line"/>
    </contour>
  </outline>
</glyph>
<glyph name="M" format="2">
  <advance width="1060"/>
  <unicode hex="004D"/>
  <outline>
    <contour>
      <point x="211" y="0" type="line"/>
      <point x="255" y="0" type="line"/>
      <point x="110" y="570" type="line" smooth="yes"/>
      <point x="90" y="650"/>
      <point x="71" y="731"/>
      <point x="48" y="816" type="curve"/>
      <point x="115" y="743"/>
      <point x="182" y="671"/>
      <point x="249" y="600" type="curve" smooth="yes"/>
      <point x="518" y="315" type="line"/>
      <point x="655" y="600" type="line" smooth="yes"/>
      <point x="688" y="669"/>
      <point x="720" y="739"/>
      <point x="755" y="816" type="curve"/>
      <point x="773" y="729"/>
      <point x="792" y="649"/>
      <point x="812" y="570" type="curve" smooth="yes"/>
      <point x="957" y="0" type="line"/>
      <point x="999" y="0" type="line"/>
      <point x="766" y="930" type="line"/>
      <point x="764" y="930" type="line"/>
      <point x="506" y="387" type="line"/>
      <point x="-25" y="951" type="line"/>
      <point x="-27" y="951" type="line"/>
    </contour>
  </outline>
</glyph>
<glyph name="N" format="2">
  <advance width="970"/>
  <unicode hex="004E"/>
  <anchor x="560" y="0" name="bottom"/>
  <anchor x="335" y="900" name="top"/>
  <outline>
    <contour>
      <point x="915" y="-30" type="line"/>
      <point x="917" y="-30" type="line"/>
      <point x="685" y="900" type="line"/>
      <point x="643" y="900" type="line"/>
      <point x="844" y="95" type="line"/>
      <point x="-19" y="930" type="line"/>
      <point x="-21" y="930" type="line"/>
      <point x="211" y="0" type="line"/>
      <point x="253" y="0" type="line"/>
      <point x="52" y="805" type="line"/>
    </contour>
  </outline>
</glyph>
<glyph name="O" format="2">
  <advance width="1040"/>
  <unicode hex="004F"/>
  <anchor x="595" y="0" name="bottom"/>
  <anchor x="483" y="450" name="center"/>
  <anchor x="576" y="0" name="ogonek"/>
  <anchor x="370" y="900" name="top"/>
  <anchor x="460" y="540" name="top-vertical"/>
  <anchor x="197" y="900" name="topleft"/>
  <anchor x="824" y="900" name="topright"/>
  <outline>
    <contour>
      <point x="537" y="-12" type="curve" smooth="yes"/>
      <point x="760" y="-12"/>
      <point x="936" y="165"/>
      <point x="936" y="395" type="curve" smooth="yes"/>
      <point x="936" y="665"/>
      <point x="691" y="912"/>
      <point x="427" y="912" type="curve" smooth="yes"/>
      <point x="205" y="912"/>
      <point x="29" y="736"/>
      <point x="29" y="506" type="curve" smooth="yes"/>
      <point x="29" y="235"/>
      <point x="275" y="-12"/>
    </contour>
    <contour>
      <point x="535" y="30" type="curve" smooth="yes"/>
      <point x="298" y="30"/>
      <point x="75" y="256"/>
      <point x="75" y="504" type="curve" smooth="yes"/>
      <point x="75" y="712"/>
      <point x="232" y="870"/>
      <point x="430" y="870" type="curve" smooth="yes"/>
      <point x="668" y="870"/>
      <point x="890" y="643"/>
      <point x="890" y="394" type="curve" smooth="yes"/>
      <point x="890" y="186"/>
      <point x="735" y="30"/>
    </contour>
  </outline>
</glyph>
<glyph name="P" format="2">
  <advance width="700"/>
  <unicode hex="0050"/>
  <outline>
    <contour>
      <point x="211" y="0" type="line"/>
      <point x="255" y="0" type="line"/>
      <point x="168" y="348" type="line"/>
      <point x="288" y="348" type="line" smooth="yes"/>
      <point x="457" y="348"/>
      <point x="558" y="451"/>
      <point x="558" y="592" type="curve" smooth="yes"/>
      <point x="558" y="758"/>
      <point x="416" y="900"/>
      <point x="222" y="900" type="curve" smooth="yes"/>
      <point x="-14" y="900" type="line"/>
    </contour>
    <contour>
      <point x="158" y="386" type="line"/>
      <point x="39" y="862" type="line"/>
      <point x="219" y="862" type="line" smooth="yes"/>
      <point x="397" y="862"/>
      <point x="516" y="739"/>
      <point x="516" y="596" type="curve" smooth="yes"/>
      <point x="516" y="475"/>
      <point x="433" y="386"/>
      <point x="279" y="386" type="curve" smooth="yes"/>
    </contour>
  </outline>
</glyph>
<glyph name="Q" format="2">
  <advance width="1040"/>
  <unicode hex="0051"/>
  <outline>
    <contour>
      <point x="975" y="-30" type="line"/>
      <point x="1033" y="-30" type="line"/>
      <point x="850" y="140" type="line"/>
      <point x="904" y="209"/>
      <point x="936" y="297"/>
      <point x="936" y="395" type="curve" smooth="yes"/>
      <point x="936" y="665"/>
      <point x="691" y="912"/>
      <point x="427" y="912" type="curve" smooth="yes"/>
      <point x="205" y="912"/>
      <point x="29" y="736"/>
      <point x="29" y="506" type="curve" smooth="yes"/>
      <point x="29" y="235"/>
      <point x="275" y="-12"/>
      <point x="537" y="-12" type="curve" smooth="yes"/>
      <point x="651" y="-12"/>
      <point x="752" y="34"/>
      <point x="824" y="110" type="curve"/>
    </contour>
    <contour>
      <point x="535" y="30" type="curve" smooth="yes"/>
      <point x="298" y="30"/>
      <point x="75" y="256"/>
      <point x="75" y="504" type="curve" smooth="yes"/>
      <point x="75" y="712"/>
      <point x="232" y="870"/>
      <point x="430" y="870" type="curve" smooth="yes"/>
      <point x="668" y="870"/>
      <point x="890" y="643"/>
      <point x="890" y="394" type="curve" smooth="yes"/>
      <point x="890" y="308"/>
      <point x="863" y="231"/>
      <point x="818" y="170" type="curve"/>
      <point x="516" y="450" type="line"/>
      <point x="458" y="450" type="line"/>
      <point x="793" y="139" type="line"/>
      <point x="729" y="71"/>
      <point x="638" y="30"/>
    </contour>
  </outline>
</glyph>
<glyph name="R" format="2">
  <advance width="740"/>
  <unicode hex="0052"/>
  <anchor x="490" y="0" name="bottom"/>
  <anchor x="201" y="900" name="top"/>
  <outline>
    <contour>
      <point x="211" y="0" type="line"/>
      <point x="255" y="0" type="line"/>
      <point x="143" y="447" type="line"/>
      <point x="296" y="447" type="line"/>
      <point x="728" y="0" type="line"/>
      <point x="788" y="0" type="line"/>
      <point x="342" y="458" type="line"/>
      <point x="434" y="486"/>
      <point x="491" y="556"/>
      <point x="491" y="648" type="curve" smooth="yes"/>
      <point x="491" y="781"/>
      <point x="374" y="900"/>
      <point x="201" y="900" type="curve" smooth="yes"/>
      <point x="-14" y="900" type="line"/>
    </contour>
    <contour>
      <point x="134" y="482" type="line"/>
      <point x="40" y="862" type="line"/>
      <point x="200" y="862" type="line" smooth="yes"/>
      <point x="347" y="862"/>
      <point x="448" y="761"/>
      <point x="448" y="649" type="curve" smooth="yes"/>
      <point x="448" y="555"/>
      <point x="376" y="482"/>
      <point x="259" y="482" type="curve" smooth="yes"/>
    </contour>
  </outline>
</glyph>
<glyph name="S" format="2">
  <advance width="640"/>
  <unicode hex="0053"/>
  <anchor x="395" y="0" name="bottom"/>
  <anchor x="213" y="900" name="top"/>
  <outline>
    <contour>
      <point x="344" y="-12" type="curve" smooth="yes"/>
      <point x="483" y="-12"/>
      <point x="586" y="82"/>
      <point x="586" y="210" type="curve" smooth="yes"/>
      <point x="586" y="330"/>
      <point x="497" y="431"/>
      <point x="350" y="480" type="curve" smooth="yes"/>
      <point x="217" y="524" type="line" smooth="yes"/>
      <point x="106" y="561"/>
      <point x="43" y="632"/>
      <point x="43" y="718" type="curve" smooth="yes"/>
      <point x="43" y="809"/>
      <point x="113" y="873"/>
      <point x="213" y="873" type="curve" smooth="yes"/>
      <point x="275" y="873"/>
      <point x="338" y="849"/>
      <point x="391" y="804" type="curve"/>
      <point x="390" y="858" type="line"/>
      <point x="333" y="895"/>
      <point x="271" y="912"/>
      <point x="213" y="912" type="curve" smooth="yes"/>
      <point x="91" y="912"/>
      <point x="1" y="830"/>
      <point x="1" y="719" type="curve" smooth="yes"/>
      <point x="1" y="616"/>
      <point x="78" y="528"/>
      <point x="207" y="484" type="curve" smooth="yes"/>
      <point x="340" y="439" type="line" smooth="yes"/>
      <point x="470" y="395"/>
      <point x="544" y="312"/>
      <point x="544" y="210" type="curve" smooth="yes"/>
      <point x="544" y="103"/>
      <point x="460" y="27"/>
      <point x="342" y="27" type="curve" smooth="yes"/>
      <point x="269" y="27"/>
      <point x="196" y="57"/>
      <point x="131" y="115" type="curve"/>
      <point x="131" y="61" type="line"/>
      <point x="195" y="14"/>
      <point x="270" y="-12"/>
    </contour>
  </outline>
</glyph>
<glyph name="T" format="2">
  <advance width="670"/>
  <unicode hex="0054"/>
  <anchor x="410" y="0" name="bottom"/>
  <anchor x="290" y="480" name="center"/>
  <anchor x="185" y="900" name="top"/>
  <outline>
    <contour>
      <point x="388" y="0" type="line"/>
      <point x="432" y="0" type="line"/>
      <point x="217" y="860" type="line"/>
      <point x="476" y="860" type="line"/>
      <point x="466" y="900" type="line"/>
      <point x="-96" y="900" type="line"/>
      <point x="-86" y="860" type="line"/>
      <point x="173" y="860" type="line"/>
    </contour>
  </outline>
</glyph>
<glyph name="U" format="2">
  <advance width="760"/>
  <unicode hex="0055"/>
  <anchor x="420" y="0" name="bottom"/>
  <anchor x="441" y="0" name="ogonek"/>
  <anchor x="231" y="900" name="top"/>
  <anchor x="275" y="720" name="top-vertical"/>
  <anchor x="501" y="900" name="topright"/>
  <outline>
    <contour>
      <point x="420" y="-9" type="curve" smooth="yes"/>
      <point x="609" y="-9"/>
      <point x="691" y="139"/>
      <point x="649" y="308" type="curve" smooth="yes"/>
      <point x="501" y="900" type="line"/>
      <point x="459" y="900" type="line"/>
      <point x="607" y="308" type="line" smooth="yes"/>
      <point x="645" y="156"/>
      <point x="587" y="30"/>
      <point x="421" y="30" type="curve" smooth="yes"/>
      <point x="293" y="30"/>
      <point x="202" y="104"/>
      <point x="166" y="248" type="curve" smooth="yes"/>
      <point x="3" y="900" type="line"/>
      <point x="-41" y="900" type="line"/>
      <point x="122" y="248" type="line" smooth="yes"/>
      <point x="164" y="81"/>
      <point x="272" y="-9"/>
    </contour>
  </outline>
</glyph>
<glyph name="V" format="2">
  <advance width="730"/>
  <unicode hex="0056"/>
  <outline>
    <contour>
      <point x="442" y="-30" type="line"/>
      <point x="444" y="-30" type="line"/>
      <point x="560" y="900" type="line"/>
      <point x="519" y="900" type="line"/>
      <point x="439" y="240" type="line"/>
      <point x="431" y="170"/>
      <point x="426" y="136"/>
      <point x="422" y="72" type="curve"/>
      <point x="388" y="136"/>
      <point x="366" y="170"/>
      <point x="323" y="240" type="curve"/>
      <point x="-81" y="900" type="line"/>
      <point x="-130" y="900" type="line"/>
    </contour>
  </outline>
</glyph>
<glyph name="W" format="2">
  <advance width="1180"/>
  <unicode hex="0057"/>
  <anchor x="665" y="0" name="bottom"/>
  <anchor x="440" y="900" name="top"/>
  <outline>
    <contour>
      <point x="433" y="-30" type="line"/>
      <point x="435" y="-30" type="line"/>
      <point x="464" y="660" type="line"/>
      <point x="466" y="700"/>
      <point x="467" y="741"/>
      <point x="467" y="793" type="curve"/>
      <point x="491" y="741"/>
      <point x="512" y="700"/>
      <point x="534" y="660" type="curve"/>
      <point x="903" y="-30" type="line"/>
      <point x="905" y="-30" type="line"/>
      <point x="1010" y="900" type="line"/>
      <point x="969" y="900" type="line"/>
      <point x="894" y="240" type="line" smooth="yes"/>
      <point x="889" y="195"/>
      <point x="883" y="150"/>
      <point x="879" y="99" type="curve"/>
      <point x="854" y="150"/>
      <point x="830" y="195"/>
      <point x="806" y="240" type="curve" smooth="yes"/>
      <point x="438" y="930" type="line"/>
      <point x="436" y="930" type="line"/>
      <point x="407" y="240" type="line"/>
      <point x="405" y="195"/>
      <point x="403" y="149"/>
      <point x="403" y="98" type="curve"/>
      <point x="374" y="149"/>
      <point x="346" y="195"/>
      <point x="319" y="240" type="curve"/>
      <point x="-81" y="900" type="line"/>
      <point x="-130" y="900" type="line"/>
    </contour>
  </outline>
</glyph>
<glyph name="X" format="2">
  <advance width="870"/>
  <unicode hex="0058"/>
  <outline>
    <contour>
      <point x="105" y="0" type="line"/>
      <point x="156" y="0" type="line"/>
      <point x="319" y="330" type="line" smooth="yes"/>
      <point x="342" y="376"/>
      <point x="365" y="423"/>
      <point x="390" y="473" type="curve"/>
      <point x="436" y="423"/>
      <point x="482" y="376"/>
      <point x="528" y="330" type="curve" smooth="yes"/>
      <point x="855" y="0" type="line"/>
      <point x="915" y="0" type="line"/>
      <point x="413" y="510" type="line"/>
      <point x="607" y="900" type="line"/>
      <point x="559" y="900" type="line"/>
      <point x="444" y="667" type="line" smooth="yes"/>
      <point x="423" y="625"/>
      <point x="402" y="582"/>
      <point x="380" y="535" type="curve"/>
      <point x="338" y="582"/>
      <point x="295" y="625"/>
      <point x="253" y="668" type="curve" smooth="yes"/>
      <point x="24" y="900" type="line"/>
      <point x="-35" y="900" type="line"/>
      <point x="358" y="504" type="line"/>
    </contour>
  </outline>
</glyph>
<glyph name="Y" format="2">
  <advance width="670"/>
  <unicode hex="0059"/>
  <anchor x="410" y="0" name="bottom"/>
  <anchor x="188" y="900" name="top"/>
  <anchor x="-120" y="900" name="topleft"/>
  <outline>
    <contour>
      <point x="388" y="0" type="line"/>
      <point x="432" y="0" type="line"/>
      <point x="322" y="441" type="line"/>
      <point x="490" y="900" type="line"/>
      <point x="445" y="900" type="line"/>
      <point x="337" y="600" type="line"/>
      <point x="323" y="562"/>
      <point x="310" y="521"/>
      <point x="297" y="480" type="curve"/>
      <point x="264" y="521"/>
      <point x="229" y="562"/>
      <point x="197" y="600" type="curve"/>
      <point x="-63" y="900" type="line"/>
      <point x="-120" y="900" type="line"/>
      <point x="278" y="441" type="line"/>
    </contour>
  </outline>
</glyph>
<glyph name="Z" format="2">
  <advance width="640"/>
  <unicode hex="005A"/>
  <anchor x="382" y="0" name="bottom"/>
  <anchor x="276" y="450" name="center"/>
  <anchor x="183" y="900" name="top"/>
  <outline>
    <contour>
      <point x="141" y="0" type="line"/>
      <point x="622" y="0" type="line"/>
      <point x="612" y="40" type="line"/>
      <point x="193" y="40" type="line"/>
      <point x="411" y="898" type="line"/>
      <point x="411" y="900" type="line"/>
      <point x="-46" y="900" type="line"/>
      <point x="-36" y="860" type="line"/>
      <point x="359" y="860" type="line"/>
      <point x="141" y="2" type="line"/>
    </contour>
  </outline>
</glyph>
<glyph name="bracketleft" format="2">
  <advance width="480"/>
  <unicode hex="005B"/>
  <outline>
    <contour>
      <point x="264" y="-180" type="line"/>
      <point x="528" y="-180" type="line"/>
      <point x="519" y="-142" type="line"/>
      <point x="297" y="-142" type="line"/>
      <point x="30" y="922" type="line"/>
      <point x="252" y="922" type="line"/>
      <point x="243" y="960" type="line"/>
      <point x="-21" y="960" type="line"/>
    </contour>
  </outline>
</glyph>
<glyph name="backslash" format="2">
  <advance width="440"/>
  <unicode hex="005C"/>
  <outline>
    <contour>
      <point x="590" y="-180" type="line"/>
      <point x="637" y="-180" type="line"/>
      <point x="-197" y="960" type="line"/>
      <point x="-243" y="960" type="line"/>
    </contour>
  </outline>
</glyph>
<glyph name="bracketright" format="2">
  <advance width="480"/>
  <unicode hex="005D"/>
  <outline>
    <contour>
      <point x="192" y="-180" type="line"/>
      <point x="456" y="-180" type="line"/>
      <point x="171" y="960" type="line"/>
      <point x="-93" y="960" type="line"/>
      <point x="-84" y="922" type="line"/>
      <point x="138" y="922" type="line"/>
      <point x="405" y="-142" type="line"/>
      <point x="183" y="-142" type="line"/>
    </contour>
  </outline>
</glyph>
<glyph name="asciicircum" format="2">
  <advance width="750"/>
  <unicode hex="005E"/>
  <outline>
    <contour>
      <point x="121" y="225" type="line"/>
      <point x="159" y="225" type="line"/>
      <point x="229" y="514" type="line" smooth="yes"/>
      <point x="244" y="577"/>
      <point x="259" y="644"/>
      <point x="273" y="710" type="curve"/>
      <point x="320" y="644"/>
      <point x="367" y="577"/>
      <point x="413" y="514" type="curve" smooth="yes"/>
      <point x="621" y="225" type="line"/>
      <point x="667" y="225" type="line"/>
      <point x="258" y="792" type="line"/>
      <point x="256" y="792" type="line"/>
    </contour>
  </outline>
</glyph>
<glyph name="underscore" format="2">
  <advance width="750"/>
  <unicode hex="005F"/>
  <outline>
    <contour>
      <point x="107" y="-152" type="line"/>
      <point x="869" y="-152" type="line"/>
      <point x="860" y="-118" type="line"/>
      <point x="98" y="-118" type="line"/>
    </contour>
  </outline>
</glyph>
<glyph name="b" format="2">
  <advance width="740"/>
  <unicode hex="0062"/>
  <anchor x="426" y="0" name="bottom"/>
  <anchor x="267" y="914" name="top"/>
  <outline>
    <contour>
      <point x="429" y="-8" type="curve" smooth="yes"/>
      <point x="574" y="-8"/>
      <point x="684" y="102"/>
      <point x="684" y="248" type="curve" smooth="yes"/>
      <point x="684" y="422"/>
      <point x="529" y="578"/>
      <point x="356" y="578" type="curve" smooth="yes"/>
      <point x="247" y="578"/>
      <point x="155" y="514"/>
      <point x="119" y="414" type="curve"/>
      <point x="-17" y="960" type="line"/>
      <point x="-59" y="960" type="line"/>
      <point x="181" y="0" type="line"/>
      <point x="219" y="0" type="line"/>
      <point x="192" y="108" type="line"/>
      <point x="253" y="35"/>
      <point x="342" y="-8"/>
    </contour>
    <contour>
      <point x="423" y="32" type="curve" smooth="yes"/>
      <point x="273" y="32"/>
      <point x="143" y="171"/>
      <point x="143" y="323" type="curve" smooth="yes"/>
      <point x="143" y="447"/>
      <point x="233" y="538"/>
      <point x="357" y="538" type="curve" smooth="yes"/>
      <point x="507" y="538"/>
      <point x="642" y="404"/>
      <point x="642" y="254" type="curve" smooth="yes"/>
      <point x="642" y="129"/>
      <point x="546" y="32"/>
    </contour>
  </outline>
</glyph>
<glyph name="c" format="2">
  <advance width="610"/>
  <unicode hex="0063"/>
  <anchor x="398" y="0" name="bottom"/>
  <anchor x="330" y="570" name="top"/>
  <outline>
    <contour>
      <point x="400" y="-12" type="curve" smooth="yes"/>
      <point x="493" y="-12"/>
      <point x="573" y="33"/>
      <point x="621" y="104" type="curve"/>
      <point x="599" y="150" type="line"/>
      <point x="565" y="76"/>
      <point x="487" y="28"/>
      <point x="396" y="28" type="curve" smooth="yes"/>
      <point x="243" y="28"/>
      <point x="106" y="164"/>
      <point x="106" y="315" type="curve" smooth="yes"/>
      <point x="106" y="443"/>
      <point x="204" y="542"/>
      <point x="332" y="542" type="curve" smooth="yes"/>
      <point x="410" y="542"/>
      <point x="483" y="507"/>
      <point x="537" y="453" type="curve"/>
      <point x="537" y="506" type="line"/>
      <point x="479" y="553"/>
      <point x="405" y="582"/>
      <point x="328" y="582" type="curve" smooth="yes"/>
      <point x="179" y="582"/>
      <point x="64" y="468"/>
      <point x="64" y="319" type="curve" smooth="yes"/>
      <point x="64" y="144"/>
      <point x="223" y="-12"/>
    </contour>
  </outline>
</glyph>
<glyph name="d" format="2">
  <advance width="740"/>
  <unicode hex="0064"/>
  <anchor x="392" y="0" name="bottom"/>
  <anchor x="493" y="780" name="center"/>
  <anchor x="322" y="570" name="top"/>
  <anchor x="549" y="960" name="topright"/>
  <outline>
    <contour>
      <point x="392" y="-8" type="curve" smooth="yes"/>
      <point x="503" y="-8"/>
      <point x="597" y="59"/>
      <point x="631" y="162" type="curve"/>
      <point x="671" y="0" type="line"/>
      <point x="709" y="0" type="line"/>
      <point x="469" y="960" type="line"/>
      <point x="427" y="960" type="line"/>
      <point x="550" y="470" type="line"/>
      <point x="488" y="538"/>
      <point x="403" y="578"/>
      <point x="319" y="578" type="curve" smooth="yes"/>
      <point x="174" y="578"/>
      <point x="64" y="468"/>
      <point x="64" y="322" type="curve" smooth="yes"/>
      <point x="64" y="148"/>
      <point x="219" y="-8"/>
    </contour>
    <contour>
      <point x="391" y="32" type="curve" smooth="yes"/>
      <point x="241" y="32"/>
      <point x="106" y="166"/>
      <point x="106" y="316" type="curve" smooth="yes"/>
      <point x="106" y="441"/>
      <point x="202" y="538"/>
      <point x="325" y="538" type="curve" smooth="yes"/>
      <point x="475" y="538"/>
      <point x="605" y="399"/>
      <point x="605" y="247" type="curve" smooth="yes"/>
      <point x="605" y="123"/>
      <point x="515" y="32"/>
    </contour>
  </outline>
</glyph>
<glyph name="e" format="2">
  <advance width="690"/>
  <unicode hex="0065"/>
  <anchor x="398" y="0" name="bottom"/>
  <anchor x="518" y="0" name="ogonek"/>
  <anchor x="321" y="570" name="top"/>
  <outline>
    <contour>
      <point x="399" y="-12" type="curve" smooth="yes"/>
      <point x="484" y="-12"/>
      <point x="560" y="25"/>
      <point x="610" y="89" type="curve"/>
      <point x="589" y="134" type="line"/>
      <point x="549" y="68"/>
      <point x="476" y="28"/>
      <point x="396" y="28" type="curve" smooth="yes"/>
      <point x="251" y="28"/>
      <point x="117" y="150"/>
      <point x="106" y="294" type="curve"/>
      <point x="131" y="292"/>
      <point x="159" y="291"/>
      <point x="186" y="291" type="curve" smooth="yes"/>
      <point x="629" y="291" type="line"/>
      <point x="628" y="300" type="line" smooth="yes"/>
      <point x="610" y="460"/>
      <point x="475" y="582"/>
      <point x="320" y="582" type="curve" smooth="yes"/>
      <point x="172" y="582"/>
      <point x="64" y="470"/>
      <point x="64" y="321" type="curve" smooth="yes"/>
      <point x="64" y="142"/>
      <point x="220" y="-12"/>
    </contour>
    <contour>
      <point x="106" y="324" type="curve"/>
      <point x="106" y="449"/>
      <point x="197" y="542"/>
      <point x="321" y="542" type="curve" smooth="yes"/>
      <point x="445" y="542"/>
      <point x="558" y="446"/>
      <point x="584" y="324" type="curve"/>
      <point x="551" y="326"/>
      <point x="531" y="327"/>
      <point x="505" y="327" type="curve" smooth="yes"/>
      <point x="182" y="327" type="line" smooth="yes"/>
      <point x="157" y="327"/>
      <point x="131" y="326"/>
    </contour>
  </outline>
</glyph>
<glyph name="k" format="2">
  <advance width="590"/>
  <unicode hex="006B"/>
  <anchor x="386" y="0" name="bottom"/>
  <anchor x="-35" y="960" name="top"/>
  <outline>
    <contour>
      <point x="546" y="0" type="line"/>
      <point x="608" y="0" type="line"/>
      <point x="242" y="299" type="line"/>
      <point x="447" y="570" type="line"/>
      <point x="399" y="570" type="line"/>
      <point x="189" y="293" type="line"/>
    </contour>
    <contour>
      <point x="184" y="0" type="line"/>
      <point x="226" y="0" type="line"/>
      <point x="-14" y="960" type="line"/>
      <point x="-56" y="960" type="line"/>
    </contour>
  </outline>
</glyph>
<glyph name="l" format="2">
  <advance width="260"/>
  <unicode hex="006C"/>
  <anchor x="205" y="0" name="bottom"/>
  <anchor x="85" y="480" name="center"/>
  <anchor x="368" y="420" name="periodcentered"/>
  <anchor x="-35" y="960" name="top"/>
  <anchor x="66" y="960" name="topright"/>
  <outline>
    <contour>
      <point x="184" y="0" type="line"/>
      <point x="226" y="0" type="line"/>
      <point x="-14" y="960" type="line"/>
      <point x="-56" y="960" type="line"/>
    </contour>
  </outline>
</glyph>
<glyph name="m" format="2">
  <advance width="1120"/>
  <unicode hex="006D"/>
  <anchor x="566" y="0" name="bottom"/>
  <anchor x="566" y="600" name="top"/>
  <outline>
    <contour>
      <point x="184" y="0" type="line"/>
      <point x="226" y="0" type="line"/>
      <point x="150" y="301" type="line" smooth="yes"/>
      <point x="116" y="434"/>
      <point x="196" y="542"/>
      <point x="319" y="542" type="curve" smooth="yes"/>
      <point x="422" y="542"/>
      <point x="503" y="468"/>
      <point x="533" y="347" type="curve" smooth="yes"/>
      <point x="620" y="0" type="line"/>
      <point x="662" y="0" type="line"/>
      <point x="585" y="304" type="line" smooth="yes"/>
      <point x="552" y="435"/>
      <point x="629" y="541"/>
      <point x="750" y="541" type="curve" smooth="yes"/>
      <point x="851" y="541"/>
      <point x="938" y="469"/>
      <point x="968" y="349" type="curve" smooth="yes"/>
      <point x="1056" y="0" type="line"/>
      <point x="1098" y="0" type="line"/>
      <point x="1007" y="362" type="line" smooth="yes"/>
      <point x="974" y="495"/>
      <point x="872" y="582"/>
      <point x="749" y="582" type="curve" smooth="yes"/>
      <point x="649" y="582"/>
      <point x="574" y="519"/>
      <point x="551" y="421" type="curve"/>
      <point x="506" y="520"/>
      <point x="421" y="582"/>
      <point x="318" y="582" type="curve" smooth="yes"/>
      <point x="215" y="582"/>
      <point x="138" y="517"/>
      <point x="118" y="416" type="curve"/>
      <point x="79" y="570" type="line"/>
      <point x="41" y="570" type="line"/>
    </contour>
  </outline>
</glyph>
<glyph name="n" format="2">
  <advance width="700"/>
  <unicode hex="006E"/>
  <anchor x="431" y="0" name="bottom"/>
  <anchor x="322" y="570" name="top"/>
  <outline>
    <contour>
      <point x="184" y="0" type="line"/>
      <point x="226" y="0" type="line"/>
      <point x="151" y="296" type="line" smooth="yes"/>
      <point x="117" y="432"/>
      <point x="197" y="542"/>
      <point x="323" y="542" type="curve" smooth="yes"/>
      <point x="428" y="542"/>
      <point x="518" y="467"/>
      <point x="549" y="343" type="curve" smooth="yes"/>
      <point x="636" y="0" type="line"/>
      <point x="678" y="0" type="line"/>
      <point x="588" y="354" type="line" smooth="yes"/>
      <point x="553" y="492"/>
      <point x="448" y="582"/>
      <point x="321" y="582" type="curve" smooth="yes"/>
      <point x="216" y="582"/>
      <point x="137" y="515"/>
      <point x="118" y="410" type="curve"/>
      <point x="79" y="570" type="line"/>
      <point x="41" y="570" type="line"/>
    </contour>
  </outline>
</glyph>
<glyph name="o" format="2">
  <advance width="720"/>
  <unicode hex="006F"/>
  <anchor x="400" y="0" name="bottom"/>
  <anchor x="356" y="285" name="center"/>
  <anchor x="419" y="0" name="ogonek"/>
  <anchor x="330" y="570" name="top"/>
  <anchor x="726" y="600" name="topright"/>
  <outline>
    <contour>
      <point x="400" y="-12" type="curve" smooth="yes"/>
      <point x="549" y="-12"/>
      <point x="664" y="102"/>
      <point x="664" y="251" type="curve" smooth="yes"/>
      <point x="664" y="426"/>
      <point x="505" y="582"/>
      <point x="328" y="582" type="curve" smooth="yes"/>
      <point x="179" y="582"/>
      <point x="64" y="468"/>
      <point x="64" y="319" type="curve" smooth="yes"/>
      <point x="64" y="144"/>
      <point x="223" y="-12"/>
    </contour>
    <contour>
      <point x="396" y="28" type="curve" smooth="yes"/>
      <point x="243" y="28"/>
      <point x="106" y="164"/>
      <point x="106" y="315" type="curve" smooth="yes"/>
      <point x="106" y="443"/>
      <point x="204" y="542"/>
      <point x="332" y="542" type="curve" smooth="yes"/>
      <point x="485" y="542"/>
      <point x="622" y="406"/>
      <point x="622" y="255" type="curve" smooth="yes"/>
      <point x="622" y="127"/>
      <point x="524" y="28"/>
    </contour>
  </outline>
</glyph>
<glyph name="p" format="2">
  <advance width="740"/>
  <unicode hex="0070"/>
  <anchor x="445" y="0" name="bottom"/>
  <anchor x="295" y="600" name="top"/>
  <outline>
    <contour>
      <point x="256" y="-300" type="line"/>
      <point x="298" y="-300" type="line"/>
      <point x="198" y="100" type="line"/>
      <point x="260" y="32"/>
      <point x="345" y="-8"/>
      <point x="429" y="-8" type="curve" smooth="yes"/>
      <point x="574" y="-8"/>
      <point x="684" y="102"/>
      <point x="684" y="248" type="curve" smooth="yes"/>
      <point x="684" y="422"/>
      <point x="529" y="578"/>
      <point x="356" y="578" type="curve" smooth="yes"/>
      <point x="245" y="578"/>
      <point x="151" y="511"/>
      <point x="117" y="408" type="curve"/>
      <point x="77" y="570" type="line"/>
      <point x="39" y="570" type="line"/>
    </contour>
    <contour>
      <point x="423" y="32" type="curve" smooth="yes"/>
      <point x="273" y="32"/>
      <point x="143" y="171"/>
      <point x="143" y="323" type="curve" smooth="yes"/>
      <point x="143" y="447"/>
      <point x="233" y="538"/>
      <point x="357" y="538" type="curve" smooth="yes"/>
      <point x="507" y="538"/>
      <point x="642" y="404"/>
      <point x="642" y="254" type="curve" smooth="yes"/>
      <point x="642" y="129"/>
      <point x="546" y="32"/>
    </contour>
  </outline>
</glyph>
<glyph name="q" format="2">
  <advance width="740"/>
  <unicode hex="0071"/>
  <outline>
    <contour>
      <point x="742" y="-300" type="line"/>
      <point x="784" y="-300" type="line"/>
      <point x="567" y="570" type="line"/>
      <point x="529" y="570" type="line"/>
      <point x="556" y="462" type="line"/>
      <point x="495" y="535"/>
      <point x="406" y="578"/>
      <point x="319" y="578" type="curve" smooth="yes"/>
      <point x="174" y="578"/>
      <point x="64" y="468"/>
      <point x="64" y="322" type="curve" smooth="yes"/>
      <point x="64" y="148"/>
      <point x="219" y="-8"/>
      <point x="392" y="-8" type="curve" smooth="yes"/>
      <point x="501" y="-8"/>
      <point x="593" y="56"/>
      <point x="629" y="156" type="curve"/>
    </contour>
    <contour>
      <point x="391" y="32" type="curve" smooth="yes"/>
      <point x="241" y="32"/>
      <point x="106" y="166"/>
      <point x="106" y="316" type="curve" smooth="yes"/>
      <point x="106" y="441"/>
      <point x="202" y="538"/>
      <point x="325" y="538" type="curve" smooth="yes"/>
      <point x="475" y="538"/>
      <point x="605" y="399"/>
      <point x="605" y="247" type="curve" smooth="yes"/>
      <point x="605" y="123"/>
      <point x="515" y="32"/>
    </contour>
  </outline>
</glyph>
<glyph name="r" format="2">
  <advance width="440"/>
  <unicode hex="0072"/>
  <anchor x="205" y="0" name="bottom"/>
  <anchor x="201" y="570" name="top"/>
  <outline>
    <contour>
      <point x="184" y="0" type="line"/>
      <point x="226" y="0" type="line"/>
      <point x="161" y="269" type="line" smooth="yes"/>
      <point x="124" y="421"/>
      <point x="216" y="537"/>
      <point x="336" y="537" type="curve" smooth="yes"/>
      <point x="338" y="537"/>
      <point x="341" y="537"/>
      <point x="343" y="537" type="curve"/>
      <point x="323" y="575" type="line"/>
      <point x="219" y="563"/>
      <point x="143" y="496"/>
      <point x="125" y="387" type="curve"/>
      <point x="79" y="570" type="line"/>
      <point x="41" y="570" type="line"/>
    </contour>
  </outline>
</glyph>
<glyph name="s" format="2">
  <advance width="490"/>
  <unicode hex="0073"/>
  <anchor x="291" y="0" name="bottom"/>
  <anchor x="178" y="570" name="top"/>
  <outline>
    <contour>
      <point x="290" y="-12" type="curve" smooth="yes"/>
      <point x="389" y="-12"/>
      <point x="456" y="47"/>
      <point x="456" y="136" type="curve" smooth="yes"/>
      <point x="456" y="216"/>
      <point x="402" y="273"/>
      <point x="295" y="306" type="curve" smooth="yes"/>
      <point x="207" y="333" type="line" smooth="yes"/>
      <point x="137" y="355"/>
      <point x="99" y="395"/>
      <point x="99" y="449" type="curve" smooth="yes"/>
      <point x="99" y="506"/>
      <point x="142" y="545"/>
      <point x="207" y="545" type="curve" smooth="yes"/>
      <point x="254" y="545"/>
      <point x="299" y="525"/>
      <point x="335" y="488" type="curve"/>
      <point x="335" y="542" type="line"/>
      <point x="295" y="568"/>
      <point x="250" y="582"/>
      <point x="205" y="582" type="curve" smooth="yes"/>
      <point x="118" y="582"/>
      <point x="58" y="527"/>
      <point x="58" y="449" type="curve" smooth="yes"/>
      <point x="58" y="376"/>
      <point x="108" y="321"/>
      <point x="200" y="293" type="curve" smooth="yes"/>
      <point x="288" y="266" type="line" smooth="yes"/>
      <point x="371" y="241"/>
      <point x="415" y="194"/>
      <point x="415" y="133" type="curve" smooth="yes"/>
      <point x="415" y="68"/>
      <point x="366" y="25"/>
      <point x="292" y="25" type="curve" smooth="yes"/>
      <point x="238" y="25"/>
      <point x="184" y="49"/>
      <point x="136" y="93" type="curve"/>
      <point x="136" y="39" type="line"/>
      <point x="185" y="5"/>
      <point x="237" y="-12"/>
    </contour>
  </outline>
</glyph>
<glyph name="t" format="2">
  <advance width="450"/>
  <unicode hex="0074"/>
  <anchor x="285" y="0" name="bottom"/>
  <anchor x="214" y="285" name="center"/>
  <anchor x="84" y="800" name="top"/>
  <anchor x="65" y="960" name="topright"/>
  <outline>
    <contour>
      <point x="264" y="0" type="line"/>
      <point x="306" y="0" type="line"/>
      <point x="172" y="534" type="line"/>
      <point x="354" y="534" type="line"/>
      <point x="345" y="570" type="line"/>
      <point x="163" y="570" type="line"/>
      <point x="105" y="800" type="line"/>
      <point x="63" y="800" type="line"/>
      <point x="121" y="570" type="line"/>
      <point x="-33" y="570" type="line"/>
      <point x="-24" y="534" type="line"/>
      <point x="130" y="534" type="line"/>
    </contour>
  </outline>
</glyph>
<glyph name="u" format="2">
  <advance width="700"/>
  <unicode hex="0075"/>
  <anchor x="384" y="0" name="bottom"/>
  <anchor x="646" y="0" name="ogonek"/>
  <anchor x="275" y="570" name="top"/>
  <anchor x="522" y="570" name="topright"/>
  <outline>
    <contour>
      <point x="385" y="-12" type="curve" smooth="yes"/>
      <point x="490" y="-12"/>
      <point x="568" y="51"/>
      <point x="590" y="149" type="curve"/>
      <point x="627" y="0" type="line"/>
      <point x="665" y="0" type="line"/>
      <point x="522" y="570" type="line"/>
      <point x="480" y="570" type="line"/>
      <point x="555" y="274" type="line" smooth="yes"/>
      <point x="589" y="138"/>
      <point x="509" y="28"/>
      <point x="383" y="28" type="curve" smooth="yes"/>
      <point x="278" y="28"/>
      <point x="188" y="103"/>
      <point x="157" y="227" type="curve" smooth="yes"/>
      <point x="70" y="570" type="line"/>
      <point x="28" y="570" type="line"/>
      <point x="118" y="216" type="line" smooth="yes"/>
      <point x="153" y="78"/>
      <point x="258" y="-12"/>
    </contour>
  </outline>
</glyph>
<glyph name="v" format="2">
  <advance width="590"/>
  <unicode hex="0076"/>
  <outline>
    <contour>
      <point x="375" y="-30" type="line"/>
      <point x="377" y="-30" type="line"/>
      <point x="493" y="570" type="line"/>
      <point x="453" y="570" type="line"/>
      <point x="395" y="273" type="line" smooth="yes"/>
      <point x="382" y="207"/>
      <point x="369" y="138"/>
      <point x="357" y="65" type="curve"/>
      <point x="309" y="138"/>
      <point x="264" y="207"/>
      <point x="218" y="273" type="curve" smooth="yes"/>
      <point x="13" y="570" type="line"/>
      <point x="-37" y="570" type="line"/>
    </contour>
  </outline>
</glyph>
<glyph name="w" format="2">
  <advance width="1000"/>
  <unicode hex="0077"/>
  <anchor x="575" y="0" name="bottom"/>
  <anchor x="433" y="570" name="top"/>
  <outline>
    <contour>
      <point x="374" y="-30" type="line"/>
      <point x="376" y="-30" type="line"/>
      <point x="425" y="300" type="line" smooth="yes"/>
      <point x="434" y="363"/>
      <point x="444" y="429"/>
      <point x="452" y="495" type="curve"/>
      <point x="494" y="429"/>
      <point x="534" y="363"/>
      <point x="574" y="300" type="curve" smooth="yes"/>
      <point x="785" y="-30" type="line"/>
      <point x="787" y="-30" type="line"/>
      <point x="903" y="570" type="line"/>
      <point x="860" y="570" type="line"/>
      <point x="802" y="273" type="line" smooth="yes"/>
      <point x="789" y="207"/>
      <point x="776" y="137"/>
      <point x="764" y="68" type="curve"/>
      <point x="721" y="137"/>
      <point x="679" y="207"/>
      <point x="637" y="273" type="curve" smooth="yes"/>
      <point x="430" y="600" type="line"/>
      <point x="428" y="600" type="line"/>
      <point x="381" y="273" type="line" smooth="yes"/>
      <point x="372" y="207"/>
      <point x="361" y="137"/>
      <point x="352" y="68" type="curve"/>
      <point x="306" y="137"/>
      <point x="260" y="207"/>
      <point x="215" y="273" type="curve" smooth="yes"/>
      <point x="11" y="570" type="line"/>
      <point x="-37" y="570" type="line"/>
    </contour>
  </outline>
</glyph>
<glyph name="x" format="2">
  <advance width="560"/>
  <unicode hex="0078"/>
  <outline>
    <contour>
      <point x="90" y="0" type="line"/>
      <point x="134" y="0" type="line"/>
      <point x="227" y="180" type="line"/>
      <point x="243" y="211"/>
      <point x="259" y="243"/>
      <point x="275" y="276" type="curve"/>
      <point x="303" y="243"/>
      <point x="332" y="210"/>
      <point x="360" y="179" type="curve"/>
      <point x="524" y="0" type="line"/>
      <point x="578" y="0" type="line"/>
      <point x="294" y="309" type="line"/>
      <point x="429" y="570" type="line"/>
      <point x="385" y="570" type="line"/>
      <point x="308" y="420" type="line"/>
      <point x="294" y="393"/>
      <point x="280" y="365"/>
      <point x="266" y="336" type="curve"/>
      <point x="241" y="365"/>
      <point x="217" y="393"/>
      <point x="192" y="420" type="curve"/>
      <point x="55" y="570" type="line"/>
      <point x="1" y="570" type="line"/>
      <point x="247" y="302" type="line"/>
    </contour>
  </outline>
</glyph>
<glyph name="y" format="2">
  <advance width="610"/>
  <unicode hex="0079"/>
  <anchor x="450" y="0" name="bottom"/>
  <anchor x="239" y="570" name="top"/>
  <outline>
    <contour>
      <point x="262" y="-300" type="line"/>
      <point x="303" y="-300" type="line"/>
      <point x="513" y="570" type="line"/>
      <point x="472" y="570" type="line"/>
      <point x="401" y="273" type="line" smooth="yes"/>
      <point x="385" y="207"/>
      <point x="369" y="138"/>
      <point x="354" y="69" type="curve"/>
      <point x="308" y="138"/>
      <point x="262" y="207"/>
      <point x="216" y="273" type="curve" smooth="yes"/>
      <point x="9" y="570" type="line"/>
      <point x="-37" y="570" type="line"/>
      <point x="340" y="23" type="line"/>
    </contour>
  </outline>
</glyph>
<glyph name="z" format="2">
  <advance width="530"/>
  <unicode hex="007A"/>
  <anchor x="340" y="0" name="bottom"/>
  <anchor x="259" y="285" name="center"/>
  <anchor x="198" y="570" name="top"/>
  <outline>
    <contour>
      <point x="135" y="0" type="line"/>
      <point x="513" y="0" type="line"/>
      <point x="504" y="38" type="line"/>
      <point x="188" y="38" type="line"/>
      <point x="383" y="568" type="line"/>
      <point x="383" y="570" type="line"/>
      <point x="11" y="570" type="line"/>
      <point x="20" y="532" type="line"/>
      <point x="330" y="532" type="line"/>
      <point x="135" y="2" type="line"/>
    </contour>
  </outline>
</glyph>
<glyph name="braceleft" format="2">
  <advance width="480"/>
  <unicode hex="007B"/>
  <outline>
    <contour>
      <point x="528" y="-180" type="curve"/>
      <point x="519" y="-142" type="line"/>
      <point x="402" y="-142"/>
      <point x="302" y="-104"/>
      <point x="261" y="56" type="curve" smooth="yes"/>
      <point x="246" y="115"/>
      <point x="245" y="167"/>
      <point x="233" y="216" type="curve" smooth="yes"/>
      <point x="213" y="295"/>
      <point x="173" y="334"/>
      <point x="104" y="357" type="curve"/>
      <point x="144" y="386"/>
      <point x="163" y="420"/>
      <point x="163" y="466" type="curve" smooth="yes"/>
      <point x="163" y="555"/>
      <point x="94" y="657"/>
      <point x="94" y="757" type="curve" smooth="yes"/>
      <point x="94" y="846"/>
      <point x="150" y="906"/>
      <point x="252" y="924" type="curve"/>
      <point x="243" y="960" type="line"/>
      <point x="139" y="941"/>
      <point x="52" y="882"/>
      <point x="52" y="757" type="curve" smooth="yes"/>
      <point x="52" y="645"/>
      <point x="122" y="544"/>
      <point x="122" y="464" type="curve" smooth="yes"/>
      <point x="122" y="408"/>
      <point x="88" y="381"/>
      <point x="36" y="348" type="curve"/>
      <point x="120" y="325"/>
      <point x="168" y="303"/>
      <point x="190" y="214" type="curve" smooth="yes"/>
      <point x="201" y="168"/>
      <point x="204" y="112"/>
      <point x="219" y="52" type="curve" smooth="yes"/>
      <point x="259" y="-108"/>
      <point x="358" y="-180"/>
    </contour>
  </outline>
</glyph>
<glyph name="braceright" format="2">
  <advance width="480"/>
  <unicode hex="007D"/>
  <outline>
    <contour>
      <point x="192" y="-180" type="line"/>
      <point x="296" y="-161"/>
      <point x="383" y="-102"/>
      <point x="383" y="23" type="curve" smooth="yes"/>
      <point x="383" y="135"/>
      <point x="313" y="236"/>
      <point x="313" y="316" type="curve" smooth="yes"/>
      <point x="313" y="372"/>
      <point x="347" y="399"/>
      <point x="399" y="432" type="curve"/>
      <point x="315" y="455"/>
      <point x="267" y="477"/>
      <point x="245" y="566" type="curve" smooth="yes"/>
      <point x="234" y="612"/>
      <point x="231" y="668"/>
      <point x="216" y="728" type="curve" smooth="yes"/>
      <point x="176" y="888"/>
      <point x="77" y="960"/>
      <point x="-93" y="960" type="curve"/>
      <point x="-84" y="922" type="line"/>
      <point x="33" y="922"/>
      <point x="133" y="884"/>
      <point x="174" y="724" type="curve" smooth="yes"/>
      <point x="189" y="665"/>
      <point x="190" y="613"/>
      <point x="202" y="564" type="curve" smooth="yes"/>
      <point x="222" y="485"/>
      <point x="262" y="446"/>
      <point x="331" y="423" type="curve"/>
      <point x="291" y="394"/>
      <point x="272" y="360"/>
      <point x="272" y="314" type="curve" smooth="yes"/>
      <point x="272" y="225"/>
      <point x="341" y="123"/>
      <point x="341" y="23" type="curve" smooth="yes"/>
      <point x="341" y="-66"/>
      <point x="285" y="-126"/>
      <point x="183" y="-144" type="curve"/>
    </contour>
  </outline>
</glyph>
<glyph name="asciitilde" format="2">
  <advance width="750"/>
  <unicode hex="007E"/>
  <outline>
    <contour>
      <point x="42" y="385" type="line"/>
      <point x="87" y="447"/>
      <point x="141" y="483"/>
      <point x="201" y="483" type="curve" smooth="yes"/>
      <point x="301" y="483"/>
      <point x="363" y="381"/>
      <point x="475" y="381" type="curve" smooth="yes"/>
      <point x="543" y="381"/>
      <point x="602" y="418"/>
      <point x="647" y="478" type="curve"/>
      <point x="633" y="516" type="line"/>
      <point x="588" y="451"/>
      <point x="534" y="417"/>
      <point x="476" y="417" type="curve" smooth="yes"/>
      <point x="374" y="417"/>
      <point x="314" y="519"/>
      <point x="202" y="519" type="curve" smooth="yes"/>
      <point x="133" y="519"/>
      <point x="75" y="482"/>
      <point x="29" y="423" type="curve"/>
    </contour>
  </outline>
</glyph>
<glyph name="exclamdown" format="2">
  <advance width="480"/>
  <unicode hex="00A1"/>
  <outline>
    <contour>
      <point x="369" y="-300" type="line"/>
      <point x="411" y="-300" type="line"/>
      <point x="251" y="330" type="line"/>
      <point x="213" y="330" type="line"/>
    </contour>
    <contour>
      <point x="178" y="524" type="curve" smooth="yes"/>
      <point x="197" y="524"/>
      <point x="216" y="539"/>
      <point x="216" y="562" type="curve" smooth="yes"/>
      <point x="216" y="586"/>
      <point x="194" y="608"/>
      <point x="170" y="608" type="curve" smooth="yes"/>
      <point x="149" y="608"/>
      <point x="132" y="590"/>
      <point x="132" y="571" type="curve" smooth="yes"/>
      <point x="132" y="546"/>
      <point x="154" y="524"/>
    </contour>
  </outline>
</glyph>
<glyph name="cent" format="2">
  <advance width="750"/>
  <unicode hex="00A2"/>
  <outline>
    <contour>
      <point x="480" y="0" type="line"/>
      <point x="516" y="0" type="line"/>
      <point x="476" y="157" type="line"/>
      <point x="548" y="170"/>
      <point x="608" y="211"/>
      <point x="647" y="269" type="curve"/>
      <point x="624" y="317" type="line"/>
      <point x="589" y="242"/>
      <point x="512" y="193"/>
      <point x="422" y="193" type="curve" smooth="yes"/>
      <point x="269" y="193"/>
      <point x="132" y="329"/>
      <point x="132" y="480" type="curve" smooth="yes"/>
      <point x="132" y="608"/>
      <point x="230" y="707"/>
      <point x="358" y="707" type="curve" smooth="yes"/>
      <point x="436" y="707"/>
      <point x="509" y="672"/>
      <point x="563" y="618" type="curve"/>
      <point x="563" y="670" type="line"/>
      <point x="492" y="727"/>
      <point x="407" y="753"/>
      <point x="328" y="746" type="curve"/>
      <point x="298" y="870" type="line"/>
      <point x="262" y="870" type="line"/>
      <point x="294" y="741" type="line"/>
      <point x="175" y="715"/>
      <point x="90" y="612"/>
      <point x="90" y="484" type="curve" smooth="yes"/>
      <point x="90" y="309"/>
      <point x="249" y="153"/>
      <point x="441" y="153" type="curve"/>
    </contour>
  </outline>
</glyph>
<glyph name="sterling" format="2">
  <advance width="750"/>
  <unicode hex="00A3"/>
  <outline>
    <contour>
      <point x="270" y="0" type="line"/>
      <point x="717" y="0" type="line"/>
      <point x="707" y="40" type="line"/>
      <point x="337" y="40" type="line"/>
      <point x="351" y="71"/>
      <point x="360" y="100"/>
      <point x="360" y="133" type="curve" smooth="yes"/>
      <point x="360" y="222"/>
      <point x="292" y="354"/>
      <point x="261" y="432" type="curve"/>
      <point x="549" y="432" type="line"/>
      <point x="540" y="468" type="line"/>
      <point x="245" y="468" type="line"/>
      <point x="215" y="538"/>
      <point x="183" y="618"/>
      <point x="183" y="693" type="curve" smooth="yes"/>
      <point x="183" y="808"/>
      <point x="257" y="873"/>
      <point x="358" y="873" type="curve" smooth="yes"/>
      <point x="425" y="873"/>
      <point x="484" y="844"/>
      <point x="534" y="792" type="curve"/>
      <point x="534" y="844" type="line"/>
      <point x="480" y="889"/>
      <point x="420" y="912"/>
      <point x="355" y="912" type="curve" smooth="yes"/>
      <point x="234" y="912"/>
      <point x="142" y="832"/>
      <point x="142" y="695" type="curve" smooth="yes"/>
      <point x="142" y="618"/>
      <point x="171" y="538"/>
      <point x="201" y="468" type="curve"/>
      <point x="48" y="468" type="line"/>
      <point x="57" y="432" type="line"/>
      <point x="219" y="432" type="line"/>
      <point x="259" y="339"/>
      <point x="320" y="217"/>
      <point x="320" y="133" type="curve" smooth="yes"/>
      <point x="320" y="88"/>
      <point x="303" y="52"/>
      <point x="270" y="2" type="curve"/>
    </contour>
  </outline>
</glyph>
<glyph name="currency" format="2">
  <advance width="750"/>
  <unicode hex="00A4"/>
  <outline>
    <contour>
      <point x="384" y="153" type="curve" smooth="yes"/>
      <point x="464" y="153"/>
      <point x="534" y="186"/>
      <point x="582" y="239" type="curve"/>
      <point x="679" y="162" type="line"/>
      <point x="700" y="192" type="line"/>
      <point x="604" y="268" type="line"/>
      <point x="632" y="310"/>
      <point x="648" y="361"/>
      <point x="648" y="416" type="curve" smooth="yes"/>
      <point x="648" y="510"/>
      <point x="602" y="599"/>
      <point x="532" y="660" type="curve"/>
      <point x="592" y="741" type="line"/>
      <point x="562" y="768" type="line"/>
      <point x="501" y="685" type="line"/>
      <point x="446" y="724"/>
      <point x="380" y="747"/>
      <point x="312" y="747" type="curve" smooth="yes"/>
      <point x="232" y="747"/>
      <point x="161" y="714"/>
      <point x="114" y="660" type="curve"/>
      <point x="16" y="738" type="line"/>
      <point x="-5" y="708" type="line"/>
      <point x="91" y="631" type="line"/>
      <point x="64" y="590"/>
      <point x="48" y="539"/>
      <point x="48" y="484" type="curve" smooth="yes"/>
      <point x="48" y="389"/>
      <point x="95" y="300"/>
      <point x="165" y="238" type="curve"/>
      <point x="105" y="159" type="line"/>
      <point x="135" y="132" type="line"/>
      <point x="197" y="214" type="line"/>
      <point x="251" y="176"/>
      <point x="316" y="153"/>
    </contour>
    <contour>
      <point x="380" y="193" type="curve" smooth="yes"/>
      <point x="227" y="193"/>
      <point x="90" y="329"/>
      <point x="90" y="480" type="curve" smooth="yes"/>
      <point x="90" y="608"/>
      <point x="188" y="707"/>
      <point x="316" y="707" type="curve" smooth="yes"/>
      <point x="469" y="707"/>
      <point x="606" y="571"/>
      <point x="606" y="420" type="curve" smooth="yes"/>
      <point x="606" y="292"/>
      <point x="508" y="193"/>
    </contour>
  </outline>
</glyph>
<glyph name="yen" format="2">
  <advance width="750"/>
  <unicode hex="00A5"/>
  <outline>
    <contour>
      <point x="428" y="0" type="line"/>
      <point x="472" y="0" type="line"/>
      <point x="386" y="343" type="line"/>
      <point x="649" y="343" type="line"/>
      <point x="641" y="377" type="line"/>
      <point x="378" y="377" type="line"/>
      <point x="362" y="441" type="line"/>
      <point x="392" y="523" type="line"/>
      <point x="604" y="523" type="line"/>
      <point x="596" y="557" type="line"/>
      <point x="404" y="557" type="line"/>
      <point x="530" y="900" type="line"/>
      <point x="484" y="900" type="line"/>
      <point x="376" y="600" type="line" smooth="yes"/>
      <point x="362" y="562"/>
      <point x="349" y="521"/>
      <point x="336" y="480" type="curve"/>
      <point x="303" y="521"/>
      <point x="268" y="562"/>
      <point x="236" y="600" type="curve" smooth="yes"/>
      <point x="-24" y="900" type="line"/>
      <point x="-80" y="900" type="line"/>
      <point x="217" y="557" type="line"/>
      <point x="26" y="557" type="line"/>
      <point x="34" y="523" type="line"/>
      <point x="247" y="523" type="line"/>
      <point x="318" y="441" type="line"/>
      <point x="334" y="377" type="line"/>
      <point x="71" y="377" type="line"/>
      <point x="79" y="343" type="line"/>
      <point x="342" y="343" type="line"/>
    </contour>
  </outline>
</glyph>
<glyph name="section" format="2">
  <advance width="750"/>
  <unicode hex="00A7"/>
  <outline>
    <contour>
      <point x="444" y="-189" type="curve" smooth="yes"/>
      <point x="561" y="-189"/>
      <point x="647" y="-111"/>
      <point x="647" y="-6" type="curve" smooth="yes"/>
      <point x="647" y="80"/>
      <point x="589" y="158"/>
      <point x="494" y="201" type="curve"/>
      <point x="577" y="225"/>
      <point x="627" y="291"/>
      <point x="627" y="373" type="curve" smooth="yes"/>
      <point x="627" y="472"/>
      <point x="554" y="554"/>
      <point x="432" y="592" type="curve" smooth="yes"/>
      <point x="256" y="646" type="line" smooth="yes"/>
      <point x="170" y="672"/>
      <point x="118" y="733"/>
      <point x="118" y="806" type="curve" smooth="yes"/>
      <point x="118" y="880"/>
      <point x="173" y="931"/>
      <point x="253" y="931" type="curve" smooth="yes"/>
      <point x="305" y="931"/>
      <point x="362" y="910"/>
      <point x="406" y="875" type="curve"/>
      <point x="406" y="926" type="line"/>
      <point x="357" y="955"/>
      <point x="299" y="972"/>
      <point x="249" y="972" type="curve" smooth="yes"/>
      <point x="149" y="972"/>
      <point x="76" y="902"/>
      <point x="76" y="808" type="curve" smooth="yes"/>
      <point x="76" y="734"/>
      <point x="122" y="666"/>
      <point x="201" y="627" type="curve"/>
      <point x="117" y="602"/>
      <point x="66" y="538"/>
      <point x="66" y="455" type="curve" smooth="yes"/>
      <point x="66" y="356"/>
      <point x="138" y="275"/>
      <point x="262" y="236" type="curve" smooth="yes"/>
      <point x="443" y="179" type="line" smooth="yes"/>
      <point x="545" y="147"/>
      <point x="605" y="79"/>
      <point x="605" y="-5" type="curve" smooth="yes"/>
      <point x="605" y="-91"/>
      <point x="540" y="-151"/>
      <point x="447" y="-151" type="curve" smooth="yes"/>
      <point x="382" y="-151"/>
      <point x="316" y="-124"/>
      <point x="264" y="-76" type="curve"/>
      <point x="264" y="-127" type="line"/>
      <point x="315" y="-166"/>
      <point x="381" y="-189"/>
    </contour>
    <contour>
      <point x="454" y="228" type="curve" smooth="yes"/>
      <point x="433" y="228"/>
      <point x="402" y="233"/>
      <point x="375" y="241" type="curve" smooth="yes"/>
      <point x="361" y="245"/>
      <point x="290" y="267"/>
      <point x="270" y="274" type="curve" smooth="yes"/>
      <point x="167" y="310"/>
      <point x="108" y="377"/>
      <point x="108" y="458" type="curve" smooth="yes"/>
      <point x="108" y="539"/>
      <point x="168" y="600"/>
      <point x="244" y="600" type="curve" smooth="yes"/>
      <point x="264" y="600"/>
      <point x="285" y="596"/>
      <point x="318" y="587" type="curve" smooth="yes"/>
      <point x="347" y="579"/>
      <point x="399" y="563"/>
      <point x="426" y="553" type="curve" smooth="yes"/>
      <point x="528" y="515"/>
      <point x="586" y="449"/>
      <point x="586" y="370" type="curve" smooth="yes"/>
      <point x="586" y="290"/>
      <point x="526" y="228"/>
    </contour>
  </outline>
</glyph>
<glyph name="copyright" format="2">
  <advance width="1260"/>
  <unicode hex="00A9"/>
  <outline>
    <contour>
      <point x="658" y="-102" type="curve" smooth="yes"/>
      <point x="935" y="-102"/>
      <point x="1147" y="110"/>
      <point x="1147" y="385" type="curve" smooth="yes"/>
      <point x="1147" y="708"/>
      <point x="853" y="1002"/>
      <point x="528" y="1002" type="curve" smooth="yes"/>
      <point x="251" y="1002"/>
      <point x="39" y="790"/>
      <point x="39" y="515" type="curve" smooth="yes"/>
      <point x="39" y="192"/>
      <point x="333" y="-102"/>
    </contour>
    <contour>
      <point x="657" y="-62" type="curve" smooth="yes"/>
      <point x="355" y="-62"/>
      <point x="81" y="214"/>
      <point x="81" y="516" type="curve" smooth="yes"/>
      <point x="81" y="770"/>
      <point x="275" y="962"/>
      <point x="529" y="962" type="curve" smooth="yes"/>
      <point x="831" y="962"/>
      <point x="1105" y="686"/>
      <point x="1105" y="384" type="curve" smooth="yes"/>
      <point x="1105" y="130"/>
      <point x="911" y="-62"/>
    </contour>
    <contour>
      <point x="645" y="168" type="curve" smooth="yes"/>
      <point x="733" y="168"/>
      <point x="807" y="210"/>
      <point x="851" y="275" type="curve"/>
      <point x="831" y="319" type="line"/>
      <point x="796" y="252"/>
      <point x="725" y="206"/>
      <point x="641" y="206" type="curve" smooth="yes"/>
      <point x="496" y="206"/>
      <point x="366" y="335"/>
      <point x="366" y="478" type="curve" smooth="yes"/>
      <point x="366" y="600"/>
      <point x="459" y="694"/>
      <point x="580" y="694" type="curve" smooth="yes"/>
      <point x="657" y="694"/>
      <point x="729" y="658"/>
      <point x="780" y="604" type="curve"/>
      <point x="780" y="655" type="line"/>
      <point x="724" y="702"/>
      <point x="652" y="732"/>
      <point x="577" y="732" type="curve" smooth="yes"/>
      <point x="435" y="732"/>
      <point x="326" y="624"/>
      <point x="326" y="482" type="curve" smooth="yes"/>
      <point x="326" y="316"/>
      <point x="477" y="168"/>
    </contour>
  </outline>
</glyph>
<glyph name="ordfeminine" format="2">
  <advance width="480"/>
  <unicode hex="00AA"/>
  <outline>
    <contour>
      <point x="184" y="415" type="curve" smooth="yes"/>
      <point x="250" y="415"/>
      <point x="306" y="453"/>
      <point x="330" y="511" type="curve"/>
      <point x="353" y="420" type="line"/>
      <point x="387" y="420" type="line"/>
      <point x="296" y="780" type="line"/>
      <point x="262" y="780" type="line"/>
      <point x="278" y="718" type="line"/>
      <point x="241" y="759"/>
      <point x="189" y="785"/>
      <point x="136" y="785" type="curve" smooth="yes"/>
      <point x="47" y="785"/>
      <point x="-24" y="716"/>
      <point x="-24" y="623" type="curve" smooth="yes"/>
      <point x="-24" y="513"/>
      <point x="74" y="415"/>
    </contour>
    <contour>
      <point x="184" y="449" type="curve" smooth="yes"/>
      <point x="94" y="449"/>
      <point x="12" y="529"/>
      <point x="12" y="618" type="curve" smooth="yes"/>
      <point x="12" y="693"/>
      <point x="70" y="751"/>
      <point x="144" y="751" type="curve" smooth="yes"/>
      <point x="233" y="751"/>
      <point x="311" y="669"/>
      <point x="311" y="578" type="curve" smooth="yes"/>
      <point x="311" y="504"/>
      <point x="258" y="449"/>
    </contour>
  </outline>
</glyph>
<glyph name="logicalnot" format="2">
  <advance width="750"/>
  <unicode hex="00AC"/>
  <outline>
    <contour>
      <point x="624" y="225" type="line"/>
      <point x="658" y="225" type="line"/>
      <point x="598" y="468" type="line"/>
      <point x="28" y="468" type="line"/>
      <point x="37" y="432" type="line"/>
      <point x="573" y="432" type="line"/>
    </contour>
  </outline>
</glyph>
<glyph name="registered" format="2">
  <advance width="600"/>
  <unicode hex="00AE"/>
  <outline>
    <contour>
      <point x="237" y="402" type="curve" smooth="yes"/>
      <point x="370" y="402"/>
      <point x="470" y="502"/>
      <point x="470" y="630" type="curve" smooth="yes"/>
      <point x="470" y="781"/>
      <point x="330" y="918"/>
      <point x="175" y="918" type="curve" smooth="yes"/>
      <point x="43" y="918"/>
      <point x="-58" y="819"/>
      <point x="-58" y="690" type="curve" smooth="yes"/>
      <point x="-58" y="540"/>
      <point x="82" y="402"/>
    </contour>
    <contour>
      <point x="235" y="433" type="curve" smooth="yes"/>
      <point x="99" y="433"/>
      <point x="-24" y="555"/>
      <point x="-24" y="690" type="curve" smooth="yes"/>
      <point x="-24" y="804"/>
      <point x="66" y="887"/>
      <point x="178" y="887" type="curve" smooth="yes"/>
      <point x="314" y="887"/>
      <point x="436" y="765"/>
      <point x="436" y="631" type="curve" smooth="yes"/>
      <point x="436" y="517"/>
      <point x="348" y="433"/>
    </contour>
    <contour>
      <point x="158" y="546" type="line"/>
      <point x="190" y="546" type="line"/>
      <point x="168" y="632" type="line"/>
      <point x="224" y="632" type="line"/>
      <point x="305" y="546" type="line"/>
      <point x="347" y="546" type="line"/>
      <point x="253" y="644" type="line"/>
      <point x="274" y="656"/>
      <point x="286" y="676"/>
      <point x="286" y="701" type="curve" smooth="yes"/>
      <point x="286" y="746"/>
      <point x="246" y="786"/>
      <point x="187" y="786" type="curve" smooth="yes"/>
      <point x="97" y="786" type="line"/>
    </contour>
    <contour>
      <point x="160" y="662" type="line"/>
      <point x="136" y="756" type="line"/>
      <point x="192" y="756" type="line" smooth="yes"/>
      <point x="229" y="756"/>
      <point x="254" y="731"/>
      <point x="254" y="703" type="curve" smooth="yes"/>
      <point x="254" y="679"/>
      <point x="236" y="662"/>
      <point x="207" y="662" type="curve" smooth="yes"/>
    </contour>
  </outline>
</glyph>
<glyph name="degree" format="2">
  <advance width="480"/>
  <unicode hex="00B0"/>
  <outline>
    <contour>
      <point x="148" y="588" type="curve" smooth="yes"/>
      <point x="229" y="588"/>
      <point x="292" y="650"/>
      <point x="292" y="731" type="curve" smooth="yes"/>
      <point x="292" y="827"/>
      <point x="205" y="912"/>
      <point x="108" y="912" type="curve" smooth="yes"/>
      <point x="27" y="912"/>
      <point x="-36" y="850"/>
      <point x="-36" y="769" type="curve" smooth="yes"/>
      <point x="-36" y="673"/>
      <point x="51" y="588"/>
    </contour>
    <contour>
      <point x="143" y="622" type="curve" smooth="yes"/>
      <point x="68" y="622"/>
      <point x="0" y="690"/>
      <point x="0" y="765" type="curve" smooth="yes"/>
      <point x="0" y="829"/>
      <point x="49" y="878"/>
      <point x="113" y="878" type="curve" smooth="yes"/>
      <point x="188" y="878"/>
      <point x="256" y="810"/>
      <point x="256" y="735" type="curve" smooth="yes"/>
      <point x="256" y="671"/>
      <point x="207" y="622"/>
    </contour>
  </outline>
</glyph>
<glyph name="plusminus" format="2">
  <advance width="750"/>
  <unicode hex="00B1"/>
  <outline>
    <contour>
      <point x="365" y="265" type="line"/>
      <point x="403" y="265" type="line"/>
      <point x="346" y="492" type="line"/>
      <point x="602" y="492" type="line"/>
      <point x="593" y="528" type="line"/>
      <point x="337" y="528" type="line"/>
      <point x="273" y="785" type="line"/>
      <point x="235" y="785" type="line"/>
      <point x="299" y="528" type="line"/>
      <point x="43" y="528" type="line"/>
      <point x="52" y="492" type="line"/>
      <point x="308" y="492" type="line"/>
    </contour>
    <contour>
      <point x="156" y="103" type="line"/>
      <point x="690" y="103" type="line"/>
      <point x="682" y="137" type="line"/>
      <point x="148" y="137" type="line"/>
    </contour>
  </outline>
</glyph>
<glyph name="micro" format="2">
  <advance width="770"/>
  <unicode hex="00B5"/>
  <unicode hex="03BC"/>
  <outline>
    <contour>
      <point x="257" y="-300" type="line"/>
      <point x="299" y="-300" type="line"/>
      <point x="196" y="107" type="line"/>
      <point x="238" y="38"/>
      <point x="319" y="-12"/>
      <point x="407" y="-12" type="curve" smooth="yes"/>
      <point x="498" y="-12"/>
      <point x="580" y="42"/>
      <point x="595" y="148" type="curve"/>
      <point x="615" y="47"/>
      <point x="701" y="-9"/>
      <point x="765" y="-9" type="curve"/>
      <point x="765" y="29" type="line"/>
      <point x="696" y="30"/>
      <point x="647" y="78"/>
      <point x="623" y="174" type="curve" smooth="yes"/>
      <point x="524" y="570" type="line"/>
      <point x="482" y="570" type="line"/>
      <point x="562" y="251" type="line" smooth="yes"/>
      <point x="595" y="120"/>
      <point x="516" y="28"/>
      <point x="409" y="28" type="curve" smooth="yes"/>
      <point x="289" y="28"/>
      <point x="194" y="123"/>
      <point x="160" y="257" type="curve" smooth="yes"/>
      <point x="81" y="570" type="line"/>
      <point x="39" y="570" type="line"/>
    </contour>
  </outline>
</glyph>
<glyph name="paragraph" format="2">
  <advance width="750"/>
  <unicode hex="00B6"/>
  <outline>
    <contour>
      <point x="466" y="-180" type="line"/>
      <point x="504" y="-180" type="line"/>
      <point x="227" y="928" type="line"/>
      <point x="419" y="928" type="line"/>
      <point x="694" y="-180" type="line"/>
      <point x="732" y="-180" type="line"/>
      <point x="447" y="960" type="line"/>
      <point x="249" y="960" type="line" smooth="yes"/>
      <point x="67" y="960"/>
      <point x="-36" y="846"/>
      <point x="-36" y="712" type="curve" smooth="yes"/>
      <point x="-36" y="545"/>
      <point x="115" y="409"/>
      <point x="321" y="409" type="curve"/>
    </contour>
  </outline>
</glyph>
<glyph name="ordmasculine" format="2">
  <advance width="480"/>
  <unicode hex="00BA"/>
  <outline>
    <contour>
      <point x="187" y="414" type="curve" smooth="yes"/>
      <point x="280" y="414"/>
      <point x="352" y="485"/>
      <point x="352" y="578" type="curve" smooth="yes"/>
      <point x="352" y="688"/>
      <point x="252" y="786"/>
      <point x="142" y="786" type="curve" smooth="yes"/>
      <point x="49" y="786"/>
      <point x="-24" y="715"/>
      <point x="-24" y="622" type="curve" smooth="yes"/>
      <point x="-24" y="512"/>
      <point x="76" y="414"/>
    </contour>
    <contour>
      <point x="183" y="448" type="curve" smooth="yes"/>
      <point x="94" y="448"/>
      <point x="13" y="529"/>
      <point x="13" y="618" type="curve" smooth="yes"/>
      <point x="13" y="693"/>
      <point x="69" y="752"/>
      <point x="145" y="752" type="curve" smooth="yes"/>
      <point x="235" y="752"/>
      <point x="315" y="671"/>
      <point x="315" y="582" type="curve" smooth="yes"/>
      <point x="315" y="507"/>
      <point x="259" y="448"/>
    </contour>
  </outline>
</glyph>
<glyph name="questiondown" format="2">
  <advance width="480"/>
  <unicode hex="00BF"/>
  <outline>
    <contour>
      <point x="372" y="-308" type="curve" smooth="yes"/>
      <point x="436" y="-308"/>
      <point x="489" y="-283"/>
      <point x="527" y="-244" type="curve"/>
      <point x="514" y="-193" type="line"/>
      <point x="486" y="-238"/>
      <point x="437" y="-268"/>
      <point x="370" y="-268" type="curve" smooth="yes"/>
      <point x="256" y="-268"/>
      <point x="185" y="-181"/>
      <point x="185" y="-72" type="curve" smooth="yes"/>
      <point x="185" y="63"/>
      <point x="293" y="157"/>
      <point x="248" y="334" type="curve"/>
      <point x="212" y="334" type="line"/>
      <point x="253" y="159"/>
      <point x="143" y="70"/>
      <point x="143" y="-72" type="curve" smooth="yes"/>
      <point x="143" y="-205"/>
      <point x="243" y="-308"/>
    </contour>
    <contour>
      <point x="178" y="528" type="curve" smooth="yes"/>
      <point x="197" y="528"/>
      <point x="216" y="543"/>
      <point x="216" y="566" type="curve" smooth="yes"/>
      <point x="216" y="590"/>
      <point x="194" y="612"/>
      <point x="170" y="612" type="curve" smooth="yes"/>
      <point x="149" y="612"/>
      <point x="132" y="594"/>
      <point x="132" y="575" type="curve" smooth="yes"/>
      <point x="132" y="550"/>
      <point x="154" y="528"/>
    </contour>
  </outline>
</glyph>
<glyph name="Aring" format="2">
  <advance width="780"/>
  <unicode hex="00C5"/>
  <outline>
    <contour>
      <point x="120" y="0" type="line"/>
      <point x="161" y="0" type="line"/>
      <point x="207" y="374" type="line"/>
      <point x="531" y="374" type="line"/>
      <point x="761" y="0" type="line"/>
      <point x="810" y="0" type="line"/>
      <point x="266" y="884" type="line"/>
      <point x="319" y="897"/>
      <point x="357" y="943"/>
      <point x="357" y="998" type="curve" smooth="yes"/>
      <point x="357" y="1076"/>
      <point x="284" y="1146"/>
      <point x="207" y="1146" type="curve" smooth="yes"/>
      <point x="142" y="1146"/>
      <point x="85" y="1097"/>
      <point x="85" y="1027" type="curve" smooth="yes"/>
      <point x="85" y="952"/>
      <point x="153" y="883"/>
      <point x="230" y="880" type="curve"/>
    </contour>
    <contour>
      <point x="211" y="412" type="line"/>
      <point x="241" y="660" type="line" smooth="yes"/>
      <point x="249" y="730"/>
      <point x="254" y="764"/>
      <point x="258" y="828" type="curve"/>
      <point x="292" y="764"/>
      <point x="314" y="730"/>
      <point x="357" y="660" type="curve" smooth="yes"/>
      <point x="509" y="412" type="line"/>
    </contour>
    <contour>
      <point x="236" y="914" type="curve" smooth="yes"/>
      <point x="178" y="914"/>
      <point x="122" y="965"/>
      <point x="122" y="1028" type="curve" smooth="yes"/>
      <point x="122" y="1073"/>
      <point x="158" y="1112"/>
      <point x="206" y="1112" type="curve" smooth="yes"/>
      <point x="264" y="1112"/>
      <point x="320" y="1061"/>
      <point x="320" y="998" type="curve" smooth="yes"/>
      <point x="320" y="954"/>
      <point x="284" y="914"/>
    </contour>
  </outline>
</glyph>
<glyph name="AE" format="2">
  <advance width="1000"/>
  <unicode hex="00C6"/>
  <anchor x="431" y="0" name="bottom"/>
  <anchor x="422" y="900" name="top"/>
  <outline>
    <contour>
      <point x="120" y="0" type="line"/>
      <point x="161" y="0" type="line"/>
      <point x="207" y="374" type="line"/>
      <point x="499" y="374" type="line"/>
      <point x="701" y="0" type="line"/>
      <point x="1039" y="0" type="line"/>
      <point x="1020" y="40" type="line"/>
      <point x="728" y="40" type="line"/>
      <point x="458" y="536" type="line"/>
      <point x="720" y="536" type="line"/>
      <point x="701" y="574" type="line"/>
      <point x="436" y="574" type="line"/>
      <point x="281" y="860" type="line"/>
      <point x="623" y="860" type="line"/>
      <point x="604" y="900" type="line"/>
      <point x="231" y="900" type="line"/>
    </contour>
    <contour>
      <point x="210" y="412" type="line"/>
      <point x="240" y="660" type="line" smooth="yes"/>
      <point x="248" y="730"/>
      <point x="254" y="764"/>
      <point x="257" y="828" type="curve"/>
      <point x="288" y="764"/>
      <point x="306" y="730"/>
      <point x="344" y="660" type="curve" smooth="yes"/>
      <point x="478" y="412" type="line"/>
    </contour>
  </outline>
</glyph>
<glyph name="Ccedilla" format="2">
  <advance width="880"/>
  <unicode hex="00C7"/>
  <outline>
    <contour>
      <point x="384" y="-180" type="line"/>
      <point x="434" y="-180" type="line"/>
      <point x="548" y="-12" type="line"/>
      <point x="666" y="-9"/>
      <point x="773" y="44"/>
      <point x="848" y="135" type="curve"/>
      <point x="826" y="181" type="line"/>
      <point x="758" y="85"/>
      <point x="652" y="30"/>
      <point x="535" y="30" type="curve" smooth="yes"/>
      <point x="296" y="30"/>
      <point x="75" y="258"/>
      <point x="75" y="506" type="curve" smooth="yes"/>
      <point x="75" y="713"/>
      <point x="229" y="870"/>
      <point x="430" y="870" type="curve" smooth="yes"/>
      <point x="548" y="870"/>
      <point x="664" y="817"/>
      <point x="753" y="722" type="curve"/>
      <point x="753" y="781" type="line"/>
      <point x="662" y="865"/>
      <point x="546" y="912"/>
      <point x="430" y="912" type="curve" smooth="yes"/>
      <point x="204" y="912"/>
      <point x="29" y="734"/>
      <point x="29" y="505" type="curve" smooth="yes"/>
      <point x="29" y="246"/>
      <point x="256" y="6"/>
      <point x="510" y="-11" type="curve"/>
    </contour>
  </outline>
</glyph>
<glyph name="Eth" format="2">
  <advance width="990"/>
  <unicode hex="00D0"/>
  <outline>
    <contour>
      <point x="241" y="0" type="line"/>
      <point x="483" y="0" type="line" smooth="yes"/>
      <point x="711" y="0"/>
      <point x="886" y="172"/>
      <point x="886" y="395" type="curve" smooth="yes"/>
      <point x="886" y="657"/>
      <point x="642" y="900"/>
      <point x="378" y="900" type="curve" smooth="yes"/>
      <point x="16" y="900" type="line"/>
      <point x="116" y="499" type="line"/>
      <point x="10" y="499" type="line"/>
      <point x="20" y="461" type="line"/>
      <point x="126" y="461" type="line"/>
    </contour>
    <contour>
      <point x="275" y="40" type="line"/>
      <point x="170" y="461" type="line"/>
      <point x="500" y="461" type="line"/>
      <point x="490" y="499" type="line"/>
      <point x="160" y="499" type="line"/>
      <point x="70" y="860" type="line"/>
      <point x="368" y="860" type="line" smooth="yes"/>
      <point x="616" y="860"/>
      <point x="840" y="640"/>
      <point x="840" y="397" type="curve" smooth="yes"/>
      <point x="840" y="194"/>
      <point x="682" y="40"/>
      <point x="473" y="40" type="curve" smooth="yes"/>
    </contour>
  </outline>
</glyph>
<glyph name="multiply" format="2">
  <advance width="750"/>
  <unicode hex="00D7"/>
  <outline>
    <contour>
      <point x="167" y="192" type="line"/>
      <point x="339" y="422" type="line"/>
      <point x="629" y="192" type="line"/>
      <point x="650" y="222" type="line"/>
      <point x="363" y="453" type="line"/>
      <point x="535" y="681" type="line"/>
      <point x="505" y="708" type="line"/>
      <point x="332" y="477" type="line"/>
      <point x="41" y="708" type="line"/>
      <point x="20" y="678" type="line"/>
      <point x="309" y="446" type="line"/>
      <point x="137" y="219" type="line"/>
    </contour>
  </outline>
</glyph>
<glyph name="Oslash" format="2">
  <advance width="1040"/>
  <unicode hex="00D8"/>
  <anchor x="597" y="0" name="bottom"/>
  <anchor x="370" y="900" name="top"/>
  <outline>
    <contour>
      <point x="537" y="-12" type="curve" smooth="yes"/>
      <point x="760" y="-12"/>
      <point x="936" y="165"/>
      <point x="936" y="395" type="curve" smooth="yes"/>
      <point x="936" y="571"/>
      <point x="832" y="737"/>
      <point x="686" y="832" type="curve"/>
      <point x="747" y="959" type="line"/>
      <point x="713" y="976" type="line"/>
      <point x="653" y="851" type="line"/>
      <point x="584" y="890"/>
      <point x="506" y="912"/>
      <point x="427" y="912" type="curve" smooth="yes"/>
      <point x="205" y="912"/>
      <point x="29" y="736"/>
      <point x="29" y="506" type="curve" smooth="yes"/>
      <point x="29" y="329"/>
      <point x="134" y="162"/>
      <point x="280" y="68" type="curve"/>
      <point x="219" y="-59" type="line"/>
      <point x="253" y="-76" type="line"/>
      <point x="312" y="48" type="line"/>
      <point x="382" y="10"/>
      <point x="459" y="-12"/>
    </contour>
    <contour>
      <point x="298" y="106" type="line"/>
      <point x="168" y="193"/>
      <point x="75" y="344"/>
      <point x="75" y="504" type="curve" smooth="yes"/>
      <point x="75" y="712"/>
      <point x="232" y="870"/>
      <point x="430" y="870" type="curve" smooth="yes"/>
      <point x="502" y="870"/>
      <point x="572" y="849"/>
      <point x="635" y="814" type="curve"/>
    </contour>
    <contour>
      <point x="535" y="30" type="curve" smooth="yes"/>
      <point x="464" y="30"/>
      <point x="393" y="51"/>
      <point x="330" y="86" type="curve"/>
      <point x="668" y="793" type="line"/>
      <point x="798" y="706"/>
      <point x="890" y="555"/>
      <point x="890" y="394" type="curve" smooth="yes"/>
      <point x="890" y="186"/>
      <point x="735" y="30"/>
    </contour>
  </outline>
</glyph>
<glyph name="Thorn" format="2">
  <advance width="700"/>
  <unicode hex="00DE"/>
  <outline>
    <contour>
      <point x="211" y="0" type="line"/>
      <point x="255" y="0" type="line"/>
      <point x="198" y="228" type="line"/>
      <point x="318" y="228" type="line" smooth="yes"/>
      <point x="487" y="228"/>
      <point x="588" y="331"/>
      <point x="588" y="472" type="curve" smooth="yes"/>
      <point x="588" y="638"/>
      <point x="446" y="780"/>
      <point x="252" y="780" type="curve" smooth="yes"/>
      <point x="60" y="780" type="line"/>
      <point x="30" y="900" type="line"/>
      <point x="-14" y="900" type="line"/>
    </contour>
    <contour>
      <point x="188" y="266" type="line"/>
      <point x="69" y="742" type="line"/>
      <point x="249" y="742" type="line" smooth="yes"/>
      <point x="427" y="742"/>
      <point x="546" y="619"/>
      <point x="546" y="476" type="curve" smooth="yes"/>
      <point x="546" y="355"/>
      <point x="463" y="266"/>
      <point x="309" y="266" type="curve" smooth="yes"/>
    </contour>
  </outline>
</glyph>
<glyph name="germandbls" format="2">
  <advance width="710"/>
  <unicode hex="00DF"/>
  <outline>
    <contour>
      <point x="423" y="-6" type="line"/>
      <point x="549" y="33"/>
      <point x="629" y="140"/>
      <point x="629" y="272" type="curve" smooth="yes"/>
      <point x="629" y="427"/>
      <point x="515" y="559"/>
      <point x="334" y="613" type="curve"/>
      <point x="382" y="658"/>
      <point x="405" y="706"/>
      <point x="405" y="762" type="curve" smooth="yes"/>
      <point x="405" y="878"/>
      <point x="307" y="972"/>
      <point x="188" y="972" type="curve" smooth="yes"/>
      <point x="55" y="972"/>
      <point x="-30" y="855"/>
      <point x="4" y="719" type="curve" smooth="yes"/>
      <point x="184" y="0" type="line"/>
      <point x="226" y="0" type="line"/>
      <point x="46" y="720" type="line" smooth="yes"/>
      <point x="16" y="838"/>
      <point x="79" y="934"/>
      <point x="189" y="934" type="curve" smooth="yes"/>
      <point x="287" y="934"/>
      <point x="363" y="858"/>
      <point x="363" y="761" type="curve" smooth="yes"/>
      <point x="363" y="698"/>
      <point x="331" y="647"/>
      <point x="260" y="597" type="curve"/>
      <point x="260" y="595" type="line"/>
      <point x="462" y="556"/>
      <point x="587" y="432"/>
      <point x="587" y="273" type="curve" smooth="yes"/>
      <point x="587" y="154"/>
      <point x="519" y="65"/>
      <point x="404" y="31" type="curve"/>
    </contour>
  </outline>
</glyph>
<glyph name="ae" format="2">
  <advance width="1160"/>
  <unicode hex="00E6"/>
  <anchor x="598" y="0" name="bottom"/>
  <anchor x="543" y="570" name="top"/>
  <outline>
    <contour>
      <point x="326" y="-12" type="curve" smooth="yes"/>
      <point x="445" y="-12"/>
      <point x="542" y="55"/>
      <point x="580" y="157" type="curve"/>
      <point x="639" y="57"/>
      <point x="748" y="-12"/>
      <point x="869" y="-12" type="curve" smooth="yes"/>
      <point x="954" y="-12"/>
      <point x="1030" y="25"/>
      <point x="1080" y="89" type="curve"/>
      <point x="1059" y="134" type="line"/>
      <point x="1019" y="68"/>
      <point x="946" y="28"/>
      <point x="866" y="28" type="curve" smooth="yes"/>
      <point x="721" y="28"/>
      <point x="587" y="150"/>
      <point x="576" y="294" type="curve"/>
      <point x="601" y="292"/>
      <point x="629" y="291"/>
      <point x="656" y="291" type="curve" smooth="yes"/>
      <point x="1099" y="291" type="line"/>
      <point x="1098" y="300" type="line" smooth="yes"/>
      <point x="1080" y="460"/>
      <point x="945" y="582"/>
      <point x="790" y="582" type="curve" smooth="yes"/>
      <point x="677" y="582"/>
      <point x="588" y="517"/>
      <point x="551" y="420" type="curve"/>
      <point x="509" y="521"/>
      <point x="417" y="580"/>
      <point x="295" y="580" type="curve" smooth="yes"/>
      <point x="198" y="580"/>
      <point x="106" y="543"/>
      <point x="47" y="483" type="curve"/>
      <point x="69" y="442" type="line"/>
      <point x="120" y="504"/>
      <point x="202" y="540"/>
      <point x="296" y="540" type="curve" smooth="yes"/>
      <point x="420" y="540"/>
      <point x="503" y="476"/>
      <point x="535" y="347" type="curve"/>
      <point x="535" y="341"/>
      <point x="534" y="334"/>
      <point x="534" y="327" type="curve"/>
      <point x="486" y="343"/>
      <point x="419" y="354"/>
      <point x="351" y="354" type="curve" smooth="yes"/>
      <point x="193" y="354"/>
      <point x="95" y="286"/>
      <point x="95" y="179" type="curve" smooth="yes"/>
      <point x="95" y="68"/>
      <point x="192" y="-12"/>
    </contour>
    <contour>
      <point x="326" y="26" type="curve" smooth="yes"/>
      <point x="216" y="26"/>
      <point x="137" y="88"/>
      <point x="137" y="175" type="curve" smooth="yes"/>
      <point x="137" y="261"/>
      <point x="220" y="317"/>
      <point x="354" y="317" type="curve" smooth="yes"/>
      <point x="414" y="317"/>
      <point x="483" y="307"/>
      <point x="535" y="292" type="curve"/>
      <point x="555" y="209" type="line"/>
      <point x="541" y="109"/>
      <point x="449" y="26"/>
    </contour>
    <contour>
      <point x="576" y="324" type="curve"/>
      <point x="576" y="449"/>
      <point x="667" y="542"/>
      <point x="791" y="542" type="curve" smooth="yes"/>
      <point x="915" y="542"/>
      <point x="1028" y="446"/>
      <point x="1054" y="324" type="curve"/>
      <point x="1021" y="326"/>
      <point x="1001" y="327"/>
      <point x="975" y="327" type="curve" smooth="yes"/>
      <point x="652" y="327" type="line" smooth="yes"/>
      <point x="627" y="327"/>
      <point x="601" y="326"/>
    </contour>
  </outline>
</glyph>
<glyph name="ccedilla" format="2">
  <advance width="610"/>
  <unicode hex="00E7"/>
  <outline>
    <contour>
      <point x="245" y="-180" type="line"/>
      <point x="295" y="-180" type="line"/>
      <point x="409" y="-12" type="line"/>
      <point x="492" y="-9"/>
      <point x="564" y="29"/>
      <point x="610" y="89" type="curve"/>
      <point x="589" y="134" type="line"/>
      <point x="550" y="70"/>
      <point x="479" y="28"/>
      <point x="396" y="28" type="curve" smooth="yes"/>
      <point x="243" y="28"/>
      <point x="106" y="164"/>
      <point x="106" y="315" type="curve" smooth="yes"/>
      <point x="106" y="443"/>
      <point x="204" y="542"/>
      <point x="332" y="542" type="curve" smooth="yes"/>
      <point x="419" y="542"/>
      <point x="500" y="498"/>
      <point x="555" y="433" type="curve"/>
      <point x="555" y="490" type="line"/>
      <point x="494" y="546"/>
      <point x="413" y="582"/>
      <point x="328" y="582" type="curve" smooth="yes"/>
      <point x="179" y="582"/>
      <point x="64" y="468"/>
      <point x="64" y="319" type="curve" smooth="yes"/>
      <point x="64" y="154"/>
      <point x="206" y="5"/>
      <point x="371" y="-11" type="curve"/>
    </contour>
  </outline>
</glyph>
<glyph name="eth" format="2">
  <advance width="720"/>
  <unicode hex="00F0"/>
  <outline>
    <contour>
      <point x="409" y="-12" type="curve" smooth="yes"/>
      <point x="558" y="-12"/>
      <point x="664" y="94"/>
      <point x="664" y="245" type="curve" smooth="yes"/>
      <point x="664" y="356"/>
      <point x="606" y="472"/>
      <point x="488" y="596" type="curve" smooth="yes"/>
      <point x="441" y="645"/>
      <point x="360" y="722"/>
      <point x="257" y="815" type="curve"/>
      <point x="355" y="902" type="line"/>
      <point x="333" y="924" type="line"/>
      <point x="235" y="836" type="line"/>
      <point x="196" y="871"/>
      <point x="133" y="925"/>
      <point x="91" y="960" type="curve"/>
      <point x="40" y="960" type="line"/>
      <point x="83" y="924"/>
      <point x="159" y="857"/>
      <point x="207" y="812" type="curve"/>
      <point x="95" y="712" type="line"/>
      <point x="116" y="689" type="line"/>
      <point x="229" y="790" type="line"/>
      <point x="357" y="678"/>
      <point x="458" y="581"/>
      <point x="516" y="514" type="curve"/>
      <point x="458" y="557"/>
      <point x="387" y="582"/>
      <point x="318" y="582" type="curve" smooth="yes"/>
      <point x="171" y="582"/>
      <point x="62" y="474"/>
      <point x="62" y="327" type="curve" smooth="yes"/>
      <point x="62" y="149"/>
      <point x="226" y="-12"/>
    </contour>
    <contour>
      <point x="402" y="28" type="curve" smooth="yes"/>
      <point x="245" y="28"/>
      <point x="104" y="167"/>
      <point x="104" y="321" type="curve" smooth="yes"/>
      <point x="104" y="448"/>
      <point x="197" y="542"/>
      <point x="324" y="542" type="curve" smooth="yes"/>
      <point x="482" y="542"/>
      <point x="622" y="404"/>
      <point x="622" y="249" type="curve" smooth="yes"/>
      <point x="622" y="121"/>
      <point x="529" y="28"/>
    </contour>
  </outline>
</glyph>
<glyph name="divide" format="2">
  <advance width="750"/>
  <unicode hex="00F7"/>
  <outline>
    <contour>
      <point x="37" y="432" type="line"/>
      <point x="647" y="432" type="line"/>
      <point x="639" y="468" type="line"/>
      <point x="29" y="468" type="line"/>
    </contour>
    <contour>
      <point x="394" y="201" type="curve" smooth="yes"/>
      <point x="414" y="201"/>
      <point x="429" y="218"/>
      <point x="429" y="235" type="curve" smooth="yes"/>
      <point x="429" y="259"/>
      <point x="409" y="279"/>
      <point x="386" y="279" type="curve" smooth="yes"/>
      <point x="368" y="279"/>
      <point x="351" y="265"/>
      <point x="351" y="244" type="curve" smooth="yes"/>
      <point x="351" y="221"/>
      <point x="371" y="201"/>
    </contour>
    <contour>
      <point x="289" y="621" type="curve" smooth="yes"/>
      <point x="309" y="621"/>
      <point x="324" y="638"/>
      <point x="324" y="655" type="curve" smooth="yes"/>
      <point x="324" y="679"/>
      <point x="304" y="699"/>
      <point x="281" y="699" type="curve" smooth="yes"/>
      <point x="263" y="699"/>
      <point x="246" y="685"/>
      <point x="246" y="664" type="curve" smooth="yes"/>
      <point x="246" y="641"/>
      <point x="266" y="621"/>
    </contour>
  </outline>
</glyph>
<glyph name="oslash" format="2">
  <advance width="720"/>
  <unicode hex="00F8"/>
  <anchor x="293" y="570" name="top"/>
  <outline>
    <contour>
      <point x="400" y="-12" type="curve" smooth="yes"/>
      <point x="549" y="-12"/>
      <point x="664" y="102"/>
      <point x="664" y="251" type="curve" smooth="yes"/>
      <point x="664" y="358"/>
      <point x="605" y="457"/>
      <point x="519" y="519" type="curve"/>
      <point x="552" y="575" type="line"/>
      <point x="521" y="594" type="line"/>
      <point x="488" y="539" type="line"/>
      <point x="439" y="566"/>
      <point x="385" y="582"/>
      <point x="328" y="582" type="curve" smooth="yes"/>
      <point x="179" y="582"/>
      <point x="64" y="468"/>
      <point x="64" y="319" type="curve" smooth="yes"/>
      <point x="64" y="217"/>
      <point x="118" y="121"/>
      <point x="198" y="59" type="curve"/>
      <point x="160" y="-5" type="line"/>
      <point x="191" y="-24" type="line"/>
      <point x="229" y="38" type="line"/>
      <point x="280" y="7"/>
      <point x="339" y="-12"/>
    </contour>
    <contour>
      <point x="218" y="93" type="line"/>
      <point x="151" y="147"/>
      <point x="106" y="228"/>
      <point x="106" y="315" type="curve" smooth="yes"/>
      <point x="106" y="443"/>
      <point x="204" y="542"/>
      <point x="332" y="542" type="curve" smooth="yes"/>
      <point x="380" y="542"/>
      <point x="426" y="529"/>
      <point x="468" y="506" type="curve"/>
    </contour>
    <contour>
      <point x="396" y="28" type="curve" smooth="yes"/>
      <point x="343" y="28"/>
      <point x="293" y="44"/>
      <point x="249" y="71" type="curve"/>
      <point x="499" y="486" type="line"/>
      <point x="572" y="432"/>
      <point x="622" y="346"/>
      <point x="622" y="255" type="curve" smooth="yes"/>
      <point x="622" y="127"/>
      <point x="524" y="28"/>
    </contour>
  </outline>
</glyph>
<glyph name="thorn" format="2">
  <advance width="740"/>
  <unicode hex="00FE"/>
  <outline>
    <contour>
      <point x="256" y="-300" type="line"/>
      <point x="298" y="-300" type="line"/>
      <point x="197" y="102" type="line"/>
      <point x="252" y="35"/>
      <point x="341" y="-8"/>
      <point x="428" y="-8" type="curve" smooth="yes"/>
      <point x="573" y="-8"/>
      <point x="683" y="102"/>
      <point x="683" y="248" type="curve" smooth="yes"/>
      <point x="683" y="422"/>
      <point x="528" y="578"/>
      <point x="355" y="578" type="curve" smooth="yes"/>
      <point x="246" y="578"/>
      <point x="154" y="514"/>
      <point x="118" y="414" type="curve"/>
      <point x="-17" y="960" type="line"/>
      <point x="-59" y="960" type="line"/>
    </contour>
    <contour>
      <point x="422" y="32" type="curve" smooth="yes"/>
      <point x="272" y="32"/>
      <point x="142" y="171"/>
      <point x="142" y="323" type="curve" smooth="yes"/>
      <point x="142" y="447"/>
      <point x="232" y="538"/>
      <point x="356" y="538" type="curve" smooth="yes"/>
      <point x="506" y="538"/>
      <point x="641" y="404"/>
      <point x="641" y="254" type="curve" smooth="yes"/>
      <point x="641" y="129"/>
      <point x="545" y="32"/>
    </contour>
  </outline>
</glyph>
<glyph name="Aogonek" format="2">
  <advance width="780"/>
  <unicode hex="0104"/>
  <outline>
    <contour>
      <point x="879" y="-282" type="curve"/>
      <point x="879" y="-244" type="line"/>
      <point x="803" y="-244"/>
      <point x="746" y="-193"/>
      <point x="746" y="-125" type="curve" smooth="yes"/>
      <point x="746" y="-76"/>
      <point x="765" y="-38"/>
      <point x="810" y="0" type="curve"/>
      <point x="238" y="930" type="line"/>
      <point x="236" y="930" type="line"/>
      <point x="120" y="0" type="line"/>
      <point x="161" y="0" type="line"/>
      <point x="207" y="374" type="line"/>
      <point x="531" y="374" type="line"/>
      <point x="763" y="-3" type="line"/>
      <point x="723" y="-42"/>
      <point x="706" y="-82"/>
      <point x="706" y="-127" type="curve" smooth="yes"/>
      <point x="706" y="-215"/>
      <point x="778" y="-280"/>
    </contour>
    <contour>
      <point x="211" y="412" type="line"/>
      <point x="241" y="660" type="line" smooth="yes"/>
      <point x="249" y="730"/>
      <point x="254" y="764"/>
      <point x="258" y="828" type="curve"/>
      <point x="292" y="764"/>
      <point x="314" y="730"/>
      <point x="357" y="660" type="curve" smooth="yes"/>
      <point x="509" y="412" type="line"/>
    </contour>
  </outline>
</glyph>
<glyph name="Eogonek" format="2">
  <advance width="600"/>
  <unicode hex="0118"/>
  <anchor x="185" y="900" name="top"/>
  <outline>
    <contour>
      <point x="695" y="-282" type="curve"/>
      <point x="695" y="-244" type="line"/>
      <point x="616" y="-244"/>
      <point x="562" y="-191"/>
      <point x="562" y="-114" type="curve" smooth="yes"/>
      <point x="562" y="-77"/>
      <point x="576" y="-40"/>
      <point x="606" y="0" type="curve"/>
      <point x="596" y="40" type="line"/>
      <point x="245" y="40" type="line"/>
      <point x="121" y="536" type="line"/>
      <point x="404" y="536" type="line"/>
      <point x="394" y="574" type="line"/>
      <point x="112" y="574" type="line"/>
      <point x="40" y="860" type="line"/>
      <point x="394" y="860" type="line"/>
      <point x="384" y="900" type="line"/>
      <point x="-14" y="900" type="line"/>
      <point x="211" y="0" type="line"/>
      <point x="564" y="0" type="line"/>
      <point x="536" y="-42"/>
      <point x="522" y="-82"/>
      <point x="522" y="-122" type="curve" smooth="yes"/>
      <point x="522" y="-214"/>
      <point x="593" y="-280"/>
    </contour>
  </outline>
</glyph>
<glyph name="eogonek" format="2">
  <advance width="690"/>
  <unicode hex="0119"/>
  <anchor x="321" y="570" name="top"/>
  <outline>
    <contour>
      <point x="628" y="-282" type="curve"/>
      <point x="628" y="-244" type="line"/>
      <point x="549" y="-244"/>
      <point x="495" y="-191"/>
      <point x="495" y="-114" type="curve" smooth="yes"/>
      <point x="495" y="-39"/>
      <point x="548" y="22"/>
      <point x="610" y="89" type="curve"/>
      <point x="589" y="134" type="line"/>
      <point x="549" y="68"/>
      <point x="476" y="28"/>
      <point x="396" y="28" type="curve" smooth="yes"/>
      <point x="251" y="28"/>
      <point x="117" y="150"/>
      <point x="106" y="294" type="curve"/>
      <point x="131" y="292"/>
      <point x="159" y="291"/>
      <point x="186" y="291" type="curve" smooth="yes"/>
      <point x="629" y="291" type="line"/>
      <point x="628" y="300" type="line" smooth="yes"/>
      <point x="610" y="460"/>
      <point x="475" y="582"/>
      <point x="320" y="582" type="curve" smooth="yes"/>
      <point x="172" y="582"/>
      <point x="64" y="470"/>
      <point x="64" y="321" type="curve" smooth="yes"/>
      <point x="64" y="142"/>
      <point x="220" y="-12"/>
      <point x="399" y="-12" type="curve" smooth="yes"/>
      <point x="438" y="-12"/>
      <point x="471" y="-5"/>
      <point x="507" y="7" type="curve"/>
      <point x="469" y="-42"/>
      <point x="455" y="-82"/>
      <point x="455" y="-122" type="curve" smooth="yes"/>
      <point x="455" y="-214"/>
      <point x="526" y="-280"/>
    </contour>
    <contour>
      <point x="106" y="324" type="curve"/>
      <point x="106" y="449"/>
      <point x="197" y="542"/>
      <point x="321" y="542" type="curve" smooth="yes"/>
      <point x="445" y="542"/>
      <point x="558" y="446"/>
      <point x="584" y="324" type="curve"/>
      <point x="551" y="326"/>
      <point x="531" y="327"/>
      <point x="505" y="327" type="curve" smooth="yes"/>
      <point x="182" y="327" type="line" smooth="yes"/>
      <point x="157" y="327"/>
      <point x="131" y="326"/>
    </contour>
  </outline>
</glyph>
<glyph name="Hbar" format="2">
  <advance width="760"/>
  <unicode hex="0126"/>
  <outline>
    <contour>
      <point x="211" y="0" type="line"/>
      <point x="255" y="0" type="line"/>
      <point x="121" y="535" type="line"/>
      <point x="521" y="535" type="line"/>
      <point x="655" y="0" type="line"/>
      <point x="699" y="0" type="line"/>
      <point x="516" y="732" type="line"/>
      <point x="612" y="732" type="line"/>
      <point x="604" y="768" type="line"/>
      <point x="507" y="768" type="line"/>
      <point x="474" y="900" type="line"/>
      <point x="430" y="900" type="line"/>
      <point x="463" y="768" type="line"/>
      <point x="63" y="768" type="line"/>
      <point x="30" y="900" type="line"/>
      <point x="-14" y="900" type="line"/>
      <point x="19" y="768" type="line"/>
      <point x="-76" y="768" type="line"/>
      <point x="-68" y="732" type="line"/>
      <point x="28" y="732" type="line"/>
    </contour>
    <contour>
      <point x="111" y="575" type="line"/>
      <point x="72" y="732" type="line"/>
      <point x="472" y="732" type="line"/>
      <point x="511" y="575" type="line"/>
    </contour>
  </outline>
</glyph>
<glyph name="hbar" format="2">
  <advance width="700"/>
  <unicode hex="0127"/>
  <outline>
    <contour>
      <point x="184" y="0" type="line"/>
      <point x="226" y="0" type="line"/>
      <point x="151" y="296" type="line" smooth="yes"/>
      <point x="117" y="432"/>
      <point x="197" y="542"/>
      <point x="323" y="542" type="curve" smooth="yes"/>
      <point x="428" y="542"/>
      <point x="518" y="467"/>
      <point x="549" y="343" type="curve" smooth="yes"/>
      <point x="636" y="0" type="line"/>
      <point x="678" y="0" type="line"/>
      <point x="588" y="354" type="line" smooth="yes"/>
      <point x="553" y="492"/>
      <point x="448" y="582"/>
      <point x="321" y="582" type="curve" smooth="yes"/>
      <point x="218" y="582"/>
      <point x="142" y="522"/>
      <point x="118" y="428" type="curve"/>
      <point x="35" y="763" type="line"/>
      <point x="256" y="763" type="line"/>
      <point x="248" y="797" type="line"/>
      <point x="26" y="797" type="line"/>
      <point x="-14" y="960" type="line"/>
      <point x="-56" y="960" type="line"/>
      <point x="-15" y="797" type="line"/>
      <point x="-96" y="797" type="line"/>
      <point x="-88" y="763" type="line"/>
      <point x="-7" y="763" type="line"/>
    </contour>
  </outline>
</glyph>
<glyph name="Iogonek" format="2">
  <advance width="340"/>
  <unicode hex="012E"/>
  <outline>
    <contour>
      <point x="344" y="-282" type="curve"/>
      <point x="344" y="-244" type="line"/>
      <point x="265" y="-244"/>
      <point x="211" y="-191"/>
      <point x="211" y="-114" type="curve" smooth="yes"/>
      <point x="211" y="-77"/>
      <point x="225" y="-40"/>
      <point x="256" y="0" type="curve"/>
      <point x="31" y="900" type="line"/>
      <point x="-13" y="900" type="line"/>
      <point x="212" y="0" type="line"/>
      <point x="185" y="-42"/>
      <point x="171" y="-82"/>
      <point x="171" y="-122" type="curve" smooth="yes"/>
      <point x="171" y="-214"/>
      <point x="242" y="-280"/>
    </contour>
  </outline>
</glyph>
<glyph name="idotless" format="2">
  <advance width="260"/>
  <unicode hex="0131"/>
  <anchor x="205" y="0" name="bottom"/>
  <anchor x="205" y="0" name="ogonek"/>
  <anchor x="63" y="570" name="top"/>
  <outline>
    <contour>
      <point x="184" y="0" type="line"/>
      <point x="226" y="0" type="line"/>
      <point x="84" y="570" type="line"/>
      <point x="42" y="570" type="line"/>
    </contour>
  </outline>
</glyph>
<glyph name="kgreenlandic" format="2">
  <advance width="590"/>
  <unicode hex="0138"/>
  <anchor x="370" y="0" name="bottom"/>
  <anchor x="230" y="570" name="top"/>
  <outline>
    <contour>
      <point x="546" y="0" type="line"/>
      <point x="608" y="0" type="line"/>
      <point x="242" y="299" type="line"/>
      <point x="447" y="570" type="line"/>
      <point x="399" y="570" type="line"/>
      <point x="189" y="293" type="line"/>
    </contour>
    <contour>
      <point x="184" y="0" type="line"/>
      <point x="226" y="0" type="line"/>
      <point x="84" y="570" type="line"/>
      <point x="42" y="570" type="line"/>
    </contour>
  </outline>
</glyph>
<glyph name="Lslash" format="2">
  <advance width="610"/>
  <unicode hex="0141"/>
  <outline>
    <contour>
      <point x="241" y="0" type="line"/>
      <point x="631" y="0" type="line"/>
      <point x="621" y="40" type="line"/>
      <point x="275" y="40" type="line"/>
      <point x="174" y="446" type="line"/>
      <point x="387" y="613" type="line"/>
      <point x="366" y="641" type="line"/>
      <point x="165" y="482" type="line"/>
      <point x="60" y="900" type="line"/>
      <point x="16" y="900" type="line"/>
      <point x="128" y="453" type="line"/>
      <point x="14" y="363" type="line"/>
      <point x="34" y="336" type="line"/>
      <point x="137" y="417" type="line"/>
    </contour>
  </outline>
</glyph>
<glyph name="lslash" format="2">
  <advance width="320"/>
  <unicode hex="0142"/>
  <outline>
    <contour>
      <point x="214" y="0" type="line"/>
      <point x="256" y="0" type="line"/>
      <point x="137" y="478" type="line"/>
      <point x="251" y="567" type="line"/>
      <point x="232" y="595" type="line"/>
      <point x="128" y="514" type="line"/>
      <point x="16" y="960" type="line"/>
      <point x="-26" y="960" type="line"/>
      <point x="92" y="486" type="line"/>
      <point x="-27" y="393" type="line"/>
      <point x="-8" y="365" type="line"/>
      <point x="101" y="450" type="line"/>
    </contour>
  </outline>
</glyph>
<glyph name="Eng" format="2">
  <advance width="970"/>
  <unicode hex="014A"/>
  <anchor x="560" y="0" name="bottom"/>
  <anchor x="335" y="900" name="top"/>
  <outline>
    <contour>
      <point x="698" y="-192" type="curve" smooth="yes"/>
      <point x="851" y="-192"/>
      <point x="930" y="-80"/>
      <point x="890" y="80" type="curve" smooth="yes"/>
      <point x="685" y="900" type="line"/>
      <point x="643" y="900" type="line"/>
      <point x="828" y="158" type="line"/>
      <point x="-19" y="930" type="line"/>
      <point x="-21" y="930" type="line"/>
      <point x="211" y="0" type="line"/>
      <point x="253" y="0" type="line"/>
      <point x="52" y="805" type="line"/>
      <point x="845" y="87" type="line"/>
      <point x="850" y="69" type="line" smooth="yes"/>
      <point x="886" y="-62"/>
      <point x="823" y="-152"/>
      <point x="691" y="-152" type="curve" smooth="yes"/>
      <point x="642" y="-152"/>
      <point x="597" y="-133"/>
      <point x="554" y="-93" type="curve"/>
      <point x="554" y="-147" type="line"/>
      <point x="595" y="-176"/>
      <point x="646" y="-192"/>
    </contour>
  </outline>
</glyph>
<glyph name="eng" format="2">
  <advance width="700"/>
  <unicode hex="014B"/>
  <outline>
    <contour>
      <point x="618" y="-312" type="line"/>
      <point x="694" y="-303"/>
      <point x="738" y="-239"/>
      <point x="712" y="-136" type="curve" smooth="yes"/>
      <point x="588" y="354" type="line" smooth="yes"/>
      <point x="553" y="492"/>
      <point x="448" y="582"/>
      <point x="321" y="582" type="curve" smooth="yes"/>
      <point x="216" y="582"/>
      <point x="138" y="519"/>
      <point x="116" y="421" type="curve"/>
      <point x="79" y="570" type="line"/>
      <point x="41" y="570" type="line"/>
      <point x="184" y="0" type="line"/>
      <point x="226" y="0" type="line"/>
      <point x="151" y="296" type="line" smooth="yes"/>
      <point x="117" y="432"/>
      <point x="197" y="542"/>
      <point x="323" y="542" type="curve" smooth="yes"/>
      <point x="428" y="542"/>
      <point x="517" y="467"/>
      <point x="549" y="343" type="curve" smooth="yes"/>
      <point x="672" y="-140" type="line" smooth="yes"/>
      <point x="696" y="-236"/>
      <point x="651" y="-269"/>
      <point x="599" y="-276" type="curve"/>
    </contour>
  </outline>
</glyph>
<glyph name="OE" format="2">
  <advance width="1380"/>
  <unicode hex="0152"/>
  <anchor x="670" y="0" name="bottom"/>
  <anchor x="836" y="900" name="top"/>
  <outline>
    <contour>
      <point x="531" y="-12" type="curve" smooth="yes"/>
      <point x="720" y="-12"/>
      <point x="876" y="120"/>
      <point x="915" y="304" type="curve"/>
      <point x="991" y="0" type="line"/>
      <point x="1386" y="0" type="line"/>
      <point x="1376" y="40" type="line"/>
      <point x="1025" y="40" type="line"/>
      <point x="901" y="536" type="line"/>
      <point x="1184" y="536" type="line"/>
      <point x="1174" y="574" type="line"/>
      <point x="892" y="574" type="line"/>
      <point x="820" y="860" type="line"/>
      <point x="1174" y="860" type="line"/>
      <point x="1164" y="900" type="line"/>
      <point x="766" y="900" type="line"/>
      <point x="816" y="701" type="line"/>
      <point x="721" y="827"/>
      <point x="575" y="912"/>
      <point x="423" y="912" type="curve" smooth="yes"/>
      <point x="203" y="912"/>
      <point x="29" y="735"/>
      <point x="29" y="505" type="curve" smooth="yes"/>
      <point x="29" y="235"/>
      <point x="271" y="-12"/>
    </contour>
    <contour>
      <point x="530" y="30" type="curve" smooth="yes"/>
      <point x="295" y="30"/>
      <point x="75" y="257"/>
      <point x="75" y="506" type="curve" smooth="yes"/>
      <point x="75" y="714"/>
      <point x="228" y="870"/>
      <point x="427" y="870" type="curve" smooth="yes"/>
      <point x="661" y="870"/>
      <point x="882" y="644"/>
      <point x="882" y="396" type="curve" smooth="yes"/>
      <point x="882" y="188"/>
      <point x="727" y="30"/>
    </contour>
  </outline>
</glyph>
<glyph name="oe" format="2">
  <advance width="1250"/>
  <unicode hex="0153"/>
  <anchor x="612" y="0" name="bottom"/>
  <anchor x="675" y="570" name="top"/>
  <outline>
    <contour>
      <point x="400" y="-12" type="curve" smooth="yes"/>
      <point x="526" y="-12"/>
      <point x="627" y="69"/>
      <point x="656" y="183" type="curve"/>
      <point x="710" y="70"/>
      <point x="829" y="-12"/>
      <point x="959" y="-12" type="curve" smooth="yes"/>
      <point x="1044" y="-12"/>
      <point x="1120" y="25"/>
      <point x="1170" y="89" type="curve"/>
      <point x="1149" y="134" type="line"/>
      <point x="1109" y="68"/>
      <point x="1036" y="28"/>
      <point x="956" y="28" type="curve" smooth="yes"/>
      <point x="807" y="28"/>
      <point x="673" y="150"/>
      <point x="662" y="294" type="curve"/>
      <point x="687" y="292"/>
      <point x="715" y="291"/>
      <point x="742" y="291" type="curve" smooth="yes"/>
      <point x="1189" y="291" type="line"/>
      <point x="1188" y="300" type="line" smooth="yes"/>
      <point x="1170" y="460"/>
      <point x="1035" y="582"/>
      <point x="880" y="582" type="curve" smooth="yes"/>
      <point x="755" y="582"/>
      <point x="658" y="502"/>
      <point x="631" y="387" type="curve"/>
      <point x="576" y="499"/>
      <point x="457" y="582"/>
      <point x="328" y="582" type="curve" smooth="yes"/>
      <point x="179" y="582"/>
      <point x="64" y="468"/>
      <point x="64" y="319" type="curve" smooth="yes"/>
      <point x="64" y="144"/>
      <point x="223" y="-12"/>
    </contour>
    <contour>
      <point x="396" y="28" type="curve" smooth="yes"/>
      <point x="243" y="28"/>
      <point x="106" y="164"/>
      <point x="106" y="315" type="curve" smooth="yes"/>
      <point x="106" y="443"/>
      <point x="204" y="542"/>
      <point x="332" y="542" type="curve" smooth="yes"/>
      <point x="489" y="542"/>
      <point x="626" y="406"/>
      <point x="626" y="255" type="curve" smooth="yes"/>
      <point x="626" y="127"/>
      <point x="528" y="28"/>
    </contour>
    <contour>
      <point x="662" y="324" type="curve"/>
      <point x="662" y="449"/>
      <point x="753" y="542"/>
      <point x="881" y="542" type="curve" smooth="yes"/>
      <point x="1005" y="542"/>
      <point x="1118" y="446"/>
      <point x="1144" y="324" type="curve"/>
      <point x="1111" y="326"/>
      <point x="1091" y="327"/>
      <point x="1065" y="327" type="curve" smooth="yes"/>
      <point x="738" y="327" type="line" smooth="yes"/>
      <point x="713" y="327"/>
      <point x="687" y="326"/>
    </contour>
  </outline>
</glyph>
<glyph name="Scedilla" format="2">
  <advance width="640"/>
  <unicode hex="015E"/>
  <outline>
    <contour>
      <point x="242" y="-180" type="line"/>
      <point x="292" y="-180" type="line"/>
      <point x="411" y="-4" type="line"/>
      <point x="515" y="21"/>
      <point x="586" y="104"/>
      <point x="586" y="210" type="curve" smooth="yes"/>
      <point x="586" y="330"/>
      <point x="497" y="431"/>
      <point x="350" y="480" type="curve" smooth="yes"/>
      <point x="217" y="524" type="line" smooth="yes"/>
      <point x="106" y="561"/>
      <point x="43" y="632"/>
      <point x="43" y="718" type="curve" smooth="yes"/>
      <point x="43" y="809"/>
      <point x="113" y="873"/>
      <point x="213" y="873" type="curve" smooth="yes"/>
      <point x="275" y="873"/>
      <point x="338" y="849"/>
      <point x="391" y="804" type="curve"/>
      <point x="390" y="858" type="line"/>
      <point x="333" y="895"/>
      <point x="271" y="912"/>
      <point x="213" y="912" type="curve" smooth="yes"/>
      <point x="91" y="912"/>
      <point x="1" y="830"/>
      <point x="1" y="719" type="curve" smooth="yes"/>
      <point x="1" y="616"/>
      <point x="78" y="528"/>
      <point x="207" y="484" type="curve" smooth="yes"/>
      <point x="340" y="439" type="line" smooth="yes"/>
      <point x="470" y="395"/>
      <point x="544" y="312"/>
      <point x="544" y="210" type="curve" smooth="yes"/>
      <point x="544" y="103"/>
      <point x="460" y="27"/>
      <point x="342" y="27" type="curve" smooth="yes"/>
      <point x="269" y="27"/>
      <point x="196" y="57"/>
      <point x="131" y="115" type="curve"/>
      <point x="131" y="61" type="line"/>
      <point x="199" y="11"/>
      <point x="285" y="-15"/>
      <point x="368" y="-11" type="curve"/>
    </contour>
  </outline>
</glyph>
<glyph name="scedilla" format="2">
  <advance width="490"/>
  <unicode hex="015F"/>
  <outline>
    <contour>
      <point x="138" y="-180" type="line"/>
      <point x="188" y="-180" type="line"/>
      <point x="302" y="-12" type="line"/>
      <point x="394" y="-7"/>
      <point x="456" y="51"/>
      <point x="456" y="136" type="curve" smooth="yes"/>
      <point x="456" y="216"/>
      <point x="402" y="273"/>
      <point x="295" y="306" type="curve" smooth="yes"/>
      <point x="207" y="333" type="line" smooth="yes"/>
      <point x="137" y="355"/>
      <point x="99" y="395"/>
      <point x="99" y="449" type="curve" smooth="yes"/>
      <point x="99" y="506"/>
      <point x="142" y="545"/>
      <point x="207" y="545" type="curve" smooth="yes"/>
      <point x="254" y="545"/>
      <point x="299" y="525"/>
      <point x="335" y="488" type="curve"/>
      <point x="335" y="542" type="line"/>
      <point x="295" y="568"/>
      <point x="250" y="582"/>
      <point x="205" y="582" type="curve" smooth="yes"/>
      <point x="118" y="582"/>
      <point x="58" y="527"/>
      <point x="58" y="449" type="curve" smooth="yes"/>
      <point x="58" y="376"/>
      <point x="108" y="321"/>
      <point x="200" y="293" type="curve" smooth="yes"/>
      <point x="288" y="266" type="line" smooth="yes"/>
      <point x="371" y="241"/>
      <point x="415" y="194"/>
      <point x="415" y="133" type="curve" smooth="yes"/>
      <point x="415" y="68"/>
      <point x="366" y="25"/>
      <point x="292" y="25" type="curve" smooth="yes"/>
      <point x="238" y="25"/>
      <point x="184" y="49"/>
      <point x="136" y="93" type="curve"/>
      <point x="136" y="39" type="line"/>
      <point x="177" y="11"/>
      <point x="220" y="-6"/>
      <point x="264" y="-11" type="curve"/>
    </contour>
  </outline>
</glyph>
<glyph name="Tcedilla" format="2">
  <advance width="670"/>
  <unicode hex="0162"/>
  <outline>
    <contour>
      <point x="257" y="-180" type="line"/>
      <point x="307" y="-180" type="line"/>
      <point x="432" y="0" type="line"/>
      <point x="217" y="860" type="line"/>
      <point x="476" y="860" type="line"/>
      <point x="466" y="900" type="line"/>
      <point x="-96" y="900" type="line"/>
      <point x="-86" y="860" type="line"/>
      <point x="173" y="860" type="line"/>
      <point x="388" y="0" type="line"/>
    </contour>
  </outline>
</glyph>
<glyph name="tcedilla" format="2">
  <advance width="450"/>
  <unicode hex="0163"/>
  <outline>
    <contour>
      <point x="132" y="-180" type="line"/>
      <point x="182" y="-180" type="line"/>
      <point x="306" y="0" type="line"/>
      <point x="172" y="534" type="line"/>
      <point x="354" y="534" type="line"/>
      <point x="345" y="570" type="line"/>
      <point x="163" y="570" type="line"/>
      <point x="105" y="800" type="line"/>
      <point x="63" y="800" type="line"/>
      <point x="121" y="570" type="line"/>
      <point x="-33" y="570" type="line"/>
      <point x="-24" y="534" type="line"/>
      <point x="130" y="534" type="line"/>
      <point x="264" y="0" type="line"/>
    </contour>
  </outline>
</glyph>
<glyph name="Tbar" format="2">
  <advance width="670"/>
  <unicode hex="0166"/>
  <outline>
    <contour>
      <point x="388" y="0" type="line"/>
      <point x="432" y="0" type="line"/>
      <point x="316" y="462" type="line"/>
      <point x="510" y="462" type="line"/>
      <point x="502" y="498" type="line"/>
      <point x="307" y="498" type="line"/>
      <point x="217" y="860" type="line"/>
      <point x="476" y="860" type="line"/>
      <point x="466" y="900" type="line"/>
      <point x="-96" y="900" type="line"/>
      <point x="-86" y="860" type="line"/>
      <point x="173" y="860" type="line"/>
      <point x="263" y="498" type="line"/>
      <point x="70" y="498" type="line"/>
      <point x="78" y="462" type="line"/>
      <point x="272" y="462" type="line"/>
    </contour>
  </outline>
</glyph>
<glyph name="tbar" format="2">
  <advance width="450"/>
  <unicode hex="0167"/>
  <outline>
    <contour>
      <point x="264" y="0" type="line"/>
      <point x="306" y="0" type="line"/>
      <point x="239" y="268" type="line"/>
      <point x="417" y="268" type="line"/>
      <point x="408" y="302" type="line"/>
      <point x="230" y="302" type="line"/>
      <point x="172" y="534" type="line"/>
      <point x="356" y="534" type="line"/>
      <point x="347" y="570" type="line"/>
      <point x="163" y="570" type="line"/>
      <point x="105" y="800" type="line"/>
      <point x="63" y="800" type="line"/>
      <point x="121" y="570" type="line"/>
      <point x="-31" y="570" type="line"/>
      <point x="-22" y="534" type="line"/>
      <point x="130" y="534" type="line"/>
      <point x="188" y="302" type="line"/>
      <point x="49" y="302" type="line"/>
      <point x="58" y="268" type="line"/>
      <point x="197" y="268" type="line"/>
    </contour>
  </outline>
</glyph>
<glyph name="Uogonek" format="2">
  <advance width="760"/>
  <unicode hex="0172"/>
  <outline>
    <contour>
      <point x="551" y="-282" type="curve"/>
      <point x="551" y="-244" type="line"/>
      <point x="472" y="-244"/>
      <point x="418" y="-191"/>
      <point x="418" y="-114" type="curve" smooth="yes"/>
      <point x="418" y="-79"/>
      <point x="430" y="-44"/>
      <point x="457" y="-7" type="curve"/>
      <point x="620" y="11"/>
      <point x="688" y="150"/>
      <point x="649" y="308" type="curve" smooth="yes"/>
      <point x="501" y="900" type="line"/>
      <point x="459" y="900" type="line"/>
      <point x="607" y="308" type="line" smooth="yes"/>
      <point x="645" y="156"/>
      <point x="587" y="30"/>
      <point x="421" y="30" type="curve" smooth="yes"/>
      <point x="293" y="30"/>
      <point x="202" y="104"/>
      <point x="166" y="248" type="curve" smooth="yes"/>
      <point x="3" y="900" type="line"/>
      <point x="-41" y="900" type="line"/>
      <point x="122" y="248" type="line" smooth="yes"/>
      <point x="163" y="83"/>
      <point x="269" y="-7"/>
      <point x="414" y="-9" type="curve"/>
      <point x="390" y="-48"/>
      <point x="378" y="-85"/>
      <point x="378" y="-122" type="curve" smooth="yes"/>
      <point x="378" y="-214"/>
      <point x="449" y="-280"/>
    </contour>
  </outline>
</glyph>
<glyph name="uogonek" format="2">
  <advance width="700"/>
  <unicode hex="0173"/>
  <outline>
    <contour>
      <point x="756" y="-282" type="curve"/>
      <point x="756" y="-244" type="line"/>
      <point x="677" y="-244"/>
      <point x="623" y="-191"/>
      <point x="623" y="-114" type="curve" smooth="yes"/>
      <point x="623" y="-77"/>
      <point x="637" y="-40"/>
      <point x="665" y="0" type="curve"/>
      <point x="522" y="570" type="line"/>
      <point x="480" y="570" type="line"/>
      <point x="555" y="274" type="line" smooth="yes"/>
      <point x="589" y="138"/>
      <point x="509" y="28"/>
      <point x="383" y="28" type="curve" smooth="yes"/>
      <point x="278" y="28"/>
      <point x="188" y="103"/>
      <point x="157" y="227" type="curve" smooth="yes"/>
      <point x="70" y="570" type="line"/>
      <point x="28" y="570" type="line"/>
      <point x="118" y="216" type="line" smooth="yes"/>
      <point x="153" y="78"/>
      <point x="258" y="-12"/>
      <point x="385" y="-12" type="curve" smooth="yes"/>
      <point x="490" y="-12"/>
      <point x="568" y="51"/>
      <point x="590" y="149" type="curve"/>
      <point x="627" y="0" type="line"/>
      <point x="597" y="-42"/>
      <point x="583" y="-82"/>
      <point x="583" y="-122" type="curve" smooth="yes"/>
      <point x="583" y="-214"/>
      <point x="654" y="-280"/>
    </contour>
  </outline>
</glyph>
<glyph name="Schwa" format="2">
  <advance width="1050"/>
  <unicode hex="018F"/>
  <outline>
    <contour>
      <point x="537" y="-12" type="curve" smooth="yes"/>
      <point x="761" y="-12"/>
      <point x="936" y="166"/>
      <point x="936" y="395" type="curve" smooth="yes"/>
      <point x="936" y="664"/>
      <point x="692" y="912"/>
      <point x="427" y="912" type="curve" smooth="yes"/>
      <point x="295" y="912"/>
      <point x="176" y="849"/>
      <point x="99" y="741" type="curve"/>
      <point x="121" y="695" type="line"/>
      <point x="186" y="805"/>
      <point x="301" y="870"/>
      <point x="430" y="870" type="curve" smooth="yes"/>
      <point x="643" y="870"/>
      <point x="841" y="690"/>
      <point x="882" y="475" type="curve"/>
      <point x="842" y="478"/>
      <point x="806" y="480"/>
      <point x="770" y="480" type="curve" smooth="yes"/>
      <point x="30" y="480" type="line"/>
      <point x="31" y="470"/>
      <point x="32" y="460"/>
      <point x="33" y="450" type="curve" smooth="yes"/>
      <point x="58" y="201"/>
      <point x="293" y="-12"/>
    </contour>
    <contour>
      <point x="535" y="30" type="curve" smooth="yes"/>
      <point x="319" y="30"/>
      <point x="114" y="218"/>
      <point x="80" y="438" type="curve"/>
      <point x="779" y="438" type="line" smooth="yes"/>
      <point x="814" y="438"/>
      <point x="850" y="439"/>
      <point x="887" y="443" type="curve"/>
      <point x="913" y="217"/>
      <point x="756" y="30"/>
    </contour>
  </outline>
</glyph>
<glyph name="florin" format="2">
  <advance width="750"/>
  <unicode hex="0192"/>
  <outline>
    <contour>
      <point x="315" y="-192" type="curve" smooth="yes"/>
      <point x="430" y="-192"/>
      <point x="495" y="-96"/>
      <point x="462" y="37" type="curve" smooth="yes"/>
      <point x="363" y="432" type="line"/>
      <point x="587" y="432" type="line"/>
      <point x="578" y="468" type="line"/>
      <point x="354" y="468" type="line"/>
      <point x="285" y="743" type="line" smooth="yes"/>
      <point x="256" y="860"/>
      <point x="296" y="934"/>
      <point x="392" y="934" type="curve" smooth="yes"/>
      <point x="423" y="934"/>
      <point x="449" y="926"/>
      <point x="482" y="907" type="curve"/>
      <point x="482" y="949" type="line"/>
      <point x="452" y="964"/>
      <point x="422" y="972"/>
      <point x="390" y="972" type="curve" smooth="yes"/>
      <point x="275" y="972"/>
      <point x="210" y="876"/>
      <point x="243" y="743" type="curve" smooth="yes"/>
      <point x="312" y="468" type="line"/>
      <point x="88" y="468" type="line"/>
      <point x="97" y="432" type="line"/>
      <point x="321" y="432" type="line"/>
      <point x="420" y="37" type="line" smooth="yes"/>
      <point x="449" y="-80"/>
      <point x="409" y="-154"/>
      <point x="313" y="-154" type="curve" smooth="yes"/>
      <point x="282" y="-154"/>
      <point x="256" y="-146"/>
      <point x="223" y="-127" type="curve"/>
      <point x="223" y="-169" type="line"/>
      <point x="253" y="-184"/>
      <point x="283" y="-192"/>
    </contour>
  </outline>
</glyph>
<glyph name="Ohorn" format="2">
  <advance width="1040"/>
  <unicode hex="01A0"/>
  <anchor x="595" y="0" name="bottom"/>
  <anchor x="370" y="900" name="top"/>
  <outline>
    <contour>
      <point x="537" y="-12" type="curve" smooth="yes"/>
      <point x="760" y="-12"/>
      <point x="936" y="165"/>
      <point x="936" y="395" type="curve" smooth="yes"/>
      <point x="936" y="525"/>
      <point x="879" y="650"/>
      <point x="790" y="745" type="curve"/>
      <point x="816" y="764"/>
      <point x="834" y="796"/>
      <point x="834" y="840" type="curve" smooth="yes"/>
      <point x="834" y="882"/>
      <point x="819" y="924"/>
      <point x="794" y="960" type="curve"/>
      <point x="750" y="960" type="line"/>
      <point x="788" y="918"/>
      <point x="796" y="864"/>
      <point x="796" y="839" type="curve" smooth="yes"/>
      <point x="796" y="809"/>
      <point x="784" y="785"/>
      <point x="764" y="771" type="curve"/>
      <point x="672" y="857"/>
      <point x="551" y="912"/>
      <point x="427" y="912" type="curve" smooth="yes"/>
      <point x="205" y="912"/>
      <point x="29" y="736"/>
      <point x="29" y="506" type="curve" smooth="yes"/>
      <point x="29" y="235"/>
      <point x="275" y="-12"/>
    </contour>
    <contour>
      <point x="535" y="30" type="curve" smooth="yes"/>
      <point x="298" y="30"/>
      <point x="75" y="256"/>
      <point x="75" y="504" type="curve" smooth="yes"/>
      <point x="75" y="712"/>
      <point x="232" y="870"/>
      <point x="430" y="870" type="curve" smooth="yes"/>
      <point x="668" y="870"/>
      <point x="890" y="643"/>
      <point x="890" y="394" type="curve" smooth="yes"/>
      <point x="890" y="186"/>
      <point x="735" y="30"/>
    </contour>
  </outline>
</glyph>
<glyph name="ohorn" format="2">
  <advance width="750"/>
  <unicode hex="01A1"/>
  <anchor x="440" y="0" name="bottom"/>
  <anchor x="299" y="570" name="top"/>
  <outline>
    <contour>
      <point x="400" y="-12" type="curve" smooth="yes"/>
      <point x="549" y="-12"/>
      <point x="664" y="102"/>
      <point x="664" y="251" type="curve" smooth="yes"/>
      <point x="664" y="317"/>
      <point x="641" y="381"/>
      <point x="603" y="434" type="curve"/>
      <point x="636" y="453"/>
      <point x="661" y="487"/>
      <point x="661" y="540" type="curve" smooth="yes"/>
      <point x="661" y="582"/>
      <point x="646" y="624"/>
      <point x="621" y="660" type="curve"/>
      <point x="577" y="660" type="line"/>
      <point x="615" y="618"/>
      <point x="623" y="564"/>
      <point x="623" y="539" type="curve" smooth="yes"/>
      <point x="623" y="503"/>
      <point x="606" y="477"/>
      <point x="580" y="464" type="curve"/>
      <point x="517" y="535"/>
      <point x="425" y="582"/>
      <point x="328" y="582" type="curve" smooth="yes"/>
      <point x="179" y="582"/>
      <point x="64" y="468"/>
      <point x="64" y="319" type="curve" smooth="yes"/>
      <point x="64" y="144"/>
      <point x="223" y="-12"/>
    </contour>
    <contour>
      <point x="396" y="28" type="curve" smooth="yes"/>
      <point x="243" y="28"/>
      <point x="106" y="164"/>
      <point x="106" y="315" type="curve" smooth="yes"/>
      <point x="106" y="443"/>
      <point x="204" y="542"/>
      <point x="332" y="542" type="curve" smooth="yes"/>
      <point x="485" y="542"/>
      <point x="622" y="406"/>
      <point x="622" y="255" type="curve" smooth="yes"/>
      <point x="622" y="127"/>
      <point x="524" y="28"/>
    </contour>
  </outline>
</glyph>
<glyph name="Uhorn" format="2">
  <advance width="850"/>
  <unicode hex="01AF"/>
  <anchor x="420" y="0" name="bottom"/>
  <anchor x="231" y="900" name="top"/>
  <outline>
    <contour>
      <point x="420" y="-9" type="curve" smooth="yes"/>
      <point x="609" y="-9"/>
      <point x="691" y="138"/>
      <point x="649" y="308" type="curve" smooth="yes"/>
      <point x="539" y="750" type="line"/>
      <point x="546" y="749"/>
      <point x="554" y="749"/>
      <point x="561" y="749" type="curve" smooth="yes"/>
      <point x="615" y="749"/>
      <point x="677" y="788"/>
      <point x="677" y="870" type="curve" smooth="yes"/>
      <point x="677" y="912"/>
      <point x="662" y="954"/>
      <point x="637" y="990" type="curve"/>
      <point x="593" y="990" type="line"/>
      <point x="631" y="948"/>
      <point x="639" y="894"/>
      <point x="639" y="869" type="curve" smooth="yes"/>
      <point x="639" y="817"/>
      <point x="604" y="785"/>
      <point x="554" y="785" type="curve" smooth="yes"/>
      <point x="546" y="785"/>
      <point x="536" y="786"/>
      <point x="528" y="788" type="curve"/>
      <point x="500" y="900" type="line"/>
      <point x="459" y="900" type="line"/>
      <point x="607" y="308" type="line" smooth="yes"/>
      <point x="645" y="156"/>
      <point x="587" y="30"/>
      <point x="421" y="30" type="curve" smooth="yes"/>
      <point x="293" y="30"/>
      <point x="202" y="104"/>
      <point x="166" y="248" type="curve" smooth="yes"/>
      <point x="3" y="900" type="line"/>
      <point x="-41" y="900" type="line"/>
      <point x="122" y="248" type="line" smooth="yes"/>
      <point x="164" y="81"/>
      <point x="272" y="-9"/>
    </contour>
  </outline>
</glyph>
<glyph name="uhorn" format="2">
  <advance width="790"/>
  <unicode hex="01B0"/>
  <anchor x="384" y="0" name="bottom"/>
  <anchor x="275" y="570" name="top"/>
  <outline>
    <contour>
      <point x="385" y="-12" type="curve" smooth="yes"/>
      <point x="490" y="-12"/>
      <point x="568" y="51"/>
      <point x="590" y="149" type="curve"/>
      <point x="627" y="0" type="line"/>
      <point x="665" y="0" type="line"/>
      <point x="558" y="420" type="line"/>
      <point x="565" y="419"/>
      <point x="573" y="419"/>
      <point x="580" y="419" type="curve" smooth="yes"/>
      <point x="634" y="419"/>
      <point x="696" y="458"/>
      <point x="696" y="540" type="curve" smooth="yes"/>
      <point x="696" y="582"/>
      <point x="681" y="624"/>
      <point x="656" y="660" type="curve"/>
      <point x="612" y="660" type="line"/>
      <point x="650" y="618"/>
      <point x="658" y="564"/>
      <point x="658" y="539" type="curve" smooth="yes"/>
      <point x="658" y="487"/>
      <point x="623" y="455"/>
      <point x="573" y="455" type="curve" smooth="yes"/>
      <point x="565" y="455"/>
      <point x="555" y="456"/>
      <point x="547" y="458" type="curve"/>
      <point x="520" y="570" type="line"/>
      <point x="480" y="570" type="line"/>
      <point x="555" y="274" type="line" smooth="yes"/>
      <point x="589" y="138"/>
      <point x="509" y="28"/>
      <point x="383" y="28" type="curve" smooth="yes"/>
      <point x="278" y="28"/>
      <point x="188" y="103"/>
      <point x="157" y="227" type="curve" smooth="yes"/>
      <point x="70" y="570" type="line"/>
      <point x="28" y="570" type="line"/>
      <point x="118" y="216" type="line" smooth="yes"/>
      <point x="153" y="78"/>
      <point x="258" y="-12"/>
    </contour>
  </outline>
</glyph>
<glyph name="Ezh" format="2">
  <advance width="660"/>
  <unicode hex="01B7"/>
  <anchor x="405" y="0" name="bottom"/>
  <anchor x="165" y="900" name="top"/>
  <outline>
    <contour>
      <point x="333" y="-12" type="curve" smooth="yes"/>
      <point x="486" y="-12"/>
      <point x="601" y="102"/>
      <point x="601" y="250" type="curve" smooth="yes"/>
      <point x="601" y="425"/>
      <point x="442" y="579"/>
      <point x="262" y="578" type="curve"/>
      <point x="372" y="898" type="line"/>
      <point x="372" y="900" type="line"/>
      <point x="-42" y="900" type="line"/>
      <point x="-33" y="862" type="line"/>
      <point x="320" y="862" type="line"/>
      <point x="207" y="534" type="line"/>
      <point x="208" y="532" type="line"/>
      <point x="230" y="540"/>
      <point x="247" y="542"/>
      <point x="266" y="542" type="curve" smooth="yes"/>
      <point x="420" y="542"/>
      <point x="557" y="405"/>
      <point x="557" y="252" type="curve" smooth="yes"/>
      <point x="557" y="126"/>
      <point x="464" y="28"/>
      <point x="334" y="28" type="curve" smooth="yes"/>
      <point x="244" y="28"/>
      <point x="150" y="75"/>
      <point x="91" y="150" type="curve"/>
      <point x="77" y="104" type="line"/>
      <point x="143" y="33"/>
      <point x="236" y="-12"/>
    </contour>
  </outline>
</glyph>
<glyph name="Gstroke" format="2">
  <advance width="940"/>
  <unicode hex="01E4"/>
  <outline>
    <contour>
      <point x="562" y="-12" type="curve" smooth="yes"/>
      <point x="683" y="-12"/>
      <point x="790" y="30"/>
      <point x="878" y="113" type="curve"/>
      <point x="821" y="342" type="line"/>
      <point x="910" y="342" type="line"/>
      <point x="902" y="378" type="line"/>
      <point x="812" y="378" type="line"/>
      <point x="771" y="540" type="line"/>
      <point x="730" y="540" type="line"/>
      <point x="770" y="378" type="line"/>
      <point x="482" y="378" type="line"/>
      <point x="490" y="342" type="line"/>
      <point x="779" y="342" type="line"/>
      <point x="832" y="128" type="line"/>
      <point x="758" y="63"/>
      <point x="666" y="30"/>
      <point x="563" y="30" type="curve" smooth="yes"/>
      <point x="300" y="30"/>
      <point x="75" y="249"/>
      <point x="75" y="504" type="curve" smooth="yes"/>
      <point x="75" y="713"/>
      <point x="228" y="870"/>
      <point x="431" y="870" type="curve" smooth="yes"/>
      <point x="548" y="870"/>
      <point x="664" y="817"/>
      <point x="753" y="722" type="curve"/>
      <point x="753" y="781" type="line"/>
      <point x="662" y="865"/>
      <point x="546" y="912"/>
      <point x="430" y="912" type="curve" smooth="yes"/>
      <point x="203" y="912"/>
      <point x="29" y="734"/>
      <point x="29" y="502" type="curve" smooth="yes"/>
      <point x="29" y="226"/>
      <point x="275" y="-12"/>
    </contour>
  </outline>
</glyph>
<glyph name="gstroke" format="2">
  <advance width="740"/>
  <unicode hex="01E5"/>
  <outline>
    <contour>
      <point x="437" y="-312" type="curve" smooth="yes"/>
      <point x="633" y="-312"/>
      <point x="749" y="-159"/>
      <point x="700" y="36" type="curve" smooth="yes"/>
      <point x="642" y="268" type="line"/>
      <point x="731" y="268" type="line"/>
      <point x="723" y="302" type="line"/>
      <point x="634" y="302" type="line"/>
      <point x="567" y="570" type="line"/>
      <point x="529" y="570" type="line"/>
      <point x="556" y="462" type="line"/>
      <point x="495" y="535"/>
      <point x="407" y="578"/>
      <point x="317" y="578" type="curve" smooth="yes"/>
      <point x="173" y="578"/>
      <point x="64" y="467"/>
      <point x="64" y="322" type="curve" smooth="yes"/>
      <point x="64" y="148"/>
      <point x="219" y="-8"/>
      <point x="392" y="-8" type="curve" smooth="yes"/>
      <point x="503" y="-8"/>
      <point x="597" y="59"/>
      <point x="631" y="162" type="curve"/>
      <point x="661" y="40" type="line" smooth="yes"/>
      <point x="704" y="-136"/>
      <point x="607" y="-272"/>
      <point x="435" y="-272" type="curve" smooth="yes"/>
      <point x="359" y="-272"/>
      <point x="287" y="-244"/>
      <point x="229" y="-191" type="curve"/>
      <point x="229" y="-244" type="line"/>
      <point x="290" y="-289"/>
      <point x="360" y="-312"/>
    </contour>
    <contour>
      <point x="391" y="32" type="curve" smooth="yes"/>
      <point x="241" y="32"/>
      <point x="106" y="166"/>
      <point x="106" y="316" type="curve" smooth="yes"/>
      <point x="106" y="441"/>
      <point x="202" y="538"/>
      <point x="326" y="538" type="curve" smooth="yes"/>
      <point x="455" y="538"/>
      <point x="573" y="431"/>
      <point x="599" y="302" type="curve"/>
      <point x="363" y="302" type="line"/>
      <point x="371" y="268" type="line"/>
      <point x="604" y="268" type="line"/>
      <point x="614" y="138"/>
      <point x="526" y="32"/>
    </contour>
  </outline>
</glyph>
<glyph name="Oogonek" format="2">
  <advance width="1040"/>
  <unicode hex="01EA"/>
  <anchor x="370" y="900" name="top"/>
  <outline>
    <contour>
      <point x="686" y="-282" type="curve"/>
      <point x="686" y="-244" type="line"/>
      <point x="607" y="-244"/>
      <point x="553" y="-191"/>
      <point x="553" y="-114" type="curve" smooth="yes"/>
      <point x="553" y="-80"/>
      <point x="565" y="-45"/>
      <point x="591" y="-8" type="curve"/>
      <point x="788" y="17"/>
      <point x="936" y="184"/>
      <point x="936" y="395" type="curve" smooth="yes"/>
      <point x="936" y="665"/>
      <point x="691" y="912"/>
      <point x="427" y="912" type="curve" smooth="yes"/>
      <point x="205" y="912"/>
      <point x="29" y="736"/>
      <point x="29" y="506" type="curve" smooth="yes"/>
      <point x="29" y="235"/>
      <point x="275" y="-12"/>
      <point x="547" y="-12" type="curve"/>
      <point x="524" y="-50"/>
      <point x="513" y="-86"/>
      <point x="513" y="-122" type="curve" smooth="yes"/>
      <point x="513" y="-214"/>
      <point x="584" y="-280"/>
    </contour>
    <contour>
      <point x="535" y="30" type="curve" smooth="yes"/>
      <point x="298" y="30"/>
      <point x="75" y="256"/>
      <point x="75" y="504" type="curve" smooth="yes"/>
      <point x="75" y="712"/>
      <point x="232" y="870"/>
      <point x="430" y="870" type="curve" smooth="yes"/>
      <point x="668" y="870"/>
      <point x="890" y="643"/>
      <point x="890" y="394" type="curve" smooth="yes"/>
      <point x="890" y="186"/>
      <point x="735" y="30"/>
    </contour>
  </outline>
</glyph>
<glyph name="oogonek" format="2">
  <advance width="720"/>
  <unicode hex="01EB"/>
  <anchor x="330" y="570" name="top"/>
  <outline>
    <contour>
      <point x="529" y="-282" type="curve"/>
      <point x="529" y="-244" type="line"/>
      <point x="450" y="-244"/>
      <point x="396" y="-191"/>
      <point x="396" y="-114" type="curve" smooth="yes"/>
      <point x="396" y="-80"/>
      <point x="408" y="-46"/>
      <point x="433" y="-10" type="curve"/>
      <point x="565" y="5"/>
      <point x="664" y="113"/>
      <point x="664" y="251" type="curve" smooth="yes"/>
      <point x="664" y="426"/>
      <point x="505" y="582"/>
      <point x="328" y="582" type="curve" smooth="yes"/>
      <point x="179" y="582"/>
      <point x="64" y="468"/>
      <point x="64" y="319" type="curve" smooth="yes"/>
      <point x="64" y="147"/>
      <point x="217" y="-6"/>
      <point x="390" y="-12" type="curve"/>
      <point x="367" y="-50"/>
      <point x="356" y="-86"/>
      <point x="356" y="-122" type="curve" smooth="yes"/>
      <point x="356" y="-214"/>
      <point x="427" y="-280"/>
    </contour>
    <contour>
      <point x="396" y="28" type="curve" smooth="yes"/>
      <point x="243" y="28"/>
      <point x="106" y="164"/>
      <point x="106" y="315" type="curve" smooth="yes"/>
      <point x="106" y="443"/>
      <point x="204" y="542"/>
      <point x="332" y="542" type="curve" smooth="yes"/>
      <point x="485" y="542"/>
      <point x="622" y="406"/>
      <point x="622" y="255" type="curve" smooth="yes"/>
      <point x="622" y="127"/>
      <point x="524" y="28"/>
    </contour>
  </outline>
</glyph>
<glyph name="Aringacute" format="2">
  <advance width="780"/>
  <unicode hex="01FA"/>
  <outline>
    <contour>
      <point x="118" y="0" type="line"/>
      <point x="161" y="0" type="line"/>
      <point x="207" y="374" type="line"/>
      <point x="531" y="374" type="line"/>
      <point x="761" y="0" type="line"/>
      <point x="808" y="0" type="line"/>
      <point x="264" y="884" type="line"/>
      <point x="317" y="897"/>
      <point x="355" y="943"/>
      <point x="355" y="998" type="curve" smooth="yes"/>
      <point x="355" y="1076"/>
      <point x="282" y="1146"/>
      <point x="205" y="1146" type="curve" smooth="yes"/>
      <point x="140" y="1146"/>
      <point x="83" y="1097"/>
      <point x="83" y="1027" type="curve" smooth="yes"/>
      <point x="83" y="952"/>
      <point x="151" y="883"/>
      <point x="228" y="880" type="curve"/>
    </contour>
    <contour>
      <point x="211" y="412" type="line"/>
      <point x="241" y="660" type="line" smooth="yes"/>
      <point x="249" y="730"/>
      <point x="254" y="764"/>
      <point x="258" y="828" type="curve"/>
      <point x="292" y="764"/>
      <point x="314" y="730"/>
      <point x="357" y="660" type="curve" smooth="yes"/>
      <point x="509" y="412" type="line"/>
    </contour>
    <contour>
      <point x="234" y="914" type="curve" smooth="yes"/>
      <point x="176" y="914"/>
      <point x="120" y="965"/>
      <point x="120" y="1028" type="curve" smooth="yes"/>
      <point x="120" y="1073"/>
      <point x="156" y="1112"/>
      <point x="204" y="1112" type="curve" smooth="yes"/>
      <point x="262" y="1112"/>
      <point x="318" y="1061"/>
      <point x="318" y="998" type="curve" smooth="yes"/>
      <point x="318" y="954"/>
      <point x="282" y="914"/>
    </contour>
    <contour>
      <point x="160" y="1185" type="line"/>
      <point x="190" y="1185" type="line"/>
      <point x="243" y="1293" type="line"/>
      <point x="204" y="1293" type="line"/>
    </contour>
  </outline>
</glyph>
<glyph name="jdotless" format="2">
  <advance width="260"/>
  <unicode hex="0237"/>
  <anchor x="280" y="-300" name="bottom"/>
  <anchor x="62" y="570" name="top"/>
  <outline>
    <contour>
      <point x="165" y="-312" type="line"/>
      <point x="241" y="-303"/>
      <point x="285" y="-239"/>
      <point x="259" y="-136" type="curve" smooth="yes"/>
      <point x="83" y="570" type="line"/>
      <point x="41" y="570" type="line"/>
      <point x="219" y="-140" type="line" smooth="yes"/>
      <point x="243" y="-236"/>
      <point x="198" y="-269"/>
      <point x="146" y="-276" type="curve"/>
    </contour>
  </outline>
</glyph>
<glyph name="schwa" format="2">
  <advance width="690"/>
  <unicode hex="0259"/>
  <outline>
    <contour>
      <point x="370" y="-12" type="curve" smooth="yes"/>
      <point x="518" y="-12"/>
      <point x="626" y="100"/>
      <point x="626" y="249" type="curve" smooth="yes"/>
      <point x="626" y="428"/>
      <point x="470" y="582"/>
      <point x="291" y="582" type="curve" smooth="yes"/>
      <point x="206" y="582"/>
      <point x="130" y="545"/>
      <point x="80" y="481" type="curve"/>
      <point x="101" y="436" type="line"/>
      <point x="141" y="502"/>
      <point x="214" y="542"/>
      <point x="294" y="542" type="curve" smooth="yes"/>
      <point x="439" y="542"/>
      <point x="573" y="420"/>
      <point x="584" y="276" type="curve"/>
      <point x="559" y="278"/>
      <point x="531" y="279"/>
      <point x="504" y="279" type="curve" smooth="yes"/>
      <point x="61" y="279" type="line"/>
      <point x="62" y="270" type="line" smooth="yes"/>
      <point x="80" y="110"/>
      <point x="215" y="-12"/>
    </contour>
    <contour>
      <point x="369" y="28" type="curve" smooth="yes"/>
      <point x="245" y="28"/>
      <point x="132" y="124"/>
      <point x="106" y="246" type="curve"/>
      <point x="139" y="244"/>
      <point x="159" y="243"/>
      <point x="185" y="243" type="curve" smooth="yes"/>
      <point x="508" y="243" type="line" smooth="yes"/>
      <point x="533" y="243"/>
      <point x="559" y="244"/>
      <point x="584" y="246" type="curve"/>
      <point x="584" y="121"/>
      <point x="493" y="28"/>
    </contour>
  </outline>
</glyph>
<glyph name="ezh" format="2">
  <advance width="640"/>
  <unicode hex="0292"/>
  <anchor x="470" y="-300" name="bottom"/>
  <anchor x="223" y="570" name="top"/>
  <outline>
    <contour>
      <point x="386" y="-312" type="curve" smooth="yes"/>
      <point x="534" y="-312"/>
      <point x="645" y="-202"/>
      <point x="645" y="-59" type="curve" smooth="yes"/>
      <point x="645" y="111"/>
      <point x="491" y="260"/>
      <point x="317" y="259" type="curve"/>
      <point x="423" y="568" type="line"/>
      <point x="423" y="570" type="line"/>
      <point x="23" y="570" type="line"/>
      <point x="33" y="532" type="line"/>
      <point x="374" y="532" type="line"/>
      <point x="265" y="217" type="line"/>
      <point x="266" y="215" type="line"/>
      <point x="286" y="221"/>
      <point x="302" y="223"/>
      <point x="321" y="223" type="curve" smooth="yes"/>
      <point x="470" y="223"/>
      <point x="603" y="91"/>
      <point x="603" y="-57" type="curve" smooth="yes"/>
      <point x="603" y="-179"/>
      <point x="512" y="-273"/>
      <point x="387" y="-273" type="curve" smooth="yes"/>
      <point x="300" y="-273"/>
      <point x="209" y="-228"/>
      <point x="152" y="-155" type="curve"/>
      <point x="138" y="-200" type="line"/>
      <point x="202" y="-268"/>
      <point x="292" y="-312"/>
    </contour>
  </outline>
</glyph>
<glyph name="gravecomb" format="2">
  <unicode hex="0300"/>
  <anchor x="346" y="570" name="_top"/>
  <anchor x="181" y="828" name="top"/>
  <outline>
    <contour>
      <point x="302" y="672" type="line"/>
      <point x="340" y="672" type="line"/>
      <point x="206" y="828" type="line"/>
      <point x="156" y="828" type="line"/>
    </contour>
  </outline>
</glyph>
<glyph name="acutecomb" format="2">
  <unicode hex="0301"/>
  <anchor x="238" y="570" name="_top"/>
  <anchor x="284" y="846" name="top"/>
  <outline>
    <contour>
      <point x="198" y="672" type="line"/>
      <point x="228" y="672" type="line"/>
      <point x="304" y="846" type="line"/>
      <point x="263" y="846" type="line"/>
    </contour>
  </outline>
</glyph>
<glyph name="tildecomb" format="2">
  <unicode hex="0303"/>
  <anchor x="293" y="570" name="_top"/>
  <anchor x="235" y="800" name="top"/>
  <outline>
    <contour>
      <point x="69" y="705" type="line"/>
      <point x="88" y="744"/>
      <point x="117" y="766"/>
      <point x="153" y="766" type="curve" smooth="yes"/>
      <point x="216" y="766"/>
      <point x="263" y="700"/>
      <point x="338" y="700" type="curve" smooth="yes"/>
      <point x="380" y="700"/>
      <point x="414" y="720"/>
      <point x="440" y="755" type="curve"/>
      <point x="425" y="796" type="line"/>
      <point x="405" y="756"/>
      <point x="377" y="734"/>
      <point x="341" y="734" type="curve" smooth="yes"/>
      <point x="278" y="734"/>
      <point x="231" y="800"/>
      <point x="156" y="800" type="curve" smooth="yes"/>
      <point x="114" y="800"/>
      <point x="79" y="780"/>
      <point x="54" y="746" type="curve"/>
    </contour>
  </outline>
</glyph>
<glyph name="macroncomb" format="2">
  <unicode hex="0304"/>
  <anchor x="293" y="570" name="_top"/>
  <anchor x="243" y="767" name="top"/>
  <outline>
    <contour>
      <point x="81" y="733" type="line"/>
      <point x="423" y="733" type="line"/>
      <point x="415" y="767" type="line"/>
      <point x="73" y="767" type="line"/>
    </contour>
  </outline>
</glyph>
<glyph name="brevecomb" format="2">
  <unicode hex="0306"/>
  <anchor x="293" y="570" name="_top"/>
  <anchor x="232" y="810" name="top"/>
  <outline>
    <contour>
      <point x="253" y="662" type="curve" smooth="yes"/>
      <point x="342" y="662"/>
      <point x="394" y="737"/>
      <point x="381" y="810" type="curve"/>
      <point x="348" y="810" type="line"/>
      <point x="358" y="749"/>
      <point x="321" y="694"/>
      <point x="251" y="694" type="curve" smooth="yes"/>
      <point x="186" y="694"/>
      <point x="138" y="743"/>
      <point x="121" y="810" type="curve"/>
      <point x="87" y="810" type="line"/>
      <point x="105" y="728"/>
      <point x="169" y="662"/>
    </contour>
  </outline>
</glyph>
<glyph name="dotaccentcomb" format="2">
  <unicode hex="0307"/>
  <anchor x="293" y="570" name="_top"/>
  <anchor x="238" y="786" name="top"/>
  <outline>
    <contour>
      <point x="251" y="714" type="curve" smooth="yes"/>
      <point x="270" y="714"/>
      <point x="283" y="728"/>
      <point x="283" y="745" type="curve" smooth="yes"/>
      <point x="283" y="767"/>
      <point x="264" y="786"/>
      <point x="243" y="786" type="curve" smooth="yes"/>
      <point x="226" y="786"/>
      <point x="211" y="773"/>
      <point x="211" y="755" type="curve" smooth="yes"/>
      <point x="211" y="733"/>
      <point x="230" y="714"/>
    </contour>
  </outline>
</glyph>
<glyph name="dieresiscomb" format="2">
  <unicode hex="0308"/>
  <anchor x="293" y="570" name="_top"/>
  <anchor x="238" y="786" name="top"/>
  <outline>
    <contour>
      <point x="158" y="714" type="curve" smooth="yes"/>
      <point x="176" y="714"/>
      <point x="190" y="728"/>
      <point x="190" y="745" type="curve" smooth="yes"/>
      <point x="190" y="767"/>
      <point x="171" y="786"/>
      <point x="150" y="786" type="curve" smooth="yes"/>
      <point x="133" y="786"/>
      <point x="118" y="773"/>
      <point x="118" y="755" type="curve" smooth="yes"/>
      <point x="118" y="733"/>
      <point x="137" y="714"/>
    </contour>
    <contour>
      <point x="344" y="714" type="curve" smooth="yes"/>
      <point x="362" y="714"/>
      <point x="376" y="728"/>
      <point x="376" y="745" type="curve" smooth="yes"/>
      <point x="376" y="767"/>
      <point x="357" y="786"/>
      <point x="336" y="786" type="curve" smooth="yes"/>
      <point x="319" y="786"/>
      <point x="304" y="773"/>
      <point x="304" y="755" type="curve" smooth="yes"/>
      <point x="304" y="733"/>
      <point x="323" y="714"/>
    </contour>
  </outline>
</glyph>
<glyph name="hookabovecomb" format="2">
  <unicode hex="0309"/>
  <anchor x="293" y="570" name="_top"/>
  <anchor x="210" y="855" name="top"/>
  <outline>
    <contour>
      <point x="253" y="660" type="curve"/>
      <point x="289" y="660" type="line"/>
      <point x="316" y="696"/>
      <point x="328" y="726"/>
      <point x="328" y="754" type="curve" smooth="yes"/>
      <point x="328" y="811"/>
      <point x="282" y="855"/>
      <point x="222" y="855" type="curve" smooth="yes"/>
      <point x="185" y="855"/>
      <point x="148" y="840"/>
      <point x="123" y="814" type="curve"/>
      <point x="139" y="782" type="line"/>
      <point x="157" y="808"/>
      <point x="186" y="823"/>
      <point x="221" y="823" type="curve" smooth="yes"/>
      <point x="265" y="823"/>
      <point x="294" y="795"/>
      <point x="294" y="751" type="curve" smooth="yes"/>
      <point x="294" y="726"/>
      <point x="283" y="701"/>
    </contour>
  </outline>
</glyph>
<glyph name="hungarumlautcomb" format="2">
  <unicode hex="030B"/>
  <anchor x="206" y="570" name="_top"/>
  <anchor x="277" y="846" name="top"/>
  <outline>
    <contour>
      <point x="265" y="672" type="line"/>
      <point x="295" y="672" type="line"/>
      <point x="372" y="846" type="line"/>
      <point x="330" y="846" type="line"/>
    </contour>
    <contour>
      <point x="118" y="672" type="line"/>
      <point x="148" y="672" type="line"/>
      <point x="225" y="846" type="line"/>
      <point x="183" y="846" type="line"/>
    </contour>
  </outline>
</glyph>
<glyph name="caroncomb" format="2">
  <unicode hex="030C"/>
  <anchor x="293" y="570" name="_top"/>
  <anchor x="226" y="840" name="top"/>
  <outline>
    <contour>
      <point x="271" y="654" type="line"/>
      <point x="273" y="654" type="line"/>
      <point x="368" y="828" type="line"/>
      <point x="334" y="828" type="line"/>
      <point x="308" y="788"/>
      <point x="286" y="747"/>
      <point x="265" y="707" type="curve"/>
      <point x="224" y="747"/>
      <point x="180" y="788"/>
      <point x="136" y="828" type="curve"/>
      <point x="92" y="828" type="line"/>
    </contour>
  </outline>
</glyph>
<glyph name="dblgravecomb" format="2">
  <unicode hex="030F"/>
  <anchor x="347" y="570" name="_top"/>
  <anchor x="181" y="828" name="top"/>
  <outline>
    <contour>
      <point x="383" y="672" type="line"/>
      <point x="419" y="672" type="line"/>
      <point x="285" y="828" type="line"/>
      <point x="237" y="828" type="line"/>
    </contour>
    <contour>
      <point x="223" y="672" type="line"/>
      <point x="259" y="672" type="line"/>
      <point x="125" y="828" type="line"/>
      <point x="77" y="828" type="line"/>
    </contour>
  </outline>
</glyph>
<glyph name="breveinvertedcomb" format="2">
  <unicode hex="0311"/>
  <anchor x="293" y="570" name="_top"/>
  <anchor x="232" y="810" name="top"/>
  <outline>
    <contour>
      <point x="121" y="672" type="curve"/>
      <point x="154" y="672" type="line"/>
      <point x="144" y="733"/>
      <point x="181" y="788"/>
      <point x="251" y="788" type="curve" smooth="yes"/>
      <point x="316" y="788"/>
      <point x="364" y="739"/>
      <point x="381" y="672" type="curve"/>
      <point x="415" y="672" type="line"/>
      <point x="397" y="754"/>
      <point x="333" y="820"/>
      <point x="249" y="820" type="curve" smooth="yes"/>
      <point x="160" y="820"/>
      <point x="108" y="745"/>
    </contour>
  </outline>
</glyph>
<glyph name="commaturnedabovecomb" format="2">
  <unicode hex="0312"/>
  <anchor x="285" y="600" name="_top"/>
  <anchor x="238" y="930" name="top"/>
  <outline>
    <contour>
      <point x="233" y="732" type="curve"/>
      <point x="273" y="732" type="line"/>
      <point x="242" y="806"/>
      <point x="239" y="880"/>
      <point x="259" y="930" type="curve"/>
      <point x="217" y="930" type="line"/>
      <point x="201" y="871"/>
      <point x="204" y="798"/>
    </contour>
  </outline>
</glyph>
<glyph name="horncomb" format="2">
  <unicode hex="031B"/>
  <anchor x="202" y="600" name="_topright"/>
  <outline>
    <contour>
      <point x="258" y="419" type="curve" smooth="yes"/>
      <point x="315" y="419"/>
      <point x="378" y="458"/>
      <point x="378" y="540" type="curve" smooth="yes"/>
      <point x="378" y="582"/>
      <point x="363" y="624"/>
      <point x="338" y="660" type="curve"/>
      <point x="294" y="660" type="line"/>
      <point x="332" y="618"/>
      <point x="340" y="564"/>
      <point x="340" y="539" type="curve" smooth="yes"/>
      <point x="340" y="487"/>
      <point x="305" y="455"/>
      <point x="255" y="455" type="curve" smooth="yes"/>
      <point x="245" y="455"/>
      <point x="232" y="457"/>
      <point x="222" y="461" type="curve"/>
      <point x="232" y="422" type="line"/>
      <point x="241" y="420"/>
      <point x="250" y="419"/>
    </contour>
  </outline>
</glyph>
<glyph name="dotbelowcomb" format="2">
  <unicode hex="0323"/>
  <anchor x="435" y="0" name="_bottom"/>
  <anchor x="493" y="-231" name="bottom"/>
  <outline>
    <contour>
      <point x="484" y="-216" type="curve" smooth="yes"/>
      <point x="503" y="-216"/>
      <point x="516" y="-202"/>
      <point x="516" y="-185" type="curve" smooth="yes"/>
      <point x="516" y="-163"/>
      <point x="497" y="-144"/>
      <point x="476" y="-144" type="curve" smooth="yes"/>
      <point x="459" y="-144"/>
      <point x="444" y="-157"/>
      <point x="444" y="-175" type="curve" smooth="yes"/>
      <point x="444" y="-197"/>
      <point x="463" y="-216"/>
    </contour>
  </outline>
</glyph>
<glyph name="dieresisbelowcomb" format="2">
  <unicode hex="0324"/>
  <anchor x="435" y="0" name="_bottom"/>
  <anchor x="489" y="-216" name="bottom"/>
  <outline>
    <contour>
      <point x="578" y="-216" type="curve" smooth="yes"/>
      <point x="595" y="-216"/>
      <point x="610" y="-203"/>
      <point x="610" y="-185" type="curve" smooth="yes"/>
      <point x="610" y="-163"/>
      <point x="591" y="-144"/>
      <point x="570" y="-144" type="curve" smooth="yes"/>
      <point x="552" y="-144"/>
      <point x="538" y="-158"/>
      <point x="538" y="-175" type="curve" smooth="yes"/>
      <point x="538" y="-197"/>
      <point x="557" y="-216"/>
    </contour>
    <contour>
      <point x="392" y="-216" type="curve" smooth="yes"/>
      <point x="409" y="-216"/>
      <point x="424" y="-203"/>
      <point x="424" y="-185" type="curve" smooth="yes"/>
      <point x="424" y="-163"/>
      <point x="405" y="-144"/>
      <point x="384" y="-144" type="curve" smooth="yes"/>
      <point x="366" y="-144"/>
      <point x="352" y="-158"/>
      <point x="352" y="-175" type="curve" smooth="yes"/>
      <point x="352" y="-197"/>
      <point x="371" y="-216"/>
    </contour>
  </outline>
</glyph>
<glyph name="commaaccentcomb" format="2">
  <unicode hex="0326"/>
  <anchor x="435" y="0" name="_bottom"/>
  <anchor x="483" y="-330" name="bottom"/>
  <outline>
    <contour>
      <point x="462" y="-330" type="curve"/>
      <point x="504" y="-330" type="line"/>
      <point x="520" y="-271"/>
      <point x="517" y="-198"/>
      <point x="488" y="-132" type="curve"/>
      <point x="448" y="-132" type="line"/>
      <point x="479" y="-206"/>
      <point x="482" y="-280"/>
    </contour>
  </outline>
</glyph>
<glyph name="cedillacomb" format="2">
  <unicode hex="0327"/>
  <anchor x="524" y="0" name="_bottom"/>
  <anchor x="396" y="-180" name="bottom"/>
  <outline>
    <contour>
      <point x="371" y="-180" type="line"/>
      <point x="421" y="-180" type="line"/>
      <point x="543" y="0" type="line"/>
      <point x="505" y="0" type="line"/>
    </contour>
  </outline>
</glyph>
<glyph name="ogonekcomb" format="2">
  <unicode hex="0328"/>
  <anchor x="428" y="0" name="_ogonek"/>
  <outline>
    <contour>
      <point x="538" y="-282" type="curve"/>
      <point x="538" y="-244" type="line"/>
      <point x="459" y="-244"/>
      <point x="405" y="-191"/>
      <point x="405" y="-114" type="curve" smooth="yes"/>
      <point x="405" y="-77"/>
      <point x="419" y="-40"/>
      <point x="449" y="0" type="curve"/>
      <point x="407" y="0" type="line"/>
      <point x="379" y="-42"/>
      <point x="365" y="-82"/>
      <point x="365" y="-122" type="curve" smooth="yes"/>
      <point x="365" y="-214"/>
      <point x="436" y="-280"/>
    </contour>
  </outline>
</glyph>
<glyph name="brevebelowcomb" format="2">
  <unicode hex="032E"/>
  <anchor x="435" y="0" name="_bottom"/>
  <anchor x="497" y="-250" name="bottom"/>
  <outline>
    <contour>
      <point x="479" y="-250" type="curve" smooth="yes"/>
      <point x="568" y="-250"/>
      <point x="620" y="-175"/>
      <point x="607" y="-102" type="curve"/>
      <point x="574" y="-102" type="line"/>
      <point x="584" y="-163"/>
      <point x="547" y="-218"/>
      <point x="477" y="-218" type="curve" smooth="yes"/>
      <point x="412" y="-218"/>
      <point x="364" y="-169"/>
      <point x="347" y="-102" type="curve"/>
      <point x="313" y="-102" type="line"/>
      <point x="331" y="-184"/>
      <point x="395" y="-250"/>
    </contour>
  </outline>
</glyph>
<glyph name="macronbelowcomb" format="2">
  <unicode hex="0331"/>
  <anchor x="435" y="0" name="_bottom"/>
  <anchor x="484" y="-197" name="bottom"/>
  <outline>
    <contour>
      <point x="313" y="-197" type="line"/>
      <point x="655" y="-197" type="line"/>
      <point x="647" y="-163" type="line"/>
      <point x="305" y="-163" type="line"/>
    </contour>
  </outline>
</glyph>
<glyph name="strokelongcomb" format="2">
  <unicode hex="0336"/>
  <anchor x="363" y="450" name="_center"/>
  <outline>
    <contour>
      <point x="27" y="432" type="line"/>
      <point x="707" y="432" type="line"/>
      <point x="699" y="468" type="line"/>
      <point x="19" y="468" type="line"/>
    </contour>
  </outline>
</glyph>
<glyph name="slashshortcomb" format="2">
  <unicode hex="0337"/>
  <anchor x="278" y="300" name="_center"/>
  <outline>
    <contour>
      <point x="155" y="185" type="line"/>
      <point x="414" y="387" type="line"/>
      <point x="395" y="415" type="line"/>
      <point x="136" y="213" type="line"/>
    </contour>
  </outline>
</glyph>
<glyph name="slashlongcomb" format="2">
  <unicode hex="0338"/>
  <anchor x="275" y="285" name="_center"/>
  <outline>
    <contour>
      <point x="110" y="-24" type="line"/>
      <point x="471" y="575" type="line"/>
      <point x="440" y="594" type="line"/>
      <point x="79" y="-5" type="line"/>
    </contour>
  </outline>
</glyph>
<glyph name="pi" format="2">
  <advance width="700"/>
  <unicode hex="03C0"/>
  <outline>
    <contour>
      <point x="184" y="0" type="line"/>
      <point x="226" y="0" type="line"/>
      <point x="95" y="532" type="line"/>
      <point x="492" y="532" type="line"/>
      <point x="624" y="0" type="line"/>
      <point x="666" y="0" type="line"/>
      <point x="523" y="570" type="line"/>
      <point x="42" y="570" type="line"/>
    </contour>
  </outline>
</glyph>
<glyph name="baht" format="2">
  <advance width="750"/>
  <unicode hex="0E3F"/>
  <outline>
    <contour>
      <point x="457" y="-120" type="line"/>
      <point x="493" y="-120" type="line"/>
      <point x="462" y="3" type="line"/>
      <point x="598" y="22"/>
      <point x="678" y="117"/>
      <point x="678" y="241" type="curve" smooth="yes"/>
      <point x="678" y="389"/>
      <point x="563" y="518"/>
      <point x="400" y="541" type="curve"/>
      <point x="458" y="569"/>
      <point x="490" y="623"/>
      <point x="490" y="688" type="curve" smooth="yes"/>
      <point x="490" y="803"/>
      <point x="389" y="900"/>
      <point x="238" y="900" type="curve"/>
      <point x="215" y="990" type="line"/>
      <point x="179" y="990" type="line"/>
      <point x="202" y="900" type="line"/>
      <point x="-4" y="900" type="line"/>
      <point x="221" y="0" type="line"/>
      <point x="427" y="0" type="line"/>
    </contour>
    <contour>
      <point x="255" y="38" type="line"/>
      <point x="137" y="510" type="line"/>
      <point x="340" y="510" type="line" smooth="yes"/>
      <point x="516" y="510"/>
      <point x="634" y="387"/>
      <point x="634" y="245" type="curve" smooth="yes"/>
      <point x="634" y="126"/>
      <point x="552" y="38"/>
      <point x="400" y="38" type="curve" smooth="yes"/>
    </contour>
    <contour>
      <point x="128" y="546" type="line"/>
      <point x="50" y="862" type="line"/>
      <point x="252" y="862" type="line" smooth="yes"/>
      <point x="370" y="862"/>
      <point x="448" y="779"/>
      <point x="448" y="685" type="curve" smooth="yes"/>
      <point x="448" y="605"/>
      <point x="393" y="546"/>
      <point x="292" y="546" type="curve" smooth="yes"/>
    </contour>
  </outline>
</glyph>
<glyph name="Germandbls" format="2">
  <advance width="950"/>
  <unicode hex="1E9E"/>
  <outline>
    <contour>
      <point x="625" y="-12" type="curve" smooth="yes"/>
      <point x="778" y="-12"/>
      <point x="893" y="102"/>
      <point x="893" y="250" type="curve" smooth="yes"/>
      <point x="893" y="425"/>
      <point x="734" y="579"/>
      <point x="554" y="578" type="curve"/>
      <point x="664" y="899" type="line"/>
      <point x="664" y="900" type="line"/>
      <point x="-14" y="900" type="line"/>
      <point x="211" y="0" type="line"/>
      <point x="255" y="0" type="line"/>
      <point x="39" y="862" type="line"/>
      <point x="612" y="862" type="line"/>
      <point x="499" y="535" type="line"/>
      <point x="500" y="534" type="line"/>
      <point x="522" y="540"/>
      <point x="539" y="542"/>
      <point x="558" y="542" type="curve" smooth="yes"/>
      <point x="712" y="542"/>
      <point x="849" y="405"/>
      <point x="849" y="252" type="curve" smooth="yes"/>
      <point x="849" y="126"/>
      <point x="756" y="28"/>
      <point x="626" y="28" type="curve" smooth="yes"/>
      <point x="536" y="28"/>
      <point x="442" y="75"/>
      <point x="383" y="150" type="curve"/>
      <point x="369" y="104" type="line"/>
      <point x="435" y="33"/>
      <point x="528" y="-12"/>
    </contour>
  </outline>
</glyph>
<glyph name="emdash" format="2">
  <advance width="1440"/>
  <unicode hex="2014"/>
  <outline>
    <contour>
      <point x="65" y="281" type="line"/>
      <point x="1385" y="281" type="line"/>
      <point x="1375" y="319" type="line"/>
      <point x="55" y="319" type="line"/>
    </contour>
  </outline>
</glyph>
<glyph name="dblverticalbar" format="2">
  <advance width="480"/>
  <unicode hex="2016"/>
  <outline>
    <contour>
      <point x="320" y="-180" type="line"/>
      <point x="356" y="-180" type="line"/>
      <point x="356" y="960" type="line"/>
      <point x="320" y="960" type="line"/>
    </contour>
    <contour>
      <point x="80" y="-180" type="line"/>
      <point x="116" y="-180" type="line"/>
      <point x="116" y="960" type="line"/>
      <point x="80" y="960" type="line"/>
    </contour>
  </outline>
</glyph>
<glyph name="quoteleft" format="2">
  <advance width="240"/>
  <unicode hex="2018"/>
  <outline>
    <contour>
      <point x="15" y="600" type="curve"/>
      <point x="55" y="600" type="line"/>
      <point x="8" y="712"/>
      <point x="4" y="824"/>
      <point x="34" y="900" type="curve"/>
      <point x="-9" y="900" type="line"/>
      <point x="-33" y="810"/>
      <point x="-28" y="700"/>
    </contour>
  </outline>
</glyph>
<glyph name="quoteright" format="2">
  <advance width="240"/>
  <unicode hex="2019"/>
  <outline>
    <contour>
      <point x="-19" y="600" type="curve"/>
      <point x="24" y="600" type="line"/>
      <point x="48" y="690"/>
      <point x="43" y="800"/>
      <point x="0" y="900" type="curve"/>
      <point x="-40" y="900" type="line"/>
      <point x="7" y="788"/>
      <point x="11" y="676"/>
    </contour>
  </outline>
</glyph>
<glyph name="quotesinglbase" format="2">
  <advance width="240"/>
  <unicode hex="201A"/>
  <outline>
    <contour>
      <point x="175" y="-180" type="curve"/>
      <point x="220" y="-180" type="line"/>
      <point x="244" y="-90"/>
      <point x="239" y="20"/>
      <point x="196" y="120" type="curve"/>
      <point x="154" y="120" type="line"/>
      <point x="201" y="8"/>
      <point x="205" y="-104"/>
    </contour>
  </outline>
</glyph>
<glyph name="dagger" format="2">
  <advance width="600"/>
  <unicode hex="2020"/>
  <outline>
    <contour>
      <point x="354" y="0" type="line"/>
      <point x="396" y="0" type="line"/>
      <point x="240" y="614" type="line"/>
      <point x="438" y="611" type="line"/>
      <point x="429" y="649" type="line"/>
      <point x="231" y="646" type="line"/>
      <point x="171" y="900" type="line"/>
      <point x="129" y="900" type="line"/>
      <point x="195" y="646" type="line"/>
      <point x="-3" y="649" type="line"/>
      <point x="6" y="611" type="line"/>
      <point x="204" y="614" type="line"/>
    </contour>
  </outline>
</glyph>
<glyph name="daggerdbl" format="2">
  <advance width="600"/>
  <unicode hex="2021"/>
  <outline>
    <contour>
      <point x="355" y="0" type="line"/>
      <point x="397" y="0" type="line"/>
      <point x="331" y="254" type="line"/>
      <point x="529" y="251" type="line"/>
      <point x="520" y="289" type="line"/>
      <point x="322" y="286" type="line"/>
      <point x="285" y="450" type="line"/>
      <point x="241" y="614" type="line"/>
      <point x="439" y="611" type="line"/>
      <point x="430" y="649" type="line"/>
      <point x="232" y="646" type="line"/>
      <point x="172" y="900" type="line"/>
      <point x="130" y="900" type="line"/>
      <point x="196" y="646" type="line"/>
      <point x="-2" y="649" type="line"/>
      <point x="7" y="611" type="line"/>
      <point x="205" y="614" type="line"/>
      <point x="243" y="450" type="line"/>
      <point x="286" y="286" type="line"/>
      <point x="88" y="289" type="line"/>
      <point x="97" y="251" type="line"/>
      <point x="295" y="254" type="line"/>
    </contour>
  </outline>
</glyph>
<glyph name="bullet" format="2">
  <advance width="480"/>
  <unicode hex="2022"/>
  <outline>
    <contour>
      <point x="222" y="294" type="curve" smooth="yes"/>
      <point x="302" y="294"/>
      <point x="359" y="352"/>
      <point x="359" y="430" type="curve" smooth="yes"/>
      <point x="359" y="522"/>
      <point x="280" y="606"/>
      <point x="184" y="606" type="curve" smooth="yes"/>
      <point x="104" y="606"/>
      <point x="47" y="545"/>
      <point x="47" y="468" type="curve" smooth="yes"/>
      <point x="47" y="377"/>
      <point x="126" y="294"/>
    </contour>
  </outline>
</glyph>
